<svg width="993" height="662" viewBox="0 0 993 662" fill="none" xmlns="http://www.w3.org/2000/svg">
<g clip-path="url(#clip0_440_13225)">
<path d="M0.15918 8.27368C0.15918 3.70426 3.86343 0 8.43285 0H984.726C989.296 0 993 3.70425 993 8.27367V28.9579H0.15918V8.27368Z" fill="#202124"/>
<path d="M234.58 13.0996C234.199 13.0996 233.89 13.4083 233.89 13.7891V16.547H231.132C230.752 16.547 230.443 16.8557 230.443 17.2364C230.443 17.6172 230.752 17.9259 231.132 17.9259H233.89V20.6838C233.89 21.0646 234.199 21.3733 234.58 21.3733C234.96 21.3733 235.269 21.0646 235.269 20.6838V17.9259H238.027C238.408 17.9259 238.717 17.6172 238.717 17.2364C238.717 16.8557 238.408 16.547 238.027 16.547H235.269V13.7891C235.269 13.4083 234.96 13.0996 234.58 13.0996Z" fill="#BEC1C5"/>
<g filter="url(#filter0_i_440_13225)">
<path fill-rule="evenodd" clip-rule="evenodd" d="M13.2594 19.3049C15.5441 19.3049 17.3962 17.4528 17.3962 15.1681C17.3962 12.8834 15.5441 11.0312 13.2594 11.0312C10.9747 11.0312 9.12256 12.8834 9.12256 15.1681C9.12256 17.4528 10.9747 19.3049 13.2594 19.3049Z" fill="#ED6A5E"/>
</g>
<path d="M17.2239 15.1681C17.2239 17.3576 15.4489 19.1326 13.2594 19.1326C11.0699 19.1326 9.29493 17.3576 9.29493 15.1681C9.29493 12.9786 11.0699 11.2036 13.2594 11.2036C15.4489 11.2036 17.2239 12.9786 17.2239 15.1681Z" stroke="#CE5347" stroke-width="0.344736"/>
<g filter="url(#filter1_i_440_13225)">
<path fill-rule="evenodd" clip-rule="evenodd" d="M27.0489 19.3049C29.3337 19.3049 31.1858 17.4528 31.1858 15.1681C31.1858 12.8834 29.3337 11.0312 27.0489 11.0312C24.7642 11.0312 22.9121 12.8834 22.9121 15.1681C22.9121 17.4528 24.7642 19.3049 27.0489 19.3049Z" fill="#F6BE4F"/>
</g>
<path d="M31.0134 15.1681C31.0134 17.3576 29.2385 19.1326 27.0489 19.1326C24.8594 19.1326 23.0845 17.3576 23.0845 15.1681C23.0845 12.9786 24.8594 11.2036 27.0489 11.2036C29.2385 11.2036 31.0134 12.9786 31.0134 15.1681Z" stroke="#D6A243" stroke-width="0.344736"/>
<g filter="url(#filter2_i_440_13225)">
<path fill-rule="evenodd" clip-rule="evenodd" d="M40.8385 19.3049C43.1232 19.3049 44.9753 17.4528 44.9753 15.1681C44.9753 12.8834 43.1232 11.0312 40.8385 11.0312C38.5538 11.0312 36.7017 12.8834 36.7017 15.1681C36.7017 17.4528 38.5538 19.3049 40.8385 19.3049Z" fill="#62C554"/>
</g>
<path d="M44.803 15.1681C44.803 17.3576 43.028 19.1326 40.8385 19.1326C38.649 19.1326 36.874 17.3576 36.874 15.1681C36.874 12.9786 38.649 11.2036 40.8385 11.2036C43.028 11.2036 44.803 12.9786 44.803 15.1681Z" stroke="#58A942" stroke-width="0.344736"/>
<path fill-rule="evenodd" clip-rule="evenodd" d="M59.454 5.51562C56.4078 5.51562 53.9383 7.98512 53.9383 11.0314V23.4419H53.9382V23.4421C53.9382 26.4743 51.4913 28.9351 48.4644 28.9577H53.9383H219.412H224.885C221.858 28.9351 219.412 26.4743 219.412 23.4421C219.412 23.4297 219.412 23.4173 219.412 23.405V11.0314C219.412 7.98512 216.942 5.51562 213.896 5.51562H59.454Z" fill="#35363A"/>
<mask id="mask0_440_13225" style="mask-type:alpha" maskUnits="userSpaceOnUse" x="78" y="10" width="123" height="14">
<rect x="78.7588" y="10" width="122.037" height="13.7895" fill="url(#paint0_linear_440_13225)"/>
</mask>
<g mask="url(#mask0_440_13225)">
<path d="M79.7433 20V14.1705H80.4705V16.6913H83.6701V14.1705H84.3973V20H83.6701V17.3458H80.4705V20H79.7433ZM87.3989 20V14.8249H85.5204V14.1705H90.0046V14.8249H88.1261V20H87.3989ZM92.6427 20V14.8249H90.7641V14.1705H95.2484V14.8249H93.3698V20H92.6427ZM96.3715 20V14.1705H98.5692C99.664 14.1705 100.44 14.9259 100.44 16.0328V16.0409C100.44 17.1478 99.664 17.9195 98.5692 17.9195H97.0987V20H96.3715ZM98.3833 14.8168H97.0987V17.2731H98.3833C99.2156 17.2731 99.6963 16.8166 99.6963 16.049V16.0409C99.6963 15.2733 99.2156 14.8168 98.3833 14.8168ZM105.473 20V14.8249H103.595V14.1705H108.079V14.8249H106.201V20H105.473ZM110.095 20.0768C108.855 20.0768 108.087 19.2203 108.087 17.8265V17.8185C108.087 16.4207 108.855 15.5683 110.095 15.5683C111.335 15.5683 112.103 16.4207 112.103 17.8185V17.8265C112.103 19.2203 111.335 20.0768 110.095 20.0768ZM110.095 19.4546C110.919 19.4546 111.384 18.8527 111.384 17.8265V17.8185C111.384 16.7883 110.919 16.1904 110.095 16.1904C109.271 16.1904 108.806 16.7883 108.806 17.8185V17.8265C108.806 18.8527 109.271 19.4546 110.095 19.4546ZM114.983 20.0768C113.743 20.0768 112.975 19.2203 112.975 17.8265V17.8185C112.975 16.4207 113.743 15.5683 114.983 15.5683C116.223 15.5683 116.991 16.4207 116.991 17.8185V17.8265C116.991 19.2203 116.223 20.0768 114.983 20.0768ZM114.983 19.4546C115.807 19.4546 116.272 18.8527 116.272 17.8265V17.8185C116.272 16.7883 115.807 16.1904 114.983 16.1904C114.159 16.1904 113.694 16.7883 113.694 17.8185V17.8265C113.694 18.8527 114.159 19.4546 114.983 19.4546ZM118.122 20V13.9159H118.825V20H118.122ZM120.215 20V13.9159H120.918V17.5478H120.982L122.865 15.645H123.717L121.819 17.4751L123.843 20H122.958L121.326 17.9518L120.918 18.3477V20H120.215ZM125.038 14.8047C124.772 14.8047 124.554 14.5866 124.554 14.3199C124.554 14.0533 124.772 13.8351 125.038 13.8351C125.305 13.8351 125.523 14.0533 125.523 14.3199C125.523 14.5866 125.305 14.8047 125.038 14.8047ZM124.683 20V15.645H125.386V20H124.683ZM128.258 20.0323C127.361 20.0323 126.986 19.701 126.986 18.8688V16.2268H126.299V15.645H126.986V14.5179H127.713V15.645H128.666V16.2268H127.713V18.6911C127.713 19.2041 127.891 19.4102 128.343 19.4102C128.468 19.4102 128.537 19.4061 128.666 19.394V19.9919C128.529 20.0162 128.396 20.0323 128.258 20.0323Z" fill="white"/>
</g>
<path d="M205.816 19.1781C205.626 19.3685 205.626 19.6772 205.816 19.8676C206.007 20.058 206.315 20.058 206.506 19.8676L208.407 17.9661L210.308 19.8676C210.499 20.058 210.808 20.058 210.998 19.8676C211.188 19.6772 211.188 19.3685 210.998 19.1781L209.097 17.2767L210.998 15.3752C211.188 15.1848 211.188 14.8762 210.998 14.6858C210.808 14.4954 210.499 14.4954 210.308 14.6858L208.407 16.5872L206.506 14.6858C206.315 14.4954 206.007 14.4954 205.816 14.6858C205.626 14.8762 205.626 15.1848 205.816 15.3752L207.718 17.2767L205.816 19.1781Z" fill="white"/>
<path d="M65.6166 17.6207H65.418C65.1301 17.6207 64.8966 17.8541 64.8966 18.1421V18.3407C64.8966 18.6286 65.1301 18.8621 65.418 18.8621H65.6166C65.9046 18.8621 66.138 18.6286 66.138 18.3407V18.1421C66.138 17.8541 65.9046 17.6207 65.6166 17.6207Z" fill="#E1421F"/>
<path d="M65.6166 14.7241H65.418C65.1301 14.7241 64.8966 14.9576 64.8966 15.2455V15.4441C64.8966 15.7321 65.1301 15.9655 65.418 15.9655H65.6166C65.9046 15.9655 66.138 15.7321 66.138 15.4441V15.2455C66.138 14.9576 65.9046 14.7241 65.6166 14.7241Z" fill="#E1421F"/>
<path d="M71.641 11C72.944 11 74.0001 12.0561 74.0001 13.3591V20.6409C74.0001 21.9439 72.944 23 71.641 23H67.7766C67.6897 23 67.6272 22.9168 67.6516 22.8336L67.9219 21.8998C67.9463 21.8161 68.0226 21.7586 68.1095 21.7586H71.6585C72.2663 21.7586 72.7591 21.2657 72.7591 20.6579V13.3421C72.7591 12.8423 72.4263 12.4211 71.9702 12.2864L69.4897 20.7903C69.4653 20.8736 69.389 20.931 69.3021 20.931H68.3812C68.2943 20.931 68.2318 20.8478 68.2562 20.7641L71.0488 11.1876C71.0814 11.0763 71.183 11 71.2989 11H71.641Z" fill="#E1421F"/>
<path d="M68.3959 13.2097L65.9025 21.7586H64.3421C63.7343 21.7586 63.2414 21.2657 63.2414 20.6579V13.3421C63.2414 12.7343 63.7343 12.2414 64.3421 12.2414H69.7701C69.857 12.2414 69.9338 12.1839 69.9577 12.1002L70.2276 11.1664C70.2515 11.0832 70.189 11 70.1025 11H64.3591C63.0561 11 62 12.0561 62 13.3591V20.6409C62 21.9439 63.0561 23 64.3591 23H66.5862C66.7021 23 66.8041 22.9237 66.8363 22.8124L69.6294 13.2359C69.6538 13.1526 69.5913 13.069 69.5044 13.069H68.5834C68.4966 13.069 68.4202 13.1264 68.3959 13.2097Z" fill="#E1421F"/>
<rect x="0.15918" y="28.958" width="992.841" height="25.5105" fill="#35363A"/>
<rect x="0.15918" y="54.124" width="992.841" height="0.344736" fill="#282828"/>
<path fill-rule="evenodd" clip-rule="evenodd" d="M15.5242 37.1058C15.7244 37.3095 15.7216 37.6369 15.5179 37.8371L12.627 40.6786H19.2922C19.5778 40.6786 19.8093 40.9101 19.8093 41.1957C19.8093 41.4813 19.5778 41.7128 19.2922 41.7128H12.6323L15.5168 44.5318C15.7211 44.7314 15.7248 45.0588 15.5252 45.2631C15.3256 45.4673 14.9982 45.4711 14.794 45.2715L11.0019 41.5656C10.9025 41.4685 10.8464 41.3354 10.8462 41.1965C10.846 41.0575 10.9017 40.9244 11.0008 40.827L14.7929 37.0995C14.9966 36.8993 15.324 36.9021 15.5242 37.1058Z" fill="#F1F3F4"/>
<path fill-rule="evenodd" clip-rule="evenodd" d="M37.1941 37.1058C36.9939 37.3095 36.9967 37.6369 37.2004 37.8371L40.0912 40.6786H33.426C33.1404 40.6786 32.9089 40.9101 32.9089 41.1957C32.9089 41.4813 33.1404 41.7128 33.426 41.7128H40.086L37.2014 44.5318C36.9972 44.7314 36.9934 45.0588 37.193 45.2631C37.3926 45.4673 37.72 45.4711 37.9243 45.2715L41.7164 41.5656C41.8158 41.4685 41.8719 41.3354 41.8721 41.1965C41.8723 41.0575 41.8165 40.9244 41.7175 40.827L37.9254 37.0995C37.7217 36.8993 37.3943 36.9021 37.1941 37.1058Z" fill="#86888A"/>
<path d="M56.0064 41.3683C56.0064 39.4644 57.5498 37.9209 59.4537 37.9209C60.493 37.9209 61.4252 38.3806 62.0577 39.109L60.4879 40.6788H64.28V36.8867L62.7904 38.3764C61.9703 37.4625 60.7795 36.8867 59.4537 36.8867C56.9786 36.8867 54.9722 38.8932 54.9722 41.3683C54.9722 43.8434 56.9786 45.8499 59.4537 45.8499C61.2313 45.8499 62.7661 44.8149 63.4904 43.3171C63.6148 43.06 63.5071 42.7508 63.25 42.6264C62.9929 42.5021 62.6837 42.6098 62.5594 42.8669C62.0012 44.0212 60.8197 44.8157 59.4537 44.8157C57.5498 44.8157 56.0064 43.2722 56.0064 41.3683Z" fill="#F1F3F4"/>
<rect x="74.6221" y="31.7158" width="888.2" height="19.3052" rx="9.65262" fill="#202124"/>
<path fill-rule="evenodd" clip-rule="evenodd" d="M87.0328 37.9209C86.0808 37.9209 85.3091 38.6926 85.3091 39.6446V40.3341H84.9644C84.5836 40.3341 84.2749 40.6427 84.2749 41.0235V44.4709C84.2749 44.8517 84.5836 45.1604 84.9644 45.1604H89.1012C89.482 45.1604 89.7907 44.8517 89.7907 44.4709V41.0235C89.7907 40.6427 89.482 40.3341 89.1012 40.3341H88.7565V39.6446C88.7565 38.6926 87.9848 37.9209 87.0328 37.9209ZM88.067 40.3341V39.6446C88.067 39.0734 87.604 38.6104 87.0328 38.6104C86.4616 38.6104 85.9986 39.0734 85.9986 39.6446V40.3341H88.067Z" fill="#EAEAEA"/>
<path d="M98.8751 44.7158V37.6178H99.6952V40.3985H99.7706C100.025 39.8612 100.501 39.5454 101.251 39.5454C102.391 39.5454 103.027 40.2194 103.027 41.426V44.7158H102.207V41.624C102.207 40.7096 101.83 40.2713 101.02 40.2713C100.209 40.2713 99.6952 40.818 99.6952 41.7088V44.7158H98.8751ZM106.317 44.7535C105.271 44.7535 104.833 44.367 104.833 43.3961V40.3137H104.031V39.635H104.833V38.32H105.681V39.635H106.793V40.3137H105.681V43.1887C105.681 43.7873 105.888 44.0277 106.416 44.0277C106.562 44.0277 106.642 44.023 106.793 44.0088V44.7064C106.633 44.7347 106.478 44.7535 106.317 44.7535ZM109.824 44.7535C108.778 44.7535 108.339 44.367 108.339 43.3961V40.3137H107.538V39.635H108.339V38.32H109.188V39.635H110.3V40.3137H109.188V43.1887C109.188 43.7873 109.395 44.0277 109.923 44.0277C110.069 44.0277 110.149 44.023 110.3 44.0088V44.7064C110.14 44.7347 109.984 44.7535 109.824 44.7535ZM111.525 46.4126V39.635H112.345V40.4457H112.421C112.732 39.8801 113.297 39.5454 114.004 39.5454C115.291 39.5454 116.135 40.5871 116.135 42.1707V42.1801C116.135 43.7732 115.296 44.8054 114.004 44.8054C113.307 44.8054 112.699 44.4566 112.421 43.9146H112.345V46.4126H111.525ZM113.816 44.0795C114.744 44.0795 115.296 43.3631 115.296 42.1801V42.1707C115.296 40.9877 114.744 40.2713 113.816 40.2713C112.892 40.2713 112.327 40.9971 112.327 42.1707V42.1801C112.327 43.3537 112.892 44.0795 113.816 44.0795ZM119.161 44.8054C118.03 44.8054 117.252 44.2586 117.158 43.4197H117.997C118.133 43.8439 118.539 44.122 119.189 44.122C119.872 44.122 120.358 43.7967 120.358 43.3349V43.3254C120.358 42.9814 120.099 42.741 119.472 42.5902L118.685 42.4016C117.733 42.1754 117.304 41.7606 117.304 41.0301V41.0254C117.304 40.1817 118.114 39.5454 119.194 39.5454C120.259 39.5454 120.999 40.078 121.112 40.9076H120.306C120.198 40.5069 119.802 40.2289 119.189 40.2289C118.586 40.2289 118.143 40.5399 118.143 40.9877V40.9971C118.143 41.3412 118.397 41.558 118.996 41.7041L119.778 41.8926C120.735 42.1236 121.197 42.5383 121.197 43.2642V43.2736C121.197 44.1785 120.315 44.8054 119.161 44.8054ZM123.139 41.1149C122.804 41.1149 122.526 40.8369 122.526 40.5022C122.526 40.1629 122.804 39.8895 123.139 39.8895C123.478 39.8895 123.751 40.1629 123.751 40.5022C123.751 40.8369 123.478 41.1149 123.139 41.1149ZM123.139 44.763C122.804 44.763 122.526 44.4849 122.526 44.1502C122.526 43.8109 122.804 43.5375 123.139 43.5375C123.478 43.5375 123.751 43.8109 123.751 44.1502C123.751 44.4849 123.478 44.763 123.139 44.763ZM127.508 37.6178L125.359 46.4126H124.571L126.721 37.6178H127.508ZM130.449 37.6178L128.3 46.4126H127.512L129.662 37.6178H130.449ZM132.197 44.7158L130.774 39.635H131.594L132.593 43.6978H132.669L133.805 39.635H134.582L135.718 43.6978H135.794L136.793 39.635H137.608L136.185 44.7158H135.36L134.224 40.785H134.149L133.017 44.7158H132.197ZM139.673 44.7158L138.249 39.635H139.069L140.068 43.6978H140.144L141.28 39.635H142.057L143.193 43.6978H143.269L144.268 39.635H145.083L143.66 44.7158H142.835L141.699 40.785H141.624L140.493 44.7158H139.673ZM147.148 44.7158L145.724 39.635H146.544L147.544 43.6978H147.619L148.755 39.635H149.533L150.668 43.6978H150.744L151.743 39.635H152.558L151.135 44.7158H150.31L149.174 40.785H149.099L147.968 44.7158H147.148ZM153.605 44.763C153.27 44.763 152.992 44.4849 152.992 44.1502C152.992 43.8109 153.27 43.5375 153.605 43.5375C153.944 43.5375 154.217 43.8109 154.217 44.1502C154.217 44.4849 153.944 44.763 153.605 44.763ZM155.848 44.7158V37.6178H156.668V40.3985H156.744C156.998 39.8612 157.474 39.5454 158.224 39.5454C159.364 39.5454 160.001 40.2194 160.001 41.426V44.7158H159.18V41.624C159.18 40.7096 158.803 40.2713 157.993 40.2713C157.182 40.2713 156.668 40.818 156.668 41.7088V44.7158H155.848ZM163.29 44.7535C162.244 44.7535 161.806 44.367 161.806 43.3961V40.3137H161.004V39.635H161.806V38.32H162.654V39.635H163.766V40.3137H162.654V43.1887C162.654 43.7873 162.861 44.0277 163.389 44.0277C163.535 44.0277 163.616 44.023 163.766 44.0088V44.7064C163.606 44.7347 163.451 44.7535 163.29 44.7535ZM166.797 44.7535C165.751 44.7535 165.312 44.367 165.312 43.3961V40.3137H164.511V39.635H165.312V38.32H166.161V39.635H167.273V40.3137H166.161V43.1887C166.161 43.7873 166.368 44.0277 166.896 44.0277C167.042 44.0277 167.122 44.023 167.273 44.0088V44.7064C167.113 44.7347 166.957 44.7535 166.797 44.7535ZM170.304 44.7535C169.257 44.7535 168.819 44.367 168.819 43.3961V40.3137H168.018V39.635H168.819V38.32H169.667V39.635H170.78V40.3137H169.667V43.1887C169.667 43.7873 169.875 44.0277 170.403 44.0277C170.549 44.0277 170.629 44.023 170.78 44.0088V44.7064C170.619 44.7347 170.464 44.7535 170.304 44.7535ZM172.005 46.4126V39.635H172.825V40.4457H172.901C173.212 39.8801 173.777 39.5454 174.484 39.5454C175.771 39.5454 176.615 40.5871 176.615 42.1707V42.1801C176.615 43.7732 175.776 44.8054 174.484 44.8054C173.787 44.8054 173.179 44.4566 172.901 43.9146H172.825V46.4126H172.005ZM174.296 44.0795C175.224 44.0795 175.776 43.3631 175.776 42.1801V42.1707C175.776 40.9877 175.224 40.2713 174.296 40.2713C173.372 40.2713 172.806 40.9971 172.806 42.1707V42.1801C172.806 43.3537 173.372 44.0795 174.296 44.0795ZM179.702 44.7535C178.655 44.7535 178.217 44.367 178.217 43.3961V40.3137H177.416V39.635H178.217V38.32H179.065V39.635H180.178V40.3137H179.065V43.1887C179.065 43.7873 179.273 44.0277 179.801 44.0277C179.947 44.0277 180.027 44.023 180.178 44.0088V44.7064C180.017 44.7347 179.862 44.7535 179.702 44.7535ZM183.416 44.8054C181.969 44.8054 181.073 43.8062 181.073 42.1801V42.1707C181.073 40.5399 181.969 39.5454 183.416 39.5454C184.863 39.5454 185.758 40.5399 185.758 42.1707V42.1801C185.758 43.8062 184.863 44.8054 183.416 44.8054ZM183.416 44.0795C184.377 44.0795 184.919 43.3773 184.919 42.1801V42.1707C184.919 40.9688 184.377 40.2713 183.416 40.2713C182.454 40.2713 181.912 40.9688 181.912 42.1707V42.1801C181.912 43.3773 182.454 44.0795 183.416 44.0795ZM189.119 44.8054C187.672 44.8054 186.776 43.8062 186.776 42.1801V42.1707C186.776 40.5399 187.672 39.5454 189.119 39.5454C190.566 39.5454 191.461 40.5399 191.461 42.1707V42.1801C191.461 43.8062 190.566 44.8054 189.119 44.8054ZM189.119 44.0795C190.08 44.0795 190.622 43.3773 190.622 42.1801V42.1707C190.622 40.9688 190.08 40.2713 189.119 40.2713C188.157 40.2713 187.615 40.9688 187.615 42.1707V42.1801C187.615 43.3773 188.157 44.0795 189.119 44.0795ZM192.781 44.7158V37.6178H193.601V44.7158H192.781ZM195.222 44.7158V37.6178H196.042V41.8549H196.118L198.314 39.635H199.309L197.093 41.7701L199.455 44.7158H198.422L196.518 42.3262L196.042 42.7881V44.7158H195.222ZM200.85 38.6547C200.539 38.6547 200.284 38.4001 200.284 38.0891C200.284 37.778 200.539 37.5235 200.85 37.5235C201.161 37.5235 201.415 37.778 201.415 38.0891C201.415 38.4001 201.161 38.6547 200.85 38.6547ZM200.435 44.7158V39.635H201.255V44.7158H200.435ZM204.606 44.7535C203.56 44.7535 203.122 44.367 203.122 43.3961V40.3137H202.32V39.635H203.122V38.32H203.97V39.635H205.082V40.3137H203.97V43.1887C203.97 43.7873 204.177 44.0277 204.705 44.0277C204.851 44.0277 204.931 44.023 205.082 44.0088V44.7064C204.922 44.7347 204.766 44.7535 204.606 44.7535ZM206.977 44.763C206.642 44.763 206.364 44.4849 206.364 44.1502C206.364 43.8109 206.642 43.5375 206.977 43.5375C207.316 43.5375 207.59 43.8109 207.59 44.1502C207.59 44.4849 207.316 44.763 206.977 44.763ZM211.063 44.8054C209.64 44.8054 208.73 43.7732 208.73 42.1613V42.1518C208.73 40.5729 209.635 39.5454 211.059 39.5454C212.293 39.5454 213.033 40.2571 213.184 41.1621L213.189 41.1904H212.373L212.369 41.1762C212.242 40.6766 211.789 40.2713 211.059 40.2713C210.144 40.2713 209.569 41.0065 209.569 42.1518V42.1613C209.569 43.3301 210.154 44.0795 211.059 44.0795C211.742 44.0795 212.176 43.7779 212.364 43.2123L212.373 43.184L213.184 43.1793L213.175 43.2312C212.967 44.1502 212.284 44.8054 211.063 44.8054ZM216.474 44.8054C215.027 44.8054 214.132 43.8062 214.132 42.1801V42.1707C214.132 40.5399 215.027 39.5454 216.474 39.5454C217.921 39.5454 218.816 40.5399 218.816 42.1707V42.1801C218.816 43.8062 217.921 44.8054 216.474 44.8054ZM216.474 44.0795C217.435 44.0795 217.977 43.3773 217.977 42.1801V42.1707C217.977 40.9688 217.435 40.2713 216.474 40.2713C215.512 40.2713 214.97 40.9688 214.97 42.1707V42.1801C214.97 43.3773 215.512 44.0795 216.474 44.0795ZM220.089 44.7158V39.635H220.909V40.408H220.985C221.211 39.8612 221.691 39.5454 222.356 39.5454C223.044 39.5454 223.525 39.9084 223.761 40.4362H223.836C224.109 39.8989 224.689 39.5454 225.391 39.5454C226.428 39.5454 227.008 40.1393 227.008 41.2045V44.7158H226.188V41.393C226.188 40.6436 225.844 40.2713 225.127 40.2713C224.42 40.2713 223.954 40.8039 223.954 41.4496V44.7158H223.134V41.2658C223.134 40.6625 222.719 40.2713 222.078 40.2713C221.413 40.2713 220.909 40.851 220.909 41.5674V44.7158H220.089Z" fill="white"/>
<path d="M979.025 37.9893C979.025 38.5605 978.562 39.0235 977.991 39.0235C977.42 39.0235 976.957 38.5605 976.957 37.9893C976.957 37.4181 977.42 36.9551 977.991 36.9551C978.562 36.9551 979.025 37.4181 979.025 37.9893Z" fill="#F1F3F4"/>
<path d="M979.025 41.4367C979.025 42.0078 978.562 42.4709 977.991 42.4709C977.42 42.4709 976.957 42.0078 976.957 41.4367C976.957 40.8655 977.42 40.4024 977.991 40.4024C978.562 40.4024 979.025 40.8655 979.025 41.4367Z" fill="#F1F3F4"/>
<path d="M979.025 44.884C979.025 45.4552 978.562 45.9182 977.991 45.9182C977.42 45.9182 976.957 45.4552 976.957 44.884C976.957 44.3128 977.42 43.8498 977.991 43.8498C978.562 43.8498 979.025 44.3128 979.025 44.884Z" fill="#F1F3F4"/>
</g>
<rect x="0.503916" y="0.344736" width="992.151" height="661.204" rx="15.6553" stroke="url(#paint1_radial_440_13225)" stroke-opacity="0.2" stroke-width="0.689473"/>
<defs>
<filter id="filter0_i_440_13225" x="9.12256" y="11.0312" width="8.27344" height="8.27344" filterUnits="userSpaceOnUse" color-interpolation-filters="sRGB">
<feFlood flood-opacity="0" result="BackgroundImageFix"/>
<feBlend mode="normal" in="SourceGraphic" in2="BackgroundImageFix" result="shape"/>
<feColorMatrix in="SourceAlpha" type="matrix" values="0 0 0 0 0 0 0 0 0 0 0 0 0 0 0 0 0 0 127 0" result="hardAlpha"/>
<feOffset/>
<feGaussianBlur stdDeviation="2.06842"/>
<feComposite in2="hardAlpha" operator="arithmetic" k2="-1" k3="1"/>
<feColorMatrix type="matrix" values="0 0 0 0 0.92549 0 0 0 0 0.427451 0 0 0 0 0.384314 0 0 0 1 0"/>
<feBlend mode="normal" in2="shape" result="effect1_innerShadow_440_13225"/>
</filter>
<filter id="filter1_i_440_13225" x="22.9121" y="11.0312" width="8.27344" height="8.27344" filterUnits="userSpaceOnUse" color-interpolation-filters="sRGB">
<feFlood flood-opacity="0" result="BackgroundImageFix"/>
<feBlend mode="normal" in="SourceGraphic" in2="BackgroundImageFix" result="shape"/>
<feColorMatrix in="SourceAlpha" type="matrix" values="0 0 0 0 0 0 0 0 0 0 0 0 0 0 0 0 0 0 127 0" result="hardAlpha"/>
<feOffset/>
<feGaussianBlur stdDeviation="2.06842"/>
<feComposite in2="hardAlpha" operator="arithmetic" k2="-1" k3="1"/>
<feColorMatrix type="matrix" values="0 0 0 0 0.960784 0 0 0 0 0.768627 0 0 0 0 0.317647 0 0 0 1 0"/>
<feBlend mode="normal" in2="shape" result="effect1_innerShadow_440_13225"/>
</filter>
<filter id="filter2_i_440_13225" x="36.7017" y="11.0312" width="8.27344" height="8.27344" filterUnits="userSpaceOnUse" color-interpolation-filters="sRGB">
<feFlood flood-opacity="0" result="BackgroundImageFix"/>
<feBlend mode="normal" in="SourceGraphic" in2="BackgroundImageFix" result="shape"/>
<feColorMatrix in="SourceAlpha" type="matrix" values="0 0 0 0 0 0 0 0 0 0 0 0 0 0 0 0 0 0 127 0" result="hardAlpha"/>
<feOffset/>
<feGaussianBlur stdDeviation="2.06842"/>
<feComposite in2="hardAlpha" operator="arithmetic" k2="-1" k3="1"/>
<feColorMatrix type="matrix" values="0 0 0 0 0.407843 0 0 0 0 0.8 0 0 0 0 0.345098 0 0 0 1 0"/>
<feBlend mode="normal" in2="shape" result="effect1_innerShadow_440_13225"/>
</filter>
<linearGradient id="paint0_linear_440_13225" x1="200.795" y1="16.8947" x2="78.7588" y2="16.8948" gradientUnits="userSpaceOnUse">
<stop stop-opacity="0"/>
<stop offset="0.100283"/>
</linearGradient>
<radialGradient id="paint1_radial_440_13225" cx="0" cy="0" r="1" gradientUnits="userSpaceOnUse" gradientTransform="translate(280.015 -39.5036) rotate(47.5887) scale(1057.14 1155.18)">
<stop stop-color="white" stop-opacity="0.6"/>
<stop offset="1" stop-color="white" stop-opacity="0.2"/>
</radialGradient>
<clipPath id="clip0_440_13225">
<rect x="0.15918" width="992.841" height="661.894" rx="16" fill="white"/>
</clipPath>
</defs>
</svg>
