<svg width="335" height="217" viewBox="0 0 335 217" fill="none" xmlns="http://www.w3.org/2000/svg">
<g filter="url(#filter0_b_1645_2109)">
<path d="M91.7449 19.475L18.6099 30.3098C17.2226 30.5154 16.1873 31.6939 16.1623 33.0962L15.0041 97.9524C15.0014 98.1063 15.0114 98.2632 15.0335 98.4156C18.5473 122.66 23.6177 135.458 37.5059 156.86C53.4363 176.132 64.3408 186.347 92.2216 198.559C92.9459 198.876 93.7877 198.879 94.5122 198.562C118.424 188.107 131.44 177.703 148.83 156.86C162.401 135.341 167.441 122.816 170.505 98.3972C170.523 98.2569 170.53 98.1127 170.527 97.9714L168.982 33.085C168.949 31.6877 167.913 30.5178 166.53 30.3151L92.5813 19.4744C92.304 19.4337 92.0222 19.434 91.7449 19.475Z" fill="#16181E"/>
<path d="M91.7449 19.475L18.6099 30.3098C17.2226 30.5154 16.1873 31.6939 16.1623 33.0962L15.0041 97.9524C15.0014 98.1063 15.0114 98.2632 15.0335 98.4156C18.5473 122.66 23.6177 135.458 37.5059 156.86C53.4363 176.132 64.3408 186.347 92.2216 198.559C92.9459 198.876 93.7877 198.879 94.5122 198.562C118.424 188.107 131.44 177.703 148.83 156.86C162.401 135.341 167.441 122.816 170.505 98.3972C170.523 98.2569 170.53 98.1127 170.527 97.9714L168.982 33.085C168.949 31.6877 167.913 30.5178 166.53 30.3151L92.5813 19.4744C92.304 19.4337 92.0222 19.434 91.7449 19.475Z" stroke="url(#paint0_radial_1645_2109)" stroke-opacity="0.2" stroke-width="2" stroke-linecap="round" stroke-linejoin="round"/>
</g>
<g filter="url(#filter1_bdi_1645_2109)">
<path d="M90.8968 26.8715L31.2194 35.7299C26.2093 36.4736 22.4712 40.7303 22.3809 45.7945L21.4431 98.4158C21.4332 98.9709 21.4685 99.5329 21.5493 100.082C24.7785 122.029 29.474 133.788 42.1313 153.331C56.1901 170.373 65.9937 179.73 89.4132 190.402C92.017 191.588 95.016 191.596 97.6176 190.404C117.706 181.207 129.296 171.637 144.538 153.331C156.916 133.666 161.579 122.15 164.405 100.016C164.469 99.5108 164.495 98.9939 164.483 98.4843L163.23 45.7542C163.11 40.7079 159.371 36.4824 154.377 35.7489L93.924 26.8692C92.9203 26.7218 91.9003 26.7225 90.8968 26.8715Z" fill="#1E2028"/>
<path d="M31.2928 36.2245L90.9703 27.3661C91.9253 27.2243 92.8961 27.2236 93.8513 27.3639L154.305 36.2435C159.058 36.9417 162.616 40.9633 162.73 45.7661L163.983 98.4962C163.995 98.9811 163.97 99.4729 163.909 99.9531C162.499 110.995 160.634 119.366 157.586 127.422C154.54 135.473 150.304 143.229 144.132 153.037C128.939 171.279 117.408 180.793 97.4095 189.95C94.9409 191.08 92.0936 191.074 89.6205 189.947C77.9382 184.624 69.6717 179.637 62.5775 173.868C55.4869 168.101 49.5505 161.538 42.5353 153.035C29.9248 133.561 25.2604 121.869 22.044 100.009C21.9672 99.4876 21.9336 98.9529 21.943 98.4247L22.8808 45.8034C22.9667 40.9836 26.5245 36.9323 31.2928 36.2245Z" stroke="url(#paint1_radial_1645_2109)" stroke-opacity="0.2"/>
</g>
<g filter="url(#filter2_iiii_1645_2109)">
<path d="M104.249 88.3267H99.2488C99.2488 87.6636 98.9854 87.0277 98.5165 86.5589C98.0477 86.0901 97.4118 85.8267 96.7488 85.8267H77.9988C77.3357 85.8267 76.6999 86.0901 76.231 86.5589C75.7622 87.0277 75.4988 87.6636 75.4988 88.3267V100.827C75.4988 101.49 75.7622 102.126 76.231 102.594C76.6999 103.063 77.3357 103.327 77.9988 103.327H79.2488V113.327C79.2488 113.99 79.5122 114.626 79.981 115.094C80.4499 115.563 81.0857 115.827 81.7488 115.827H104.249C104.912 115.827 105.548 115.563 106.017 115.094C106.485 114.626 106.749 113.99 106.749 113.327V90.8267C106.749 90.1636 106.485 89.5277 106.017 89.0589C105.548 88.5901 104.912 88.3267 104.249 88.3267ZM89.6144 91.711C89.3799 91.4765 89.2481 91.1584 89.2481 90.8267C89.2481 90.495 89.3799 90.1768 89.6144 89.9423C89.849 89.7077 90.1671 89.576 90.4988 89.576C90.8305 89.576 91.1486 89.7077 91.3832 89.9423L95.1332 93.6923C95.2494 93.8084 95.3416 93.9462 95.4045 94.098C95.4674 94.2497 95.4998 94.4124 95.4998 94.5767C95.4998 94.7409 95.4674 94.9036 95.4045 95.0553C95.3416 95.2071 95.2494 95.3449 95.1332 95.461L91.3832 99.211C91.1486 99.4456 90.8305 99.5774 90.4988 99.5774C90.1671 99.5774 89.849 99.4456 89.6144 99.211C89.3799 98.9765 89.2481 98.6584 89.2481 98.3267C89.2481 97.995 89.3799 97.6768 89.6144 97.4423L92.4816 94.5767L89.6144 91.711ZM79.6144 95.461C79.4982 95.3449 79.406 95.2071 79.3431 95.0553C79.2802 94.9036 79.2478 94.7409 79.2478 94.5767C79.2478 94.4124 79.2802 94.2497 79.3431 94.098C79.406 93.9462 79.4982 93.8084 79.6144 93.6923L83.3644 89.9423C83.599 89.7077 83.9171 89.576 84.2488 89.576C84.5805 89.576 84.8986 89.7077 85.1332 89.9423C85.3677 90.1768 85.4995 90.495 85.4995 90.8267C85.4995 91.1584 85.3677 91.4765 85.1332 91.711L82.266 94.5767L85.1332 97.4423C85.3677 97.6768 85.4995 97.995 85.4995 98.3267C85.4995 98.6584 85.3677 98.9765 85.1332 99.211C84.8986 99.4456 84.5805 99.5774 84.2488 99.5774C83.9171 99.5774 83.599 99.4456 83.3644 99.211L79.6144 95.461ZM104.249 113.327H81.7488V103.327H96.7488C97.4118 103.327 98.0477 103.063 98.5165 102.594C98.9854 102.126 99.2488 101.49 99.2488 100.827V90.8267H104.249V113.327Z" fill="url(#paint2_linear_1645_2109)"/>
</g>
<path d="M98.7488 88.3267V88.8267H99.2488H104.249C104.779 88.8267 105.288 89.0374 105.663 89.4124C106.038 89.7875 106.249 90.2962 106.249 90.8267V113.327C106.249 113.857 106.038 114.366 105.663 114.741C105.288 115.116 104.779 115.327 104.249 115.327H81.7488C81.2183 115.327 80.7096 115.116 80.3346 114.741C79.9595 114.366 79.7488 113.857 79.7488 113.327V103.327V102.827H79.2488H77.9988C77.4683 102.827 76.9596 102.616 76.5846 102.241C76.2095 101.866 75.9988 101.357 75.9988 100.827V88.3267C75.9988 87.7962 76.2095 87.2875 76.5846 86.9124C76.9596 86.5374 77.4683 86.3267 77.9988 86.3267H96.7488C97.2792 86.3267 97.7879 86.5374 98.163 86.9124C98.5381 87.2875 98.7488 87.7962 98.7488 88.3267ZM89.2608 92.0646L89.2609 92.0647L91.7743 94.5767L89.2609 97.0886L89.2608 97.0887C88.9325 97.4171 88.7481 97.8623 88.7481 98.3267C88.7481 98.791 88.9325 99.2363 89.2608 99.5646C89.5892 99.8929 90.0345 100.077 90.4988 100.077C90.9631 100.077 91.4084 99.8929 91.7367 99.5646L95.4865 95.8148C95.4866 95.8147 95.4866 95.8147 95.4867 95.8146C95.6493 95.6521 95.7783 95.4592 95.8664 95.2468C95.9544 95.0344 95.9998 94.8066 95.9998 94.5767C95.9998 94.3467 95.9544 94.119 95.8664 93.9065C95.7783 93.6941 95.6492 93.5011 95.4865 93.3385L91.7367 89.5887C91.4084 89.2604 90.9631 89.076 90.4988 89.076C90.0345 89.076 89.5892 89.2604 89.2608 89.5887C88.9325 89.9171 88.7481 90.3623 88.7481 90.8267C88.7481 91.291 88.9325 91.7363 89.2608 92.0646ZM82.9733 94.5767L85.4866 92.0647L85.4867 92.0646C85.815 91.7363 85.9995 91.291 85.9995 90.8267C85.9995 90.3623 85.815 89.9171 85.4867 89.5887C85.1584 89.2604 84.7131 89.076 84.2488 89.076C83.7845 89.076 83.3392 89.2604 83.0109 89.5887L79.261 93.3385C79.0983 93.5011 78.9693 93.6941 78.8812 93.9065C78.7931 94.119 78.7478 94.3467 78.7478 94.5767C78.7478 94.8066 78.7931 95.0344 78.8812 95.2468C78.9692 95.4592 79.0982 95.6521 79.2609 95.8146C79.2609 95.8147 79.261 95.8147 79.261 95.8148L83.0109 99.5646C83.3392 99.8929 83.7845 100.077 84.2488 100.077C84.7131 100.077 85.1584 99.8929 85.4867 99.5646C85.815 99.2363 85.9995 98.791 85.9995 98.3267C85.9995 97.8623 85.815 97.4171 85.4867 97.0887L85.4866 97.0886L82.9733 94.5767ZM104.249 113.827H104.749V113.327V90.8267V90.3267H104.249H99.2488H98.7488V90.8267V100.827C98.7488 101.357 98.5381 101.866 98.163 102.241C97.7879 102.616 97.2792 102.827 96.7488 102.827H81.7488H81.2488V103.327V113.327V113.827H81.7488H104.249Z" stroke="url(#paint3_radial_1645_2109)" stroke-opacity="0.2"/>
<g filter="url(#filter3_bi_1645_2109)">
<mask id="path-6-inside-1_1645_2109" fill="white">
<path fill-rule="evenodd" clip-rule="evenodd" d="M172.956 198.738H299.007C299.019 198.735 299.059 198.73 299.127 198.72C301.424 198.407 334.999 193.831 334.999 155.24C335.11 145.144 331.978 135.334 326.165 127.575C320.351 119.816 312.238 114.615 303.284 112.908C303.072 106.575 301.15 100.459 297.768 95.3562C294.386 90.2535 289.7 86.4004 284.32 84.2982C280.656 83.1458 276.795 83.0008 273.069 83.8758C269.344 84.7507 265.866 86.6194 262.935 89.3207C260.013 81.8518 255.883 75.0424 250.749 69.231C243.236 60.4817 233.473 54.5274 222.798 52.1833C212.122 49.8393 201.055 51.2201 191.113 56.1368C181.925 61.0268 174.126 68.636 168.574 78.1288C163.022 87.6216 159.931 98.6311 159.64 109.948V113.626C151.713 116.212 144.8 121.688 140.013 129.171C135.226 136.655 132.845 145.711 133.252 154.881V158.379C134.01 169.456 138.538 179.796 145.915 187.294C153.291 194.791 162.96 198.884 172.956 198.738Z"/>
</mask>
<path fill-rule="evenodd" clip-rule="evenodd" d="M172.956 198.738H299.007C299.019 198.735 299.059 198.73 299.127 198.72C301.424 198.407 334.999 193.831 334.999 155.24C335.11 145.144 331.978 135.334 326.165 127.575C320.351 119.816 312.238 114.615 303.284 112.908C303.072 106.575 301.15 100.459 297.768 95.3562C294.386 90.2535 289.7 86.4004 284.32 84.2982C280.656 83.1458 276.795 83.0008 273.069 83.8758C269.344 84.7507 265.866 86.6194 262.935 89.3207C260.013 81.8518 255.883 75.0424 250.749 69.231C243.236 60.4817 233.473 54.5274 222.798 52.1833C212.122 49.8393 201.055 51.2201 191.113 56.1368C181.925 61.0268 174.126 68.636 168.574 78.1288C163.022 87.6216 159.931 98.6311 159.64 109.948V113.626C151.713 116.212 144.8 121.688 140.013 129.171C135.226 136.655 132.845 145.711 133.252 154.881V158.379C134.01 169.456 138.538 179.796 145.915 187.294C153.291 194.791 162.96 198.884 172.956 198.738Z" fill="#1E2028"/>
<path d="M299.007 198.738V200.238H299.172L299.333 200.202L299.007 198.738ZM172.956 198.738V197.238H172.945L172.934 197.238L172.956 198.738ZM299.127 198.72L299.33 200.207L299.33 200.207L299.127 198.72ZM334.999 155.24L333.499 155.223L333.499 155.232V155.24H334.999ZM326.165 127.575L327.365 126.676L326.165 127.575ZM303.284 112.908L301.785 112.958L301.825 114.157L303.003 114.382L303.284 112.908ZM297.768 95.3562L296.518 96.1849L297.768 95.3562ZM284.32 84.2982L284.866 82.9011L284.818 82.8826L284.77 82.8673L284.32 84.2982ZM273.069 83.8758L273.412 85.336L273.069 83.8758ZM262.935 89.3207L261.538 89.8671L262.337 91.9111L263.951 90.4237L262.935 89.3207ZM250.749 69.231L249.611 70.2082L249.618 70.2162L249.625 70.224L250.749 69.231ZM222.798 52.1833L222.476 53.6484L222.798 52.1833ZM191.113 56.1368L190.448 54.7922L190.428 54.8021L190.408 54.8126L191.113 56.1368ZM168.574 78.1288L167.28 77.3715L168.574 78.1288ZM159.64 109.948L158.141 109.91L158.14 109.929V109.948H159.64ZM159.64 113.626L160.105 115.052L161.14 114.714V113.626H159.64ZM140.013 129.171L138.749 128.363L140.013 129.171ZM133.252 154.881H134.752V154.848L134.75 154.815L133.252 154.881ZM133.252 158.379H131.752V158.43L131.755 158.481L133.252 158.379ZM145.915 187.294L144.845 188.346L145.915 187.294ZM299.007 197.238H172.956V200.238H299.007V197.238ZM298.925 197.234C298.916 197.235 298.773 197.253 298.681 197.274L299.333 200.202C299.317 200.205 299.304 200.208 299.295 200.21C299.286 200.211 299.279 200.213 299.274 200.214C299.269 200.215 299.265 200.215 299.262 200.216C299.259 200.216 299.257 200.217 299.255 200.217C299.252 200.217 299.251 200.217 299.252 200.217C299.253 200.217 299.254 200.217 299.257 200.217C299.264 200.216 299.273 200.214 299.285 200.213C299.298 200.211 299.312 200.209 299.33 200.207L298.925 197.234ZM333.499 155.24C333.499 174.01 325.375 184.354 317.071 190.101C308.685 195.904 300.002 197.087 298.924 197.234L299.33 200.207C300.549 200.04 309.802 198.779 318.778 192.568C327.835 186.3 336.499 175.061 336.499 155.24H333.499ZM324.964 128.474C330.571 135.958 333.607 145.442 333.499 155.223L336.499 155.256C336.614 144.845 333.385 134.711 327.365 126.676L324.964 128.474ZM303.003 114.382C311.565 116.014 319.36 120.993 324.964 128.474L327.365 126.676C321.343 118.638 312.911 113.216 303.565 111.435L303.003 114.382ZM296.518 96.1849C299.741 101.048 301.582 106.892 301.785 112.958L304.783 112.858C304.562 106.257 302.559 99.87 299.018 94.5274L296.518 96.1849ZM283.774 85.6954C288.848 87.6782 293.295 91.3234 296.518 96.1849L299.018 94.5274C295.476 89.1837 290.551 85.1227 284.866 82.9011L283.774 85.6954ZM273.412 85.336C276.875 84.5229 280.462 84.6572 283.87 85.7291L284.77 82.8673C280.85 81.6344 276.715 81.4787 272.726 82.4155L273.412 85.336ZM263.951 90.4237C266.701 87.8899 269.949 86.1494 273.412 85.336L272.726 82.4155C268.739 83.352 265.031 85.3488 261.918 88.2176L263.951 90.4237ZM249.625 70.224C254.638 75.8993 258.678 82.5563 261.538 89.8671L264.332 88.7742C261.348 81.1474 257.127 74.1856 251.873 68.2379L249.625 70.224ZM222.476 53.6484C232.816 55.9187 242.298 61.6913 249.611 70.2082L251.887 68.2538C244.175 59.2722 234.131 53.1361 223.119 50.7182L222.476 53.6484ZM191.778 57.4814C201.419 52.7134 212.138 51.3787 222.476 53.6484L223.119 50.7182C212.105 48.2999 200.691 49.7269 190.448 54.7922L191.778 57.4814ZM169.869 78.8861C175.289 69.6191 182.889 62.2128 191.817 57.4609L190.408 54.8126C180.96 59.8408 172.964 67.6529 167.28 77.3715L169.869 78.8861ZM161.14 109.987C161.424 98.9149 164.449 88.1538 169.869 78.8861L167.28 77.3715C161.596 87.0894 158.438 98.3473 158.141 109.91L161.14 109.987ZM161.14 113.626V109.948H158.14V113.626H161.14ZM141.277 129.979C145.89 122.767 152.53 117.523 160.105 115.052L159.175 112.2C150.896 114.901 143.71 120.608 138.749 128.363L141.277 129.979ZM134.75 154.815C134.356 145.942 136.662 137.193 141.277 129.979L138.749 128.363C133.79 136.116 131.333 145.479 131.753 154.948L134.75 154.815ZM134.752 158.379V154.881H131.752V158.379H134.752ZM146.984 186.242C139.874 179.014 135.484 169.018 134.748 158.276L131.755 158.481C132.537 169.894 137.203 180.578 144.845 188.346L146.984 186.242ZM172.934 197.238C163.371 197.378 154.089 193.465 146.984 186.242L144.845 188.346C152.492 196.118 162.549 200.39 172.977 200.238L172.934 197.238Z" fill="url(#paint4_radial_1645_2109)" fill-opacity="0.2" mask="url(#path-6-inside-1_1645_2109)"/>
</g>
<g filter="url(#filter4_iiii_1645_2109)">
<path d="M246.351 127.299H221.466C220.806 127.299 220.173 127.561 219.706 128.028C219.239 128.495 218.977 129.128 218.977 129.788V137.253C218.977 137.913 219.239 138.546 219.706 139.013C220.173 139.48 220.806 139.742 221.466 139.742H246.351C247.011 139.742 247.644 139.48 248.11 139.013C248.577 138.546 248.839 137.913 248.839 137.253V129.788C248.839 129.128 248.577 128.495 248.11 128.028C247.644 127.561 247.011 127.299 246.351 127.299ZM241.996 135.387C241.627 135.387 241.266 135.277 240.959 135.072C240.652 134.867 240.413 134.576 240.271 134.235C240.13 133.894 240.093 133.518 240.165 133.156C240.237 132.794 240.415 132.462 240.676 132.201C240.937 131.94 241.27 131.762 241.632 131.69C241.994 131.618 242.369 131.655 242.71 131.796C243.051 131.937 243.343 132.177 243.548 132.484C243.753 132.79 243.862 133.151 243.862 133.52C243.862 134.015 243.665 134.49 243.315 134.84C242.965 135.19 242.491 135.387 241.996 135.387Z" fill="url(#paint5_linear_1645_2109)"/>
</g>
<path d="M221.466 127.799H246.351C246.878 127.799 247.384 128.009 247.757 128.382C248.13 128.755 248.339 129.26 248.339 129.788V137.253C248.339 137.781 248.13 138.286 247.757 138.659C247.384 139.032 246.878 139.242 246.351 139.242H221.466C220.938 139.242 220.432 139.032 220.059 138.659C219.687 138.286 219.477 137.781 219.477 137.253V129.788C219.477 129.26 219.687 128.755 220.059 128.382C220.432 128.009 220.938 127.799 221.466 127.799ZM240.681 135.488C241.07 135.748 241.528 135.887 241.996 135.887C242.623 135.887 243.225 135.638 243.669 135.194C244.113 134.75 244.362 134.148 244.362 133.52C244.362 133.052 244.223 132.595 243.963 132.206C243.703 131.817 243.334 131.513 242.901 131.334C242.469 131.155 241.993 131.108 241.534 131.2C241.075 131.291 240.653 131.516 240.322 131.847C239.992 132.178 239.766 132.6 239.675 133.059C239.584 133.518 239.63 133.994 239.81 134.426C239.989 134.858 240.292 135.228 240.681 135.488Z" stroke="url(#paint6_radial_1645_2109)" stroke-opacity="0.2"/>
<g filter="url(#filter5_di_1645_2109)">
<path d="M246.351 142.23H221.466C220.806 142.23 220.173 142.492 219.706 142.959C219.239 143.426 218.977 144.059 218.977 144.719V152.184C218.977 152.844 219.239 153.477 219.706 153.944C220.173 154.411 220.806 154.673 221.466 154.673H246.351C247.011 154.673 247.644 154.411 248.11 153.944C248.577 153.477 248.839 152.844 248.839 152.184V144.719C248.839 144.059 248.577 143.426 248.11 142.959C247.644 142.492 247.011 142.23 246.351 142.23ZM241.996 150.318C241.627 150.318 241.266 150.208 240.959 150.003C240.652 149.798 240.413 149.507 240.271 149.166C240.13 148.825 240.093 148.449 240.165 148.087C240.237 147.725 240.415 147.393 240.676 147.132C240.937 146.871 241.27 146.693 241.632 146.621C241.994 146.549 242.369 146.586 242.71 146.727C243.051 146.868 243.343 147.108 243.548 147.415C243.753 147.722 243.862 148.082 243.862 148.451C243.862 148.946 243.665 149.421 243.315 149.771C242.965 150.121 242.491 150.318 241.996 150.318Z" fill="#F2522E"/>
<path d="M221.466 142.73H246.351C246.878 142.73 247.384 142.94 247.757 143.313C248.13 143.686 248.339 144.191 248.339 144.719V152.184C248.339 152.712 248.13 153.217 247.757 153.59C247.384 153.963 246.878 154.173 246.351 154.173H221.466C220.938 154.173 220.432 153.963 220.059 153.59C219.687 153.217 219.477 152.712 219.477 152.184V144.719C219.477 144.191 219.687 143.686 220.059 143.313C220.432 142.94 220.938 142.73 221.466 142.73ZM240.681 150.419C241.07 150.679 241.528 150.818 241.996 150.818C242.623 150.818 243.225 150.569 243.669 150.125C244.113 149.681 244.362 149.079 244.362 148.451C244.362 147.983 244.223 147.526 243.963 147.137C243.703 146.748 243.334 146.444 242.901 146.265C242.469 146.086 241.993 146.039 241.534 146.131C241.075 146.222 240.653 146.447 240.322 146.778C239.992 147.109 239.766 147.531 239.675 147.99C239.584 148.449 239.63 148.925 239.81 149.357C239.989 149.789 240.292 150.159 240.681 150.419Z" stroke="url(#paint7_radial_1645_2109)" stroke-opacity="0.2"/>
</g>
<g filter="url(#filter6_b_1645_2109)">
<circle cx="151" cy="107.379" r="16" fill="url(#paint8_radial_1645_2109)" fill-opacity="0.2"/>
<circle cx="151" cy="107.379" r="14" stroke="#F2522E" stroke-width="4"/>
</g>
<rect x="161.68" y="113.207" width="15.8903" height="5" rx="2.5" transform="rotate(36.8723 161.68 113.207)" fill="#F2522E"/>
<defs>
<filter id="filter0_b_1645_2109" x="-3.2073" y="1.23313" width="191.946" height="215.776" filterUnits="userSpaceOnUse" color-interpolation-filters="sRGB">
<feFlood flood-opacity="0" result="BackgroundImageFix"/>
<feGaussianBlur in="BackgroundImageFix" stdDeviation="8.60548"/>
<feComposite in2="SourceAlpha" operator="in" result="effect1_backgroundBlur_1645_2109"/>
<feBlend mode="normal" in="SourceGraphic" in2="effect1_backgroundBlur_1645_2109" result="shape"/>
</filter>
<filter id="filter1_bdi_1645_2109" x="0.718443" y="10.3535" width="184.491" height="205.981" filterUnits="userSpaceOnUse" color-interpolation-filters="sRGB">
<feFlood flood-opacity="0" result="BackgroundImageFix"/>
<feGaussianBlur in="BackgroundImageFix" stdDeviation="7.33938"/>
<feComposite in2="SourceAlpha" operator="in" result="effect1_backgroundBlur_1645_2109"/>
<feColorMatrix in="SourceAlpha" type="matrix" values="0 0 0 0 0 0 0 0 0 0 0 0 0 0 0 0 0 0 127 0" result="hardAlpha"/>
<feOffset dy="4.31728"/>
<feGaussianBlur stdDeviation="10.3615"/>
<feComposite in2="hardAlpha" operator="out"/>
<feColorMatrix type="matrix" values="0 0 0 0 0.30193 0 0 0 0 0.329476 0 0 0 0 0.435726 0 0 0 0.15 0"/>
<feBlend mode="normal" in2="effect1_backgroundBlur_1645_2109" result="effect2_dropShadow_1645_2109"/>
<feBlend mode="normal" in="SourceGraphic" in2="effect2_dropShadow_1645_2109" result="shape"/>
<feColorMatrix in="SourceAlpha" type="matrix" values="0 0 0 0 0 0 0 0 0 0 0 0 0 0 0 0 0 0 127 0" result="hardAlpha"/>
<feOffset dx="0.863457" dy="3.45383"/>
<feGaussianBlur stdDeviation="0.431728"/>
<feComposite in2="hardAlpha" operator="arithmetic" k2="-1" k3="1"/>
<feColorMatrix type="matrix" values="0 0 0 0 0.0978957 0 0 0 0 0.102513 0 0 0 0 0.125602 0 0 0 0.5 0"/>
<feBlend mode="normal" in2="shape" result="effect3_innerShadow_1645_2109"/>
</filter>
<filter id="filter2_iiii_1645_2109" x="75.4988" y="84.3924" width="31.25" height="32.8685" filterUnits="userSpaceOnUse" color-interpolation-filters="sRGB">
<feFlood flood-opacity="0" result="BackgroundImageFix"/>
<feBlend mode="normal" in="SourceGraphic" in2="BackgroundImageFix" result="shape"/>
<feColorMatrix in="SourceAlpha" type="matrix" values="0 0 0 0 0 0 0 0 0 0 0 0 0 0 0 0 0 0 127 0" result="hardAlpha"/>
<feOffset dy="0.717123"/>
<feGaussianBlur stdDeviation="1.0452"/>
<feComposite in2="hardAlpha" operator="arithmetic" k2="-1" k3="1"/>
<feColorMatrix type="matrix" values="0 0 0 0 0.78638 0 0 0 0 0.830606 0 0 0 0 0.9854 0 0 0 0.1 0"/>
<feBlend mode="normal" in2="shape" result="effect1_innerShadow_1645_2109"/>
<feColorMatrix in="SourceAlpha" type="matrix" values="0 0 0 0 0 0 0 0 0 0 0 0 0 0 0 0 0 0 127 0" result="hardAlpha"/>
<feOffset dy="-1.43425"/>
<feGaussianBlur stdDeviation="1.0452"/>
<feComposite in2="hardAlpha" operator="arithmetic" k2="-1" k3="1"/>
<feColorMatrix type="matrix" values="0 0 0 0 0.0636856 0 0 0 0 0.181279 0 0 0 0 0.592855 0 0 0 0.1 0"/>
<feBlend mode="normal" in2="effect1_innerShadow_1645_2109" result="effect2_innerShadow_1645_2109"/>
<feColorMatrix in="SourceAlpha" type="matrix" values="0 0 0 0 0 0 0 0 0 0 0 0 0 0 0 0 0 0 127 0" result="hardAlpha"/>
<feOffset dy="1.43425"/>
<feGaussianBlur stdDeviation="1.0452"/>
<feComposite in2="hardAlpha" operator="arithmetic" k2="-1" k3="1"/>
<feColorMatrix type="matrix" values="0 0 0 0 0.78638 0 0 0 0 0.830606 0 0 0 0 0.9854 0 0 0 0.1 0"/>
<feBlend mode="normal" in2="effect2_innerShadow_1645_2109" result="effect3_innerShadow_1645_2109"/>
<feColorMatrix in="SourceAlpha" type="matrix" values="0 0 0 0 0 0 0 0 0 0 0 0 0 0 0 0 0 0 127 0" result="hardAlpha"/>
<feOffset dy="-1.43425"/>
<feGaussianBlur stdDeviation="1.0452"/>
<feComposite in2="hardAlpha" operator="arithmetic" k2="-1" k3="1"/>
<feColorMatrix type="matrix" values="0 0 0 0 0.0636856 0 0 0 0 0.181279 0 0 0 0 0.592855 0 0 0 0.1 0"/>
<feBlend mode="normal" in2="effect3_innerShadow_1645_2109" result="effect4_innerShadow_1645_2109"/>
</filter>
<filter id="filter3_bi_1645_2109" x="109.516" y="27.3798" width="249.177" height="195.053" filterUnits="userSpaceOnUse" color-interpolation-filters="sRGB">
<feFlood flood-opacity="0" result="BackgroundImageFix"/>
<feGaussianBlur in="BackgroundImageFix" stdDeviation="11.8456"/>
<feComposite in2="SourceAlpha" operator="in" result="effect1_backgroundBlur_1645_2109"/>
<feBlend mode="normal" in="SourceGraphic" in2="effect1_backgroundBlur_1645_2109" result="shape"/>
<feColorMatrix in="SourceAlpha" type="matrix" values="0 0 0 0 0 0 0 0 0 0 0 0 0 0 0 0 0 0 127 0" result="hardAlpha"/>
<feOffset dy="4"/>
<feGaussianBlur stdDeviation="4"/>
<feComposite in2="hardAlpha" operator="arithmetic" k2="-1" k3="1"/>
<feColorMatrix type="matrix" values="0 0 0 0 1 0 0 0 0 1 0 0 0 0 1 0 0 0 0.2 0"/>
<feBlend mode="normal" in2="shape" result="effect2_innerShadow_1645_2109"/>
</filter>
<filter id="filter4_iiii_1645_2109" x="218.977" y="125.865" width="29.8621" height="15.311" filterUnits="userSpaceOnUse" color-interpolation-filters="sRGB">
<feFlood flood-opacity="0" result="BackgroundImageFix"/>
<feBlend mode="normal" in="SourceGraphic" in2="BackgroundImageFix" result="shape"/>
<feColorMatrix in="SourceAlpha" type="matrix" values="0 0 0 0 0 0 0 0 0 0 0 0 0 0 0 0 0 0 127 0" result="hardAlpha"/>
<feOffset dy="0.717123"/>
<feGaussianBlur stdDeviation="1.0452"/>
<feComposite in2="hardAlpha" operator="arithmetic" k2="-1" k3="1"/>
<feColorMatrix type="matrix" values="0 0 0 0 0.78638 0 0 0 0 0.830606 0 0 0 0 0.9854 0 0 0 0.1 0"/>
<feBlend mode="normal" in2="shape" result="effect1_innerShadow_1645_2109"/>
<feColorMatrix in="SourceAlpha" type="matrix" values="0 0 0 0 0 0 0 0 0 0 0 0 0 0 0 0 0 0 127 0" result="hardAlpha"/>
<feOffset dy="-1.43425"/>
<feGaussianBlur stdDeviation="1.0452"/>
<feComposite in2="hardAlpha" operator="arithmetic" k2="-1" k3="1"/>
<feColorMatrix type="matrix" values="0 0 0 0 0.0636856 0 0 0 0 0.181279 0 0 0 0 0.592855 0 0 0 0.1 0"/>
<feBlend mode="normal" in2="effect1_innerShadow_1645_2109" result="effect2_innerShadow_1645_2109"/>
<feColorMatrix in="SourceAlpha" type="matrix" values="0 0 0 0 0 0 0 0 0 0 0 0 0 0 0 0 0 0 127 0" result="hardAlpha"/>
<feOffset dy="1.43425"/>
<feGaussianBlur stdDeviation="1.0452"/>
<feComposite in2="hardAlpha" operator="arithmetic" k2="-1" k3="1"/>
<feColorMatrix type="matrix" values="0 0 0 0 0.78638 0 0 0 0 0.830606 0 0 0 0 0.9854 0 0 0 0.1 0"/>
<feBlend mode="normal" in2="effect2_innerShadow_1645_2109" result="effect3_innerShadow_1645_2109"/>
<feColorMatrix in="SourceAlpha" type="matrix" values="0 0 0 0 0 0 0 0 0 0 0 0 0 0 0 0 0 0 127 0" result="hardAlpha"/>
<feOffset dy="-1.43425"/>
<feGaussianBlur stdDeviation="1.0452"/>
<feComposite in2="hardAlpha" operator="arithmetic" k2="-1" k3="1"/>
<feColorMatrix type="matrix" values="0 0 0 0 0.0636856 0 0 0 0 0.181279 0 0 0 0 0.592855 0 0 0 0.1 0"/>
<feBlend mode="normal" in2="effect3_innerShadow_1645_2109" result="effect4_innerShadow_1645_2109"/>
</filter>
<filter id="filter5_di_1645_2109" x="189.115" y="117.345" width="89.5863" height="72.1667" filterUnits="userSpaceOnUse" color-interpolation-filters="sRGB">
<feFlood flood-opacity="0" result="BackgroundImageFix"/>
<feColorMatrix in="SourceAlpha" type="matrix" values="0 0 0 0 0 0 0 0 0 0 0 0 0 0 0 0 0 0 127 0" result="hardAlpha"/>
<feOffset dy="4.97702"/>
<feGaussianBlur stdDeviation="14.931"/>
<feComposite in2="hardAlpha" operator="out"/>
<feColorMatrix type="matrix" values="0 0 0 0 0.960784 0 0 0 0 0.427451 0 0 0 0 0.309804 0 0 0 0.15 0"/>
<feBlend mode="normal" in2="BackgroundImageFix" result="effect1_dropShadow_1645_2109"/>
<feBlend mode="normal" in="SourceGraphic" in2="effect1_dropShadow_1645_2109" result="shape"/>
<feColorMatrix in="SourceAlpha" type="matrix" values="0 0 0 0 0 0 0 0 0 0 0 0 0 0 0 0 0 0 127 0" result="hardAlpha"/>
<feOffset dy="2.48851"/>
<feGaussianBlur stdDeviation="0.622127"/>
<feComposite in2="hardAlpha" operator="arithmetic" k2="-1" k3="1"/>
<feColorMatrix type="matrix" values="0 0 0 0 0.219608 0 0 0 0 0.054902 0 0 0 0 0.0156863 0 0 0 0.05 0"/>
<feBlend mode="normal" in2="shape" result="effect2_innerShadow_1645_2109"/>
</filter>
<filter id="filter6_b_1645_2109" x="126" y="82.3789" width="50" height="50" filterUnits="userSpaceOnUse" color-interpolation-filters="sRGB">
<feFlood flood-opacity="0" result="BackgroundImageFix"/>
<feGaussianBlur in="BackgroundImageFix" stdDeviation="4.5"/>
<feComposite in2="SourceAlpha" operator="in" result="effect1_backgroundBlur_1645_2109"/>
<feBlend mode="normal" in="SourceGraphic" in2="effect1_backgroundBlur_1645_2109" result="shape"/>
</filter>
<radialGradient id="paint0_radial_1645_2109" cx="0" cy="0" r="1" gradientUnits="userSpaceOnUse" gradientTransform="translate(58.8404 8.69138) rotate(62.1996) scale(239.48 216.81)">
<stop stop-color="white" stop-opacity="0.6"/>
<stop offset="1" stop-color="white" stop-opacity="0.2"/>
</radialGradient>
<radialGradient id="paint1_radial_1645_2109" cx="0" cy="0" r="1" gradientUnits="userSpaceOnUse" gradientTransform="translate(61.7568 16.7647) rotate(62.2459) scale(220.634 199.528)">
<stop stop-color="white" stop-opacity="0.6"/>
<stop offset="1" stop-color="white" stop-opacity="0.2"/>
</radialGradient>
<linearGradient id="paint2_linear_1645_2109" x1="91.1238" y1="85.8267" x2="91.1238" y2="115.827" gradientUnits="userSpaceOnUse">
<stop stop-color="#4064E2"/>
<stop offset="1" stop-color="#3556CA"/>
</linearGradient>
<radialGradient id="paint3_radial_1645_2109" cx="0" cy="0" r="1" gradientUnits="userSpaceOnUse" gradientTransform="translate(84.3073 84.0362) rotate(57.6103) scale(41.8938 41.5848)">
<stop stop-color="white" stop-opacity="0.6"/>
<stop offset="1" stop-color="white" stop-opacity="0.2"/>
</radialGradient>
<radialGradient id="paint4_radial_1645_2109" cx="0" cy="0" r="1" gradientUnits="userSpaceOnUse" gradientTransform="translate(190.088 42.2577) rotate(50.2328) scale(226.545 244.434)">
<stop stop-color="white" stop-opacity="0.6"/>
<stop offset="1" stop-color="white" stop-opacity="0.2"/>
</radialGradient>
<linearGradient id="paint5_linear_1645_2109" x1="233.908" y1="127.299" x2="233.908" y2="139.742" gradientUnits="userSpaceOnUse">
<stop stop-color="#4064E2"/>
<stop offset="1" stop-color="#3556CA"/>
</linearGradient>
<radialGradient id="paint6_radial_1645_2109" cx="0" cy="0" r="1" gradientUnits="userSpaceOnUse" gradientTransform="translate(227.394 126.557) rotate(34.3796) scale(25.9837 26.573)">
<stop stop-color="white" stop-opacity="0.6"/>
<stop offset="1" stop-color="white" stop-opacity="0.2"/>
</radialGradient>
<radialGradient id="paint7_radial_1645_2109" cx="0" cy="0" r="1" gradientUnits="userSpaceOnUse" gradientTransform="translate(227.394 141.488) rotate(34.3796) scale(25.9837 26.573)">
<stop stop-color="white" stop-opacity="0.6"/>
<stop offset="1" stop-color="white" stop-opacity="0.2"/>
</radialGradient>
<radialGradient id="paint8_radial_1645_2109" cx="0" cy="0" r="1" gradientUnits="userSpaceOnUse" gradientTransform="translate(144.02 89.4691) rotate(58.6589) scale(44.1812 43.0701)">
<stop stop-color="white" stop-opacity="0.6"/>
<stop offset="1" stop-color="white" stop-opacity="0.2"/>
</radialGradient>
</defs>
</svg>
