<svg width="240" height="222" viewBox="0 0 240 222" fill="none" xmlns="http://www.w3.org/2000/svg">
<g filter="url(#filter0_bdi_1645_2081)">
<path d="M20.6953 184.247L111.527 20.4331C115.079 14.0268 124.285 14.0113 127.859 20.4057L219.412 184.22C222.893 190.45 218.39 198.126 211.253 198.126H119.668H28.869C21.7461 198.126 17.2412 190.477 20.6953 184.247Z" fill="#1E2028"/>
<path d="M21.1326 184.49L111.964 20.6756C115.326 14.612 124.04 14.5973 127.423 20.6496L218.975 184.464C222.271 190.36 218.008 197.626 211.253 197.626H119.668H28.869C22.1272 197.626 17.8633 190.386 21.1326 184.49Z" stroke="url(#paint0_radial_1645_2081)" stroke-opacity="0.2"/>
</g>
<path d="M211.533 170.865L211.614 165.092L206.574 167.908L211.533 170.865ZM134.065 33.2533L208.901 167.18L209.774 166.692L134.938 32.7655L134.065 33.2533Z" fill="url(#paint1_linear_1645_2081)"/>
<path d="M45.7116 198.125L50.7116 201.012L50.7116 195.239L45.7116 198.125ZM205.376 197.625L50.2116 197.625L50.2116 198.625L205.376 198.625L205.376 197.625Z" fill="url(#paint2_linear_1645_2081)"/>
<path d="M104.828 33.1446L99.8807 36.1206L104.932 38.9172L104.828 33.1446ZM29.0131 171.108L103.086 37.3236L102.211 36.8393L28.1383 170.624L29.0131 171.108Z" fill="url(#paint3_linear_1645_2081)"/>
<g filter="url(#filter1_iiii_1645_2081)">
<path d="M90.8916 158.402V164.244C90.8917 164.436 90.8347 164.625 90.7278 164.785C90.6208 164.945 90.4687 165.07 90.2907 165.144C90.1127 165.218 89.9168 165.237 89.7279 165.199C89.5389 165.162 89.3654 165.069 89.2292 164.933L87.2748 162.977C84.8226 165.083 82.0517 166.191 79.2089 166.191C73.9979 166.191 70.863 163.116 70.7316 162.985C70.5487 162.803 70.4458 162.556 70.4455 162.297C70.4451 162.039 70.5474 161.791 70.7297 161.608C70.9121 161.426 71.1596 161.323 71.4179 161.322C71.6761 161.322 71.9239 161.424 72.1067 161.607C72.1505 161.649 74.8473 164.244 79.2089 164.244C82.0285 164.244 84.3103 162.923 85.8923 161.596L83.3879 159.091C83.2516 158.955 83.1587 158.782 83.1211 158.593C83.0835 158.404 83.1027 158.208 83.1765 158.03C83.2502 157.852 83.3751 157.7 83.5354 157.593C83.6956 157.486 83.884 157.429 84.0767 157.429H89.918C90.1762 157.429 90.4239 157.531 90.6064 157.714C90.789 157.897 90.8916 158.144 90.8916 158.402ZM75.2404 150.986C75.3142 150.808 75.3336 150.613 75.2961 150.424C75.2586 150.235 75.166 150.061 75.0298 149.925L72.5254 147.421C74.1074 146.093 76.3892 144.773 79.2089 144.773C83.5838 144.773 86.283 147.382 86.311 147.411C86.494 147.593 86.7419 147.695 87.0003 147.695C87.2586 147.695 87.5062 147.591 87.6886 147.408C87.8709 147.225 87.9731 146.978 87.9727 146.719C87.9722 146.461 87.8691 146.213 87.6861 146.031C87.5547 145.901 84.4198 142.825 79.2089 142.825C76.3661 142.825 73.5951 143.933 71.1429 146.039L69.1885 144.084C69.0523 143.947 68.8788 143.855 68.6898 143.817C68.5009 143.779 68.305 143.799 68.127 143.872C67.949 143.946 67.7969 144.071 67.69 144.231C67.583 144.392 67.526 144.58 67.5261 144.773V150.614C67.5261 150.872 67.6287 151.12 67.8113 151.302C67.9939 151.485 68.2415 151.587 68.4997 151.587H74.341C74.5336 151.587 74.7218 151.53 74.8819 151.423C75.042 151.316 75.1667 151.164 75.2404 150.986Z" fill="url(#paint4_linear_1645_2081)"/>
</g>
<path d="M75.2404 150.986C75.3142 150.808 75.3336 150.613 75.2961 150.424C75.2586 150.235 75.166 150.061 75.0298 149.925L75.2404 150.986ZM75.2404 150.986C75.1667 151.164 75.042 151.316 74.8819 151.423M75.2404 150.986L74.8819 151.423M74.8819 151.423C74.7218 151.53 74.5336 151.587 74.341 151.587L74.8819 151.423ZM90.5411 164.244L90.5411 164.244C90.5412 164.367 90.5047 164.488 90.4363 164.59C90.3678 164.693 90.2704 164.773 90.1565 164.82C90.0426 164.867 89.9173 164.88 89.7963 164.856C89.6754 164.832 89.5643 164.772 89.4772 164.685L89.4771 164.685L87.5227 162.729L87.293 162.499L87.0464 162.711C84.6482 164.771 81.956 165.84 79.2089 165.84C74.1434 165.84 71.0948 162.852 70.9787 162.737C70.8619 162.62 70.7962 162.462 70.796 162.297C70.7957 162.132 70.8612 161.973 70.9779 161.856C71.0946 161.739 71.253 161.673 71.4183 161.673C71.5836 161.673 71.7422 161.738 71.8592 161.855L71.8592 161.855L71.8624 161.858C71.929 161.923 74.7101 164.594 79.2089 164.594C82.1414 164.594 84.5006 163.221 86.1177 161.864L86.4106 161.618L86.1402 161.348L83.6357 158.843L83.6356 158.843C83.5483 158.756 83.4889 158.645 83.4648 158.524C83.4407 158.403 83.4531 158.278 83.5003 158.164C83.5475 158.05 83.6274 157.953 83.73 157.884C83.8325 157.816 83.9531 157.779 84.0764 157.779H84.0767H89.918C90.0833 157.779 90.2418 157.845 90.3586 157.962C90.4755 158.079 90.5411 158.237 90.5411 158.402L90.5411 164.244ZM74.9166 150.852L74.9165 150.852C74.8694 150.966 74.7896 151.063 74.6871 151.132C74.5847 151.2 74.4643 151.237 74.341 151.237C74.341 151.237 74.341 151.237 74.341 151.237H68.4997C68.3344 151.237 68.176 151.171 68.0591 151.055C67.9423 150.938 67.8766 150.779 67.8766 150.614L67.8766 144.773L67.8766 144.772C67.8765 144.649 67.913 144.528 67.9815 144.426C68.0499 144.323 68.1473 144.243 68.2612 144.196C68.3751 144.149 68.5004 144.137 68.6214 144.161C68.7423 144.185 68.8534 144.244 68.9405 144.331L68.9406 144.332L70.895 146.287L71.1247 146.517L71.3713 146.305C73.7695 144.245 76.4617 143.176 79.2089 143.176C84.2731 143.176 87.3215 146.163 87.4389 146.279C87.556 146.396 87.6219 146.554 87.6222 146.72C87.6225 146.885 87.557 147.044 87.4403 147.161C87.3236 147.278 87.1651 147.344 86.9997 147.345C86.8343 147.345 86.6755 147.279 86.5584 147.163L86.5583 147.163C86.4055 147.012 83.64 144.422 79.2089 144.422C76.2763 144.422 73.9171 145.795 72.3001 147.152L72.0071 147.398L72.2775 147.668L74.7819 150.173C74.869 150.26 74.9283 150.371 74.9523 150.492C74.9763 150.613 74.9639 150.738 74.9166 150.852Z" stroke="url(#paint5_radial_1645_2081)" stroke-opacity="0.2" stroke-width="0.700964"/>
<path d="M57.6493 182.085V174.23H60.3538C60.9748 174.23 61.4835 174.334 61.88 174.544C62.284 174.753 62.5832 175.038 62.7778 175.397C62.9723 175.748 63.0695 176.141 63.0695 176.575C63.0695 177.061 62.9386 177.503 62.6768 177.899C62.4224 178.296 62.0221 178.58 61.476 178.752L63.1481 182.085H61.7678L60.2416 178.921H58.8389V182.085H57.6493ZM58.8389 178.023H60.2865C60.8251 178.023 61.2179 177.892 61.4648 177.63C61.7192 177.368 61.8463 177.028 61.8463 176.609C61.8463 176.19 61.7229 175.857 61.476 175.61C61.2291 175.356 60.8289 175.228 60.2753 175.228H58.8389V178.023ZM66.6956 182.22C66.1495 182.22 65.6632 182.1 65.2368 181.861C64.8178 181.614 64.4886 181.273 64.2492 180.839C64.0098 180.406 63.8901 179.901 63.8901 179.324C63.8901 178.741 64.0061 178.228 64.238 177.787C64.4774 177.346 64.8066 177.002 65.2255 176.755C65.652 176.508 66.1457 176.384 66.7068 176.384C67.253 176.384 67.728 176.508 68.132 176.755C68.536 176.994 68.8502 177.316 69.0747 177.72C69.2991 178.124 69.4113 178.569 69.4113 179.055C69.4113 179.13 69.4076 179.212 69.4001 179.302C69.4001 179.384 69.3963 179.478 69.3889 179.583H65.0572C65.0946 180.121 65.2704 180.533 65.5846 180.817C65.9063 181.094 66.2767 181.232 66.6956 181.232C67.0323 181.232 67.3128 181.157 67.5373 181.008C67.7692 180.851 67.9412 180.641 68.0535 180.379H69.243C69.0934 180.903 68.7941 181.341 68.3452 181.692C67.9038 182.044 67.354 182.22 66.6956 182.22ZM66.6956 177.361C66.2991 177.361 65.9475 177.48 65.6407 177.72C65.334 177.952 65.147 178.303 65.0797 178.775H68.2218C68.1993 178.341 68.046 177.997 67.7617 177.742C67.4774 177.488 67.122 177.361 66.6956 177.361ZM73.1817 182.22C72.643 182.22 72.168 182.093 71.7565 181.838C71.345 181.584 71.0233 181.236 70.7914 180.795C70.5595 180.353 70.4436 179.852 70.4436 179.291C70.4436 178.73 70.5595 178.232 70.7914 177.798C71.0233 177.357 71.345 177.013 71.7565 176.766C72.1755 176.512 72.6543 176.384 73.1929 176.384C73.6343 176.384 74.0196 176.47 74.3488 176.642C74.6854 176.815 74.9473 177.058 75.1343 177.372V174.005H76.3238V182.085H75.2578L75.1343 181.221C74.9548 181.483 74.7079 181.715 74.3937 181.917C74.0795 182.119 73.6755 182.22 73.1817 182.22ZM73.3949 181.187C73.9036 181.187 74.3189 181.012 74.6405 180.66C74.9697 180.308 75.1343 179.856 75.1343 179.302C75.1343 178.741 74.9697 178.288 74.6405 177.944C74.3189 177.593 73.9036 177.417 73.3949 177.417C72.8862 177.417 72.4672 177.593 72.1381 177.944C71.8089 178.288 71.6443 178.741 71.6443 179.302C71.6443 179.669 71.7191 179.994 71.8687 180.278C72.0184 180.563 72.2241 180.787 72.4859 180.952C72.7553 181.109 73.0583 181.187 73.3949 181.187ZM78.4969 175.464C78.2725 175.464 78.0855 175.397 77.9358 175.262C77.7937 175.12 77.7226 174.944 77.7226 174.735C77.7226 174.525 77.7937 174.353 77.9358 174.219C78.0855 174.076 78.2725 174.005 78.4969 174.005C78.7214 174.005 78.9047 174.076 79.0468 174.219C79.1964 174.353 79.2712 174.525 79.2712 174.735C79.2712 174.944 79.1964 175.12 79.0468 175.262C78.9047 175.397 78.7214 175.464 78.4969 175.464ZM77.9022 182.085V176.519H79.0917V182.085H77.9022ZM80.662 182.085V176.519H81.7281L81.8291 177.574C82.0236 177.207 82.2929 176.919 82.637 176.71C82.9887 176.493 83.4113 176.384 83.9051 176.384V177.63H83.5797C83.2505 177.63 82.955 177.686 82.6931 177.798C82.4388 177.903 82.233 178.086 82.0759 178.348C81.9263 178.603 81.8515 178.958 81.8515 179.414V182.085H80.662ZM87.375 182.22C86.8289 182.22 86.3426 182.1 85.9162 181.861C85.4972 181.614 85.1681 181.273 84.9287 180.839C84.6893 180.406 84.5696 179.901 84.5696 179.324C84.5696 178.741 84.6855 178.228 84.9175 177.787C85.1569 177.346 85.486 177.002 85.905 176.755C86.3314 176.508 86.8252 176.384 87.3863 176.384C87.9324 176.384 88.4075 176.508 88.8115 176.755C89.2154 176.994 89.5297 177.316 89.7541 177.72C89.9785 178.124 90.0908 178.569 90.0908 179.055C90.0908 179.13 90.087 179.212 90.0795 179.302C90.0795 179.384 90.0758 179.478 90.0683 179.583H85.7366C85.7741 180.121 85.9499 180.533 86.2641 180.817C86.5858 181.094 86.9561 181.232 87.375 181.232C87.7117 181.232 87.9923 181.157 88.2167 181.008C88.4486 180.851 88.6207 180.641 88.7329 180.379H89.9224C89.7728 180.903 89.4735 181.341 89.0247 181.692C88.5833 182.044 88.0334 182.22 87.375 182.22ZM87.375 177.361C86.9785 177.361 86.6269 177.48 86.3202 177.72C86.0135 177.952 85.8264 178.303 85.7591 178.775H88.9012C88.8788 178.341 88.7254 177.997 88.4411 177.742C88.1568 177.488 87.8015 177.361 87.375 177.361ZM93.9621 182.22C93.416 182.22 92.926 182.096 92.4921 181.849C92.0656 181.603 91.729 181.262 91.4821 180.828C91.2427 180.387 91.123 179.878 91.123 179.302C91.123 178.726 91.2427 178.221 91.4821 177.787C91.729 177.346 92.0656 177.002 92.4921 176.755C92.926 176.508 93.416 176.384 93.9621 176.384C94.6504 176.384 95.2265 176.564 95.6903 176.923C96.1616 177.282 96.4646 177.768 96.5993 178.382H95.3537C95.2788 178.075 95.1143 177.836 94.8599 177.664C94.6055 177.492 94.3063 177.406 93.9621 177.406C93.6704 177.406 93.401 177.48 93.1542 177.63C92.9073 177.772 92.709 177.985 92.5594 178.27C92.4098 178.546 92.335 178.891 92.335 179.302C92.335 179.714 92.4098 180.061 92.5594 180.346C92.709 180.622 92.9073 180.836 93.1542 180.985C93.401 181.135 93.6704 181.21 93.9621 181.21C94.3063 181.21 94.6055 181.124 94.8599 180.952C95.1143 180.78 95.2788 180.536 95.3537 180.222H96.5993C96.4721 180.821 96.1729 181.303 95.7015 181.67C95.2302 182.036 94.6504 182.22 93.9621 182.22ZM100.114 182.085C99.5678 182.085 99.1339 181.954 98.8122 181.692C98.4905 181.423 98.3297 180.948 98.3297 180.267V177.518H97.3758V176.519H98.3297L98.4755 175.105H99.5192V176.519H101.09V177.518H99.5192V180.267C99.5192 180.574 99.5828 180.787 99.7099 180.907C99.8446 181.019 100.073 181.075 100.394 181.075H101.034V182.085H100.114Z" fill="#C5C6CA"/>
<g filter="url(#filter2_iiii_1645_2081)">
<path d="M166.621 147.198L166.206 147.676C166.081 147.821 165.928 147.94 165.756 148.026C165.585 148.112 165.398 148.163 165.207 148.177C165.015 148.19 164.823 148.166 164.641 148.105C164.459 148.045 164.291 147.949 164.146 147.823C164.001 147.698 163.882 147.545 163.796 147.373C163.71 147.202 163.659 147.015 163.646 146.824C163.618 146.437 163.745 146.056 163.999 145.763L164.451 145.241C164.475 145.216 164.498 145.19 164.522 145.166C165.709 143.979 167.318 143.312 168.997 143.312C169.828 143.312 170.651 143.476 171.418 143.794C172.186 144.112 172.884 144.578 173.471 145.166C174.059 145.753 174.525 146.451 174.843 147.219C175.161 147.986 175.325 148.809 175.325 149.64C175.325 150.471 175.161 151.294 174.843 152.062C174.525 152.83 174.059 153.527 173.471 154.115C173.447 154.139 173.422 154.163 173.396 154.186L172.874 154.638C172.729 154.764 172.561 154.86 172.379 154.92C172.197 154.981 172.005 155.005 171.813 154.991C171.622 154.978 171.435 154.927 171.264 154.841C171.092 154.755 170.939 154.636 170.814 154.491C170.688 154.346 170.592 154.178 170.532 153.996C170.471 153.814 170.447 153.622 170.461 153.43C170.474 153.239 170.525 153.052 170.611 152.881C170.697 152.709 170.816 152.556 170.961 152.431L171.439 152.016C172.057 151.373 172.398 150.513 172.389 149.621C172.38 148.729 172.022 147.876 171.391 147.246C170.761 146.615 169.908 146.257 169.016 146.248C168.124 146.239 167.264 146.58 166.621 147.198ZM164.112 161.193C163.967 161.067 163.799 160.971 163.617 160.911C163.435 160.85 163.243 160.826 163.051 160.84C162.86 160.853 162.673 160.905 162.502 160.99C162.33 161.076 162.177 161.195 162.052 161.34L161.637 161.818C160.993 162.436 160.134 162.777 159.242 162.768C158.35 162.759 157.497 162.401 156.867 161.771C156.236 161.14 155.878 160.287 155.869 159.395C155.86 158.503 156.201 157.644 156.819 157L157.297 156.585C157.59 156.332 157.77 155.972 157.797 155.586C157.825 155.199 157.698 154.818 157.444 154.525C157.19 154.232 156.831 154.052 156.445 154.025C156.058 153.997 155.677 154.124 155.384 154.378L154.862 154.831C154.836 154.854 154.811 154.877 154.786 154.901C153.6 156.088 152.933 157.698 152.933 159.376C152.933 161.054 153.6 162.664 154.786 163.851C155.973 165.037 157.583 165.704 159.261 165.704C160.939 165.704 162.549 165.037 163.736 163.851C163.76 163.826 163.783 163.801 163.806 163.775L164.259 163.253C164.385 163.108 164.481 162.94 164.541 162.758C164.602 162.576 164.626 162.384 164.612 162.193C164.599 162.001 164.547 161.814 164.462 161.643C164.376 161.471 164.257 161.318 164.112 161.193ZM173.864 156.942H171.431C171.043 156.942 170.672 157.096 170.398 157.37C170.124 157.644 169.97 158.015 169.97 158.402C169.97 158.79 170.124 159.161 170.398 159.435C170.672 159.709 171.043 159.863 171.431 159.863H173.864C174.252 159.863 174.623 159.709 174.897 159.435C175.171 159.161 175.325 158.79 175.325 158.402C175.325 158.015 175.171 157.644 174.897 157.37C174.623 157.096 174.252 156.942 173.864 156.942ZM154.393 152.074H156.827C157.214 152.074 157.586 151.92 157.86 151.647C158.134 151.373 158.288 151.001 158.288 150.614C158.288 150.227 158.134 149.855 157.86 149.581C157.586 149.307 157.214 149.154 156.827 149.154H154.393C154.006 149.154 153.635 149.307 153.361 149.581C153.087 149.855 152.933 150.227 152.933 150.614C152.933 151.001 153.087 151.373 153.361 151.647C153.635 151.92 154.006 152.074 154.393 152.074ZM168.023 160.35C167.636 160.35 167.264 160.503 166.991 160.777C166.717 161.051 166.563 161.423 166.563 161.81V164.244C166.563 164.631 166.717 165.003 166.991 165.276C167.264 165.55 167.636 165.704 168.023 165.704C168.41 165.704 168.782 165.55 169.056 165.276C169.33 165.003 169.483 164.631 169.483 164.244V161.81C169.483 161.423 169.33 161.051 169.056 160.777C168.782 160.503 168.41 160.35 168.023 160.35ZM160.235 148.667C160.622 148.667 160.993 148.513 161.267 148.239C161.541 147.965 161.695 147.594 161.695 147.206V144.773C161.695 144.385 161.541 144.014 161.267 143.74C160.993 143.466 160.622 143.312 160.235 143.312C159.847 143.312 159.476 143.466 159.202 143.74C158.928 144.014 158.774 144.385 158.774 144.773V147.206C158.774 147.594 158.928 147.965 159.202 148.239C159.476 148.513 159.847 148.667 160.235 148.667Z" fill="url(#paint6_linear_1645_2081)"/>
</g>
<path d="M166.378 146.945L166.367 146.956L166.356 146.968L165.942 147.447L165.941 147.447C165.846 147.557 165.73 147.647 165.599 147.712C165.469 147.778 165.327 147.817 165.182 147.827C165.036 147.837 164.89 147.819 164.752 147.773C164.614 147.727 164.486 147.654 164.375 147.559C164.265 147.463 164.175 147.347 164.11 147.217C164.045 147.086 164.006 146.944 163.995 146.799C163.974 146.505 164.071 146.215 164.263 145.993C164.263 145.993 164.264 145.993 164.264 145.993L164.714 145.473C164.737 145.448 164.753 145.43 164.77 145.413C165.891 144.292 167.411 143.663 168.997 143.663C169.782 143.663 170.559 143.817 171.284 144.118C172.01 144.418 172.669 144.858 173.224 145.413C173.779 145.969 174.219 146.628 174.519 147.353C174.82 148.078 174.974 148.855 174.974 149.64C174.974 150.425 174.82 151.203 174.519 151.928C174.219 152.653 173.779 153.312 173.224 153.867C173.207 153.884 173.189 153.9 173.164 153.923L172.644 154.374C172.644 154.374 172.644 154.374 172.644 154.374C172.534 154.469 172.406 154.542 172.268 154.588C172.13 154.634 171.984 154.652 171.838 154.642C171.693 154.631 171.551 154.593 171.421 154.527C171.29 154.462 171.174 154.372 171.078 154.262C170.983 154.151 170.91 154.024 170.864 153.885L170.532 153.996L170.864 153.885C170.818 153.747 170.8 153.601 170.81 153.455C170.821 153.31 170.859 153.168 170.925 153.038C170.99 152.907 171.08 152.791 171.19 152.696L171.191 152.696L171.669 152.281L171.681 152.27L171.692 152.259C172.373 151.549 172.749 150.601 172.74 149.618C172.73 148.634 172.335 147.694 171.639 146.998C170.944 146.302 170.003 145.907 169.02 145.898C168.036 145.888 167.088 146.264 166.378 146.945ZM163.882 161.458L163.882 161.458C163.993 161.553 164.083 161.669 164.148 161.8C164.213 161.93 164.252 162.072 164.263 162.218C164.273 162.363 164.255 162.509 164.209 162.647C164.163 162.786 164.09 162.913 163.994 163.024C163.994 163.024 163.994 163.024 163.994 163.024L163.544 163.543C163.521 163.568 163.505 163.586 163.488 163.603C162.367 164.724 160.846 165.354 159.261 165.354C157.676 165.354 156.155 164.724 155.034 163.603C153.913 162.482 153.283 160.961 153.283 159.376C153.283 157.791 153.913 156.27 155.034 155.149C155.051 155.133 155.069 155.116 155.094 155.093L155.613 154.643C155.613 154.643 155.613 154.643 155.613 154.643C155.836 154.45 156.126 154.353 156.42 154.374C156.713 154.395 156.987 154.532 157.179 154.755C157.372 154.977 157.469 155.267 157.448 155.561C157.427 155.855 157.29 156.128 157.067 156.321L157.067 156.321L156.589 156.736L156.577 156.746L156.566 156.758C155.884 157.467 155.508 158.415 155.518 159.399C155.528 160.382 155.923 161.323 156.619 162.018C157.314 162.714 158.255 163.109 159.238 163.119C160.222 163.129 161.17 162.753 161.879 162.071L161.891 162.06L161.901 162.048L162.316 161.57L162.316 161.57C162.412 161.459 162.528 161.369 162.658 161.304C162.789 161.239 162.931 161.2 163.076 161.189C163.222 161.179 163.368 161.197 163.506 161.243L163.617 160.911L163.506 161.243C163.644 161.289 163.772 161.362 163.882 161.458ZM171.431 157.293H173.864C174.159 157.293 174.441 157.409 174.649 157.618C174.857 157.826 174.974 158.108 174.974 158.402C174.974 158.697 174.857 158.979 174.649 159.187C174.441 159.395 174.159 159.512 173.864 159.512H171.431C171.136 159.512 170.854 159.395 170.646 159.187C170.438 158.979 170.321 158.697 170.321 158.402C170.321 158.108 170.438 157.826 170.646 157.618C170.854 157.409 171.136 157.293 171.431 157.293ZM156.827 151.724H154.393C154.099 151.724 153.817 151.607 153.608 151.399C153.4 151.191 153.283 150.908 153.283 150.614C153.283 150.32 153.4 150.037 153.608 149.829C153.817 149.621 154.099 149.504 154.393 149.504H156.827C157.122 149.504 157.404 149.621 157.612 149.829C157.82 150.037 157.937 150.32 157.937 150.614C157.937 150.908 157.82 151.191 157.612 151.399C157.404 151.607 157.122 151.724 156.827 151.724ZM167.238 161.025C167.446 160.817 167.729 160.7 168.023 160.7C168.317 160.7 168.6 160.817 168.808 161.025C169.016 161.233 169.133 161.516 169.133 161.81V164.244C169.133 164.538 169.016 164.82 168.808 165.029C168.6 165.237 168.317 165.354 168.023 165.354C167.729 165.354 167.446 165.237 167.238 165.029C167.03 164.82 166.913 164.538 166.913 164.244V161.81C166.913 161.516 167.03 161.233 167.238 161.025ZM161.019 147.991C160.811 148.199 160.529 148.316 160.235 148.316C159.94 148.316 159.658 148.199 159.45 147.991C159.242 147.783 159.125 147.501 159.125 147.206V144.773C159.125 144.478 159.242 144.196 159.45 143.988C159.658 143.78 159.94 143.663 160.235 143.663C160.529 143.663 160.811 143.78 161.019 143.988C161.228 144.196 161.345 144.478 161.345 144.773V147.206C161.345 147.501 161.228 147.783 161.019 147.991Z" stroke="url(#paint7_radial_1645_2081)" stroke-opacity="0.2" stroke-width="0.700964"/>
<path d="M145.501 182.085V174.23H148.048C148.969 174.23 149.724 174.391 150.315 174.712C150.914 175.034 151.355 175.49 151.639 176.081C151.931 176.665 152.077 177.361 152.077 178.169C152.077 178.969 151.931 179.665 151.639 180.256C151.355 180.839 150.914 181.292 150.315 181.614C149.724 181.928 148.969 182.085 148.048 182.085H145.501ZM146.691 181.075H148.004C148.714 181.075 149.275 180.959 149.687 180.727C150.106 180.495 150.405 180.162 150.585 179.728C150.772 179.295 150.865 178.775 150.865 178.169C150.865 177.563 150.772 177.039 150.585 176.598C150.405 176.156 150.106 175.82 149.687 175.588C149.275 175.348 148.714 175.228 148.004 175.228H146.691V181.075ZM154.02 175.464C153.795 175.464 153.608 175.397 153.459 175.262C153.317 175.12 153.246 174.944 153.246 174.735C153.246 174.525 153.317 174.353 153.459 174.219C153.608 174.076 153.795 174.005 154.02 174.005C154.244 174.005 154.428 174.076 154.57 174.219C154.719 174.353 154.794 174.525 154.794 174.735C154.794 174.944 154.719 175.12 154.57 175.262C154.428 175.397 154.244 175.464 154.02 175.464ZM153.425 182.085V176.519H154.615V182.085H153.425ZM158.407 182.22C157.704 182.22 157.124 182.048 156.667 181.704C156.211 181.359 155.949 180.903 155.882 180.334H157.083C157.142 180.589 157.285 180.81 157.509 180.997C157.734 181.176 158.029 181.266 158.396 181.266C158.755 181.266 159.017 181.191 159.181 181.041C159.346 180.892 159.428 180.72 159.428 180.525C159.428 180.241 159.312 180.05 159.08 179.953C158.856 179.848 158.541 179.755 158.138 179.672C157.823 179.605 157.509 179.515 157.195 179.403C156.888 179.291 156.63 179.134 156.421 178.932C156.219 178.722 156.118 178.442 156.118 178.09C156.118 177.604 156.305 177.2 156.679 176.878C157.053 176.549 157.576 176.384 158.25 176.384C158.871 176.384 159.372 176.534 159.753 176.833C160.142 177.132 160.371 177.555 160.438 178.101H159.293C159.256 177.862 159.144 177.675 158.957 177.54C158.777 177.406 158.534 177.338 158.227 177.338C157.928 177.338 157.696 177.402 157.532 177.529C157.367 177.649 157.285 177.806 157.285 178C157.285 178.195 157.397 178.348 157.621 178.46C157.853 178.573 158.156 178.674 158.53 178.763C158.904 178.846 159.248 178.943 159.563 179.055C159.884 179.16 160.142 179.317 160.337 179.526C160.532 179.736 160.629 180.043 160.629 180.447C160.636 180.955 160.438 181.378 160.034 181.715C159.637 182.051 159.095 182.22 158.407 182.22ZM161.927 182.085V176.519H162.993L163.094 177.574C163.289 177.207 163.558 176.919 163.902 176.71C164.254 176.493 164.677 176.384 165.17 176.384V177.63H164.845C164.516 177.63 164.22 177.686 163.959 177.798C163.704 177.903 163.498 178.086 163.341 178.348C163.192 178.603 163.117 178.958 163.117 179.414V182.085H161.927ZM168.244 182.22C167.571 182.22 167.039 182.01 166.65 181.591C166.269 181.172 166.078 180.548 166.078 179.717V176.519H167.268V179.594C167.268 180.671 167.709 181.21 168.592 181.21C169.033 181.21 169.396 181.053 169.68 180.738C169.965 180.424 170.107 179.975 170.107 179.392V176.519H171.296V182.085H170.241L170.152 181.109C169.98 181.453 169.725 181.726 169.389 181.928C169.059 182.122 168.678 182.22 168.244 182.22ZM172.81 184.554V176.519H173.876L173.999 177.383C174.179 177.121 174.425 176.889 174.74 176.687C175.054 176.485 175.458 176.384 175.952 176.384C176.49 176.384 176.965 176.512 177.377 176.766C177.788 177.02 178.11 177.368 178.342 177.81C178.581 178.251 178.701 178.752 178.701 179.313C178.701 179.874 178.581 180.376 178.342 180.817C178.11 181.251 177.788 181.595 177.377 181.849C176.965 182.096 176.487 182.22 175.94 182.22C175.507 182.22 175.121 182.134 174.785 181.962C174.455 181.79 174.194 181.546 173.999 181.232V184.554H172.81ZM175.738 181.187C176.247 181.187 176.666 181.015 176.995 180.671C177.324 180.32 177.489 179.863 177.489 179.302C177.489 178.935 177.414 178.61 177.265 178.326C177.115 178.041 176.909 177.821 176.647 177.664C176.386 177.499 176.083 177.417 175.738 177.417C175.23 177.417 174.811 177.593 174.482 177.944C174.16 178.296 173.999 178.748 173.999 179.302C173.999 179.863 174.16 180.32 174.482 180.671C174.811 181.015 175.23 181.187 175.738 181.187ZM182.103 182.085C181.556 182.085 181.123 181.954 180.801 181.692C180.479 181.423 180.318 180.948 180.318 180.267V177.518H179.364V176.519H180.318L180.464 175.105H181.508V176.519H183.079V177.518H181.508V180.267C181.508 180.574 181.571 180.787 181.699 180.907C181.833 181.019 182.061 181.075 182.383 181.075H183.023V182.085H182.103Z" fill="#C5C6CA"/>
<g filter="url(#filter3_iiii_1645_2081)">
<path d="M127.69 58.5674V54.2302C127.69 53.7138 127.484 53.2185 127.119 52.8534C126.754 52.4882 126.259 52.2831 125.743 52.2831H112.113C111.596 52.2831 111.101 52.4882 110.736 52.8534C110.371 53.2185 110.166 53.7138 110.166 54.2302V58.6112C110.166 58.9134 110.237 59.2113 110.372 59.4816C110.507 59.7518 110.703 59.9871 110.944 60.1689L117.305 64.9394L110.944 69.7098C110.703 69.8916 110.507 70.1269 110.372 70.3972C110.237 70.6674 110.166 70.9654 110.166 71.2675V75.6485C110.166 76.165 110.371 76.6602 110.736 77.0254C111.101 77.3905 111.596 77.5957 112.113 77.5957H125.743C126.259 77.5957 126.754 77.3905 127.119 77.0254C127.484 76.6602 127.69 76.165 127.69 75.6485V71.3113C127.689 71.0103 127.619 70.7135 127.485 70.444C127.351 70.1745 127.156 69.9395 126.917 69.7573L120.542 64.9394L126.917 60.1215C127.156 59.9393 127.351 59.7043 127.485 59.4347C127.619 59.1652 127.689 58.8684 127.69 58.5674ZM125.743 71.3113V75.6485H112.113V71.2675L117.954 66.8865V69.8072C117.954 70.0654 118.057 70.313 118.239 70.4956C118.422 70.6782 118.669 70.7807 118.928 70.7807C119.186 70.7807 119.433 70.6782 119.616 70.4956C119.799 70.313 119.901 70.0654 119.901 69.8072V66.8962L125.743 71.3113ZM125.743 58.5674L125.04 59.098H112.761L112.113 58.6112V54.2302H125.743V58.5674Z" fill="url(#paint8_linear_1645_2081)"/>
</g>
<path d="M117.89 64.9394L117.516 65.2198L111.155 69.9897C111.155 69.9898 111.155 69.9899 111.155 69.99C110.957 70.1392 110.796 70.3322 110.685 70.5539C110.575 70.7756 110.517 71.02 110.516 71.2679V75.6485C110.516 76.072 110.684 76.4781 110.984 76.7775C111.283 77.077 111.689 77.2452 112.113 77.2452H125.743C126.166 77.2452 126.572 77.077 126.871 76.7775C127.171 76.4781 127.339 76.072 127.339 75.6485V71.3121C127.339 71.065 127.281 70.8213 127.171 70.6001C127.061 70.379 126.902 70.1862 126.705 70.0367C126.705 70.0365 126.705 70.0364 126.705 70.0363L120.331 65.219L119.961 64.9394L120.331 64.6598L126.705 59.8425C126.705 59.8424 126.705 59.8423 126.705 59.8422C126.902 59.6927 127.061 59.4998 127.171 59.2787C127.281 59.0574 127.339 58.8137 127.339 58.5666V54.2302C127.339 53.8067 127.171 53.4006 126.871 53.1012C126.572 52.8018 126.166 52.6336 125.743 52.6336H112.113C111.689 52.6336 111.283 52.8018 110.984 53.1012C110.684 53.4006 110.516 53.8067 110.516 54.2302V58.6108C110.517 58.8587 110.575 59.1031 110.685 59.3248M117.89 64.9394L110.685 59.3248M117.89 64.9394L117.516 64.659M117.89 64.9394L117.516 64.659M110.685 59.3248C110.796 59.5465 110.957 59.7395 111.155 59.8887M110.685 59.3248L111.155 59.8887M111.155 59.8887C111.155 59.8888 111.155 59.8889 111.155 59.889M111.155 59.8887L111.155 59.889M111.155 59.889L117.516 64.659M111.155 59.889L117.516 64.659M126.093 71.3113V71.1369L125.954 71.0317L120.112 66.6166L119.551 66.192V66.8962V69.8072C119.551 69.9724 119.485 70.1309 119.368 70.2478C119.251 70.3646 119.093 70.4303 118.928 70.4303C118.762 70.4303 118.604 70.3646 118.487 70.2478C118.37 70.1309 118.304 69.9724 118.304 69.8072V66.8865V66.1855L117.744 66.6061L111.902 70.9871L111.762 71.0923V71.2675V75.6485V75.999H112.113H125.743H126.093V75.6485V71.3113ZM125.954 58.847L126.093 58.7419V58.5674V54.2302V53.8797H125.743H112.113H111.762V54.2302V58.6112V58.7864L111.902 58.8915L112.551 59.3783L112.644 59.4485H112.761H125.04H125.158L125.252 59.3776L125.954 58.847Z" stroke="url(#paint9_radial_1645_2081)" stroke-opacity="0.2" stroke-width="0.700964"/>
<path d="M104.869 92.5164V84.661H107.416C108.336 84.661 109.092 84.8219 109.683 85.1436C110.282 85.4653 110.723 85.9216 111.007 86.5126C111.299 87.0962 111.445 87.7919 111.445 88.5999C111.445 89.4004 111.299 90.0962 111.007 90.6872C110.723 91.2707 110.282 91.7233 109.683 92.045C109.092 92.3593 108.336 92.5164 107.416 92.5164H104.869ZM106.058 91.5064H107.371C108.082 91.5064 108.643 91.3904 109.055 91.1585C109.474 90.9266 109.773 90.5937 109.952 90.1598C110.139 89.7258 110.233 89.2059 110.233 88.5999C110.233 87.9939 110.139 87.4702 109.952 87.0288C109.773 86.5874 109.474 86.2508 109.055 86.0189C108.643 85.7795 108.082 85.6598 107.371 85.6598H106.058V91.5064ZM115.318 92.651C114.772 92.651 114.285 92.5313 113.859 92.2919C113.44 92.045 113.111 91.7046 112.871 91.2707C112.632 90.8368 112.512 90.3318 112.512 89.7558C112.512 89.1722 112.628 88.6598 112.86 88.2184C113.1 87.777 113.429 87.4328 113.848 87.1859C114.274 86.9391 114.768 86.8156 115.329 86.8156C115.875 86.8156 116.35 86.9391 116.754 87.1859C117.158 87.4253 117.472 87.747 117.697 88.151C117.921 88.555 118.034 89.0002 118.034 89.4864C118.034 89.5613 118.03 89.6435 118.022 89.7333C118.022 89.8156 118.019 89.9091 118.011 90.0139H113.679C113.717 90.5525 113.893 90.964 114.207 91.2483C114.529 91.5251 114.899 91.6635 115.318 91.6635C115.655 91.6635 115.935 91.5887 116.159 91.4391C116.391 91.2819 116.563 91.0725 116.676 90.8106H117.865C117.716 91.3343 117.416 91.772 116.967 92.1236C116.526 92.4752 115.976 92.651 115.318 92.651ZM115.318 87.7919C114.921 87.7919 114.57 87.9116 114.263 88.151C113.956 88.383 113.769 88.7346 113.702 89.2059H116.844C116.822 88.772 116.668 88.4278 116.384 88.1735C116.1 87.9191 115.744 87.7919 115.318 87.7919ZM119.268 92.5164V84.4366H120.457V92.5164H119.268ZM123.849 92.651C123.378 92.651 122.989 92.5725 122.682 92.4154C122.375 92.2583 122.147 92.0525 121.997 91.7982C121.848 91.5363 121.773 91.252 121.773 90.9453C121.773 90.4066 121.982 89.9802 122.401 89.666C122.82 89.3518 123.419 89.1947 124.197 89.1947H125.656V89.0937C125.656 88.6598 125.536 88.3343 125.297 88.1174C125.065 87.9004 124.762 87.7919 124.388 87.7919C124.058 87.7919 123.77 87.8742 123.524 88.0388C123.284 88.1959 123.138 88.4316 123.086 88.7458H121.896C121.934 88.3418 122.068 87.9977 122.3 87.7134C122.54 87.4216 122.839 87.2009 123.198 87.0513C123.565 86.8942 123.965 86.8156 124.399 86.8156C125.177 86.8156 125.779 87.0214 126.206 87.4328C126.632 87.8368 126.845 88.3904 126.845 89.0937V92.5164H125.813L125.712 91.5625C125.555 91.8692 125.327 92.1273 125.027 92.3368C124.728 92.5463 124.335 92.651 123.849 92.651ZM124.085 91.6859C124.406 91.6859 124.676 91.6111 124.893 91.4615C125.117 91.3044 125.289 91.0987 125.409 90.8443C125.536 90.5899 125.615 90.3094 125.644 90.0026H124.32C123.849 90.0026 123.512 90.0849 123.31 90.2495C123.116 90.4141 123.019 90.6199 123.019 90.8667C123.019 91.1211 123.112 91.3231 123.299 91.4727C123.494 91.6149 123.755 91.6859 124.085 91.6859ZM128.708 94.9852L130.043 92.0563H129.718L127.518 86.9503H128.809L130.514 91.0687L132.299 86.9503H133.556L129.965 94.9852H128.708Z" fill="#C5C6CA"/>
<defs>
<filter id="filter0_bdi_1645_2081" x="0.817152" y="0.821015" width="238.488" height="219.891" filterUnits="userSpaceOnUse" color-interpolation-filters="sRGB">
<feFlood flood-opacity="0" result="BackgroundImageFix"/>
<feGaussianBlur in="BackgroundImageFix" stdDeviation="6.62021"/>
<feComposite in2="SourceAlpha" operator="in" result="effect1_backgroundBlur_1645_2081"/>
<feColorMatrix in="SourceAlpha" type="matrix" values="0 0 0 0 0 0 0 0 0 0 0 0 0 0 0 0 0 0 127 0" result="hardAlpha"/>
<feOffset dy="3.89424"/>
<feGaussianBlur stdDeviation="9.34618"/>
<feComposite in2="hardAlpha" operator="out"/>
<feColorMatrix type="matrix" values="0 0 0 0 0.381146 0 0 0 0 0.427883 0 0 0 0 0.608154 0 0 0 0.15 0"/>
<feBlend mode="normal" in2="effect1_backgroundBlur_1645_2081" result="effect2_dropShadow_1645_2081"/>
<feBlend mode="normal" in="SourceGraphic" in2="effect2_dropShadow_1645_2081" result="shape"/>
<feColorMatrix in="SourceAlpha" type="matrix" values="0 0 0 0 0 0 0 0 0 0 0 0 0 0 0 0 0 0 127 0" result="hardAlpha"/>
<feOffset dx="0.778849" dy="3.11539"/>
<feGaussianBlur stdDeviation="0.389424"/>
<feComposite in2="hardAlpha" operator="arithmetic" k2="-1" k3="1"/>
<feColorMatrix type="matrix" values="0 0 0 0 0.0470588 0 0 0 0 0.0627451 0 0 0 0 0.141176 0 0 0 0.5 0"/>
<feBlend mode="normal" in2="shape" result="effect3_innerShadow_1645_2081"/>
</filter>
<filter id="filter1_iiii_1645_2081" x="67.5261" y="141.657" width="23.3655" height="25.702" filterUnits="userSpaceOnUse" color-interpolation-filters="sRGB">
<feFlood flood-opacity="0" result="BackgroundImageFix"/>
<feBlend mode="normal" in="SourceGraphic" in2="BackgroundImageFix" result="shape"/>
<feColorMatrix in="SourceAlpha" type="matrix" values="0 0 0 0 0 0 0 0 0 0 0 0 0 0 0 0 0 0 127 0" result="hardAlpha"/>
<feOffset dy="2.33655"/>
<feGaussianBlur stdDeviation="0.584137"/>
<feComposite in2="hardAlpha" operator="arithmetic" k2="-1" k3="1"/>
<feColorMatrix type="matrix" values="0 0 0 0 0.78638 0 0 0 0 0.830606 0 0 0 0 0.9854 0 0 0 0.1 0"/>
<feBlend mode="normal" in2="shape" result="effect1_innerShadow_1645_2081"/>
<feColorMatrix in="SourceAlpha" type="matrix" values="0 0 0 0 0 0 0 0 0 0 0 0 0 0 0 0 0 0 127 0" result="hardAlpha"/>
<feOffset dy="-1.16827"/>
<feGaussianBlur stdDeviation="0.584137"/>
<feComposite in2="hardAlpha" operator="arithmetic" k2="-1" k3="1"/>
<feColorMatrix type="matrix" values="0 0 0 0 0.0636856 0 0 0 0 0.181279 0 0 0 0 0.592855 0 0 0 0.1 0"/>
<feBlend mode="normal" in2="effect1_innerShadow_1645_2081" result="effect2_innerShadow_1645_2081"/>
<feColorMatrix in="SourceAlpha" type="matrix" values="0 0 0 0 0 0 0 0 0 0 0 0 0 0 0 0 0 0 127 0" result="hardAlpha"/>
<feOffset dy="2.33655"/>
<feGaussianBlur stdDeviation="0.584137"/>
<feComposite in2="hardAlpha" operator="arithmetic" k2="-1" k3="1"/>
<feColorMatrix type="matrix" values="0 0 0 0 0.78638 0 0 0 0 0.830606 0 0 0 0 0.9854 0 0 0 0.1 0"/>
<feBlend mode="normal" in2="effect2_innerShadow_1645_2081" result="effect3_innerShadow_1645_2081"/>
<feColorMatrix in="SourceAlpha" type="matrix" values="0 0 0 0 0 0 0 0 0 0 0 0 0 0 0 0 0 0 127 0" result="hardAlpha"/>
<feOffset dy="-1.16827"/>
<feGaussianBlur stdDeviation="0.584137"/>
<feComposite in2="hardAlpha" operator="arithmetic" k2="-1" k3="1"/>
<feColorMatrix type="matrix" values="0 0 0 0 0.0636856 0 0 0 0 0.181279 0 0 0 0 0.592855 0 0 0 0.1 0"/>
<feBlend mode="normal" in2="effect3_innerShadow_1645_2081" result="effect4_innerShadow_1645_2081"/>
</filter>
<filter id="filter2_iiii_1645_2081" x="152.933" y="142.144" width="22.3921" height="24.7286" filterUnits="userSpaceOnUse" color-interpolation-filters="sRGB">
<feFlood flood-opacity="0" result="BackgroundImageFix"/>
<feBlend mode="normal" in="SourceGraphic" in2="BackgroundImageFix" result="shape"/>
<feColorMatrix in="SourceAlpha" type="matrix" values="0 0 0 0 0 0 0 0 0 0 0 0 0 0 0 0 0 0 127 0" result="hardAlpha"/>
<feOffset dy="2.33655"/>
<feGaussianBlur stdDeviation="0.584137"/>
<feComposite in2="hardAlpha" operator="arithmetic" k2="-1" k3="1"/>
<feColorMatrix type="matrix" values="0 0 0 0 0.78638 0 0 0 0 0.830606 0 0 0 0 0.9854 0 0 0 0.1 0"/>
<feBlend mode="normal" in2="shape" result="effect1_innerShadow_1645_2081"/>
<feColorMatrix in="SourceAlpha" type="matrix" values="0 0 0 0 0 0 0 0 0 0 0 0 0 0 0 0 0 0 127 0" result="hardAlpha"/>
<feOffset dy="-1.16827"/>
<feGaussianBlur stdDeviation="0.584137"/>
<feComposite in2="hardAlpha" operator="arithmetic" k2="-1" k3="1"/>
<feColorMatrix type="matrix" values="0 0 0 0 0.0636856 0 0 0 0 0.181279 0 0 0 0 0.592855 0 0 0 0.1 0"/>
<feBlend mode="normal" in2="effect1_innerShadow_1645_2081" result="effect2_innerShadow_1645_2081"/>
<feColorMatrix in="SourceAlpha" type="matrix" values="0 0 0 0 0 0 0 0 0 0 0 0 0 0 0 0 0 0 127 0" result="hardAlpha"/>
<feOffset dy="2.33655"/>
<feGaussianBlur stdDeviation="0.584137"/>
<feComposite in2="hardAlpha" operator="arithmetic" k2="-1" k3="1"/>
<feColorMatrix type="matrix" values="0 0 0 0 0.78638 0 0 0 0 0.830606 0 0 0 0 0.9854 0 0 0 0.1 0"/>
<feBlend mode="normal" in2="effect2_innerShadow_1645_2081" result="effect3_innerShadow_1645_2081"/>
<feColorMatrix in="SourceAlpha" type="matrix" values="0 0 0 0 0 0 0 0 0 0 0 0 0 0 0 0 0 0 127 0" result="hardAlpha"/>
<feOffset dy="-1.16827"/>
<feGaussianBlur stdDeviation="0.584137"/>
<feComposite in2="hardAlpha" operator="arithmetic" k2="-1" k3="1"/>
<feColorMatrix type="matrix" values="0 0 0 0 0.0636856 0 0 0 0 0.181279 0 0 0 0 0.592855 0 0 0 0.1 0"/>
<feBlend mode="normal" in2="effect3_innerShadow_1645_2081" result="effect4_innerShadow_1645_2081"/>
</filter>
<filter id="filter3_iiii_1645_2081" x="110.166" y="51.1148" width="17.524" height="27.6492" filterUnits="userSpaceOnUse" color-interpolation-filters="sRGB">
<feFlood flood-opacity="0" result="BackgroundImageFix"/>
<feBlend mode="normal" in="SourceGraphic" in2="BackgroundImageFix" result="shape"/>
<feColorMatrix in="SourceAlpha" type="matrix" values="0 0 0 0 0 0 0 0 0 0 0 0 0 0 0 0 0 0 127 0" result="hardAlpha"/>
<feOffset dy="2.33655"/>
<feGaussianBlur stdDeviation="0.584137"/>
<feComposite in2="hardAlpha" operator="arithmetic" k2="-1" k3="1"/>
<feColorMatrix type="matrix" values="0 0 0 0 0.78638 0 0 0 0 0.830606 0 0 0 0 0.9854 0 0 0 0.1 0"/>
<feBlend mode="normal" in2="shape" result="effect1_innerShadow_1645_2081"/>
<feColorMatrix in="SourceAlpha" type="matrix" values="0 0 0 0 0 0 0 0 0 0 0 0 0 0 0 0 0 0 127 0" result="hardAlpha"/>
<feOffset dy="-1.16827"/>
<feGaussianBlur stdDeviation="0.584137"/>
<feComposite in2="hardAlpha" operator="arithmetic" k2="-1" k3="1"/>
<feColorMatrix type="matrix" values="0 0 0 0 0.0636856 0 0 0 0 0.181279 0 0 0 0 0.592855 0 0 0 0.1 0"/>
<feBlend mode="normal" in2="effect1_innerShadow_1645_2081" result="effect2_innerShadow_1645_2081"/>
<feColorMatrix in="SourceAlpha" type="matrix" values="0 0 0 0 0 0 0 0 0 0 0 0 0 0 0 0 0 0 127 0" result="hardAlpha"/>
<feOffset dy="2.33655"/>
<feGaussianBlur stdDeviation="0.584137"/>
<feComposite in2="hardAlpha" operator="arithmetic" k2="-1" k3="1"/>
<feColorMatrix type="matrix" values="0 0 0 0 0.78638 0 0 0 0 0.830606 0 0 0 0 0.9854 0 0 0 0.1 0"/>
<feBlend mode="normal" in2="effect2_innerShadow_1645_2081" result="effect3_innerShadow_1645_2081"/>
<feColorMatrix in="SourceAlpha" type="matrix" values="0 0 0 0 0 0 0 0 0 0 0 0 0 0 0 0 0 0 127 0" result="hardAlpha"/>
<feOffset dy="-1.16827"/>
<feGaussianBlur stdDeviation="0.584137"/>
<feComposite in2="hardAlpha" operator="arithmetic" k2="-1" k3="1"/>
<feColorMatrix type="matrix" values="0 0 0 0 0.0636856 0 0 0 0 0.181279 0 0 0 0 0.592855 0 0 0 0.1 0"/>
<feBlend mode="normal" in2="effect3_innerShadow_1645_2081" result="effect4_innerShadow_1645_2081"/>
</filter>
<radialGradient id="paint0_radial_1645_2081" cx="0" cy="0" r="1" gradientUnits="userSpaceOnUse" gradientTransform="translate(73.3727 -5.73149) rotate(55.8616) scale(274.078 279.367)">
<stop stop-color="white" stop-opacity="0.6"/>
<stop offset="1" stop-color="white" stop-opacity="0.2"/>
</radialGradient>
<linearGradient id="paint1_linear_1645_2081" x1="212.158" y1="171.972" x2="139.574" y2="41.3596" gradientUnits="userSpaceOnUse">
<stop stop-color="white"/>
<stop offset="1" stop-color="white" stop-opacity="0"/>
</linearGradient>
<linearGradient id="paint2_linear_1645_2081" x1="44.4259" y1="198.131" x2="195.504" y2="198.488" gradientUnits="userSpaceOnUse">
<stop stop-color="white"/>
<stop offset="1" stop-color="white" stop-opacity="0"/>
</linearGradient>
<linearGradient id="paint3_linear_1645_2081" x1="105.437" y1="32.033" x2="32.9816" y2="162.18" gradientUnits="userSpaceOnUse">
<stop stop-color="white"/>
<stop offset="1" stop-color="white" stop-opacity="0"/>
</linearGradient>
<linearGradient id="paint4_linear_1645_2081" x1="79.2089" y1="142.825" x2="79.2089" y2="166.191" gradientUnits="userSpaceOnUse">
<stop stop-color="#4064E2"/>
<stop offset="1" stop-color="#3556CA"/>
</linearGradient>
<radialGradient id="paint5_radial_1645_2081" cx="0" cy="0" r="1" gradientUnits="userSpaceOnUse" gradientTransform="translate(74.1122 141.431) rotate(58.6589) scale(32.2598 31.4485)">
<stop stop-color="white" stop-opacity="0.6"/>
<stop offset="1" stop-color="white" stop-opacity="0.2"/>
</radialGradient>
<linearGradient id="paint6_linear_1645_2081" x1="164.129" y1="143.312" x2="164.129" y2="165.704" gradientUnits="userSpaceOnUse">
<stop stop-color="#4064E2"/>
<stop offset="1" stop-color="#3556CA"/>
</linearGradient>
<radialGradient id="paint7_radial_1645_2081" cx="0" cy="0" r="1" gradientUnits="userSpaceOnUse" gradientTransform="translate(159.245 141.976) rotate(58.6589) scale(30.9158 30.1384)">
<stop stop-color="white" stop-opacity="0.6"/>
<stop offset="1" stop-color="white" stop-opacity="0.2"/>
</radialGradient>
<linearGradient id="paint8_linear_1645_2081" x1="118.928" y1="52.2831" x2="118.928" y2="77.5957" gradientUnits="userSpaceOnUse">
<stop stop-color="#4064E2"/>
<stop offset="1" stop-color="#3556CA"/>
</linearGradient>
<radialGradient id="paint9_radial_1645_2081" cx="0" cy="0" r="1" gradientUnits="userSpaceOnUse" gradientTransform="translate(115.105 50.7724) rotate(67.1392) scale(32.3931 25.4468)">
<stop stop-color="white" stop-opacity="0.6"/>
<stop offset="1" stop-color="white" stop-opacity="0.2"/>
</radialGradient>
</defs>
</svg>
