<svg width="2141" height="717" viewBox="0 0 2141 717" fill="none" xmlns="http://www.w3.org/2000/svg">
<g filter="url(#filter0_f_334_5989)">
<path d="M318 328.79V213.022C318 205.015 325.692 199.254 333.375 201.506L928.345 375.879C929.688 376.272 931.089 376.428 932.485 376.339L1275.02 354.469C1276.06 354.402 1277.09 354.2 1278.08 353.868L1731.95 201.375C1738.84 199.06 1746.19 203.353 1747.55 210.492L1770.15 328.4C1771.23 334.014 1768.19 339.607 1762.9 341.768L1550.26 428.585C1549.42 428.931 1548.53 429.178 1547.63 429.324L1004.09 516.599C1002.44 516.864 1000.76 516.782 999.148 516.36L326.961 340.398C321.682 339.016 318 334.247 318 328.79Z" fill="#737EA8" fill-opacity="0.15"/>
</g>
<g filter="url(#filter1_f_334_5989)">
<path d="M615.5 326C615.5 326 701.5 345.5 747 357.5C792.5 369.5 873 391 983.5 401.5" stroke="url(#paint0_linear_334_5989)" stroke-width="1.5" stroke-linecap="round"/>
</g>
<g filter="url(#filter2_f_334_5989)">
<path d="M540 332.5L623.5 364.5C697.524 391.083 742.74 403.676 819 422.5" stroke="url(#paint1_linear_334_5989)" stroke-width="1.5" stroke-linecap="round"/>
</g>
<g filter="url(#filter3_f_334_5989)">
<path d="M541.5 334L622.5 365.5C696.596 391.397 743.797 402.266 818.5 422" stroke="url(#paint2_linear_334_5989)" stroke-width="1.5" stroke-linecap="round"/>
</g>
<g filter="url(#filter4_f_334_5989)">
<path d="M765 475.5L854.045 494.941C931.679 507.562 976 516.271 1056.85 516.271" stroke="url(#paint3_linear_334_5989)" stroke-linecap="round"/>
</g>
<g opacity="0.6" filter="url(#filter5_f_334_5989)">
<path d="M765.5 474.5C765.5 474.5 848.5 495.5 853.252 496.103C858.005 496.706 974.005 515.867 1056.27 515.867" stroke="url(#paint4_linear_334_5989)" stroke-width="1.5" stroke-linecap="round"/>
</g>
<g filter="url(#filter6_f_334_5989)">
<path d="M31 46C31 46 614.19 370.559 1023 381.5C1467.1 393.386 2110 46 2110 46" stroke="url(#paint5_radial_334_5989)" stroke-opacity="0.4" stroke-linecap="round"/>
<path d="M31 46C31 46 614.19 370.559 1023 381.5C1467.1 393.386 2110 46 2110 46" stroke="url(#paint6_radial_334_5989)" stroke-opacity="0.4" stroke-linecap="round"/>
</g>
<g filter="url(#filter7_f_334_5989)">
<path d="M31 62C31 62 613.69 392.059 1022.5 403C1466.6 414.886 2110 62 2110 62" stroke="url(#paint7_radial_334_5989)" stroke-opacity="0.4" stroke-linecap="round"/>
<path d="M31 62C31 62 613.69 392.059 1022.5 403C1466.6 414.886 2110 62 2110 62" stroke="url(#paint8_radial_334_5989)" stroke-opacity="0.7" stroke-linecap="round"/>
</g>
<g filter="url(#filter8_f_334_5989)">
<path d="M31 100C31 100 613.69 430.059 1022.5 441C1466.6 452.886 2110 100 2110 100" stroke="url(#paint9_radial_334_5989)" stroke-opacity="0.4" stroke-linecap="round"/>
<path d="M31 100C31 100 613.69 430.059 1022.5 441C1466.6 452.886 2110 100 2110 100" stroke="url(#paint10_radial_334_5989)" stroke-opacity="0.7" stroke-linecap="round"/>
</g>
<g filter="url(#filter9_f_334_5989)">
<path d="M27 102.5C27 102.5 601.19 434.559 1010 445.5C1454.1 457.386 2114.5 84 2114.5 84" stroke="url(#paint11_radial_334_5989)" stroke-linecap="round"/>
</g>
<g filter="url(#filter10_f_334_5989)">
<path d="M25 115.5C25 115.5 607.19 450.559 1016 461.5C1460.1 473.386 2117 108.5 2117 108.5" stroke="url(#paint12_radial_334_5989)" stroke-opacity="0.7" stroke-linecap="round"/>
</g>
<g filter="url(#filter11_f_334_5989)">
<path d="M30 127.5C30 127.5 621.69 465.559 1030.5 476.5C1474.6 488.386 2112.5 107 2112.5 107" stroke="url(#paint13_radial_334_5989)" stroke-opacity="0.3" stroke-linecap="round"/>
</g>
<g filter="url(#filter12_f_334_5989)">
<path d="M17 148.5C17 148.5 591.19 498.559 1000 509.5C1444.1 521.386 2125 134.5 2125 134.5" stroke="url(#paint14_radial_334_5989)" stroke-opacity="0.4" stroke-linecap="round"/>
<path d="M17 148.5C17 148.5 591.19 498.559 1000 509.5C1444.1 521.386 2125 134.5 2125 134.5" stroke="url(#paint15_radial_334_5989)" stroke-opacity="0.4" stroke-linecap="round"/>
</g>
<g filter="url(#filter13_f_334_5989)">
<path d="M4 137C4 137 604.69 511.559 1013.5 522.5C1457.6 534.386 2137.5 149 2137.5 149" stroke="url(#paint16_radial_334_5989)" stroke-opacity="0.4" stroke-linecap="round"/>
</g>
<g filter="url(#filter14_f_334_5989)">
<path d="M13 156.5C13 156.5 600.19 505.059 1009 516C1453.1 527.886 2128 176 2128 176" stroke="url(#paint17_radial_334_5989)" stroke-opacity="0.4" stroke-linecap="round"/>
<path d="M13 156.5C13 156.5 600.19 505.059 1009 516C1453.1 527.886 2128 176 2128 176" stroke="url(#paint18_radial_334_5989)" stroke-opacity="0.4" stroke-linecap="round"/>
</g>
<g filter="url(#filter15_f_334_5989)">
<path d="M1654 305.5L1568.5 335C1494.48 361.583 1452.76 374.676 1376.5 393.5" stroke="url(#paint19_linear_334_5989)" stroke-width="1.5" stroke-linecap="round"/>
</g>
<path d="M1747.5 268L1569.81 335.88C1569.6 335.96 1569.41 336.029 1569.2 336.097C1562.6 338.198 1450.48 373.852 1378 393" stroke="url(#paint20_linear_334_5989)" stroke-width="2" stroke-linecap="round"/>
<path d="M1637.5 382C1637.5 382 1544 419.5 1514 429.5C1484 439.5 1401.5 462 1301 484" stroke="url(#paint21_linear_334_5989)" stroke-width="1.5" stroke-linecap="round"/>
<defs>
<filter id="filter0_f_334_5989" x="118" y="0.745117" width="1852.37" height="716.006" filterUnits="userSpaceOnUse" color-interpolation-filters="sRGB">
<feFlood flood-opacity="0" result="BackgroundImageFix"/>
<feBlend mode="normal" in="SourceGraphic" in2="BackgroundImageFix" result="shape"/>
<feGaussianBlur stdDeviation="100" result="effect1_foregroundBlur_334_5989"/>
</filter>
<filter id="filter1_f_334_5989" x="612.75" y="323.25" width="373.5" height="81" filterUnits="userSpaceOnUse" color-interpolation-filters="sRGB">
<feFlood flood-opacity="0" result="BackgroundImageFix"/>
<feBlend mode="normal" in="SourceGraphic" in2="BackgroundImageFix" result="shape"/>
<feGaussianBlur stdDeviation="1" result="effect1_foregroundBlur_334_5989"/>
</filter>
<filter id="filter2_f_334_5989" x="536.25" y="328.75" width="286.5" height="97.5" filterUnits="userSpaceOnUse" color-interpolation-filters="sRGB">
<feFlood flood-opacity="0" result="BackgroundImageFix"/>
<feBlend mode="normal" in="SourceGraphic" in2="BackgroundImageFix" result="shape"/>
<feGaussianBlur stdDeviation="1.5" result="effect1_foregroundBlur_334_5989"/>
</filter>
<filter id="filter3_f_334_5989" x="538.75" y="331.25" width="282.5" height="93.5" filterUnits="userSpaceOnUse" color-interpolation-filters="sRGB">
<feFlood flood-opacity="0" result="BackgroundImageFix"/>
<feBlend mode="normal" in="SourceGraphic" in2="BackgroundImageFix" result="shape"/>
<feGaussianBlur stdDeviation="1" result="effect1_foregroundBlur_334_5989"/>
</filter>
<filter id="filter4_f_334_5989" x="761.5" y="472" width="298.849" height="47.7715" filterUnits="userSpaceOnUse" color-interpolation-filters="sRGB">
<feFlood flood-opacity="0" result="BackgroundImageFix"/>
<feBlend mode="normal" in="SourceGraphic" in2="BackgroundImageFix" result="shape"/>
<feGaussianBlur stdDeviation="1.5" result="effect1_foregroundBlur_334_5989"/>
</filter>
<filter id="filter5_f_334_5989" x="762.75" y="471.75" width="296.274" height="46.8672" filterUnits="userSpaceOnUse" color-interpolation-filters="sRGB">
<feFlood flood-opacity="0" result="BackgroundImageFix"/>
<feBlend mode="normal" in="SourceGraphic" in2="BackgroundImageFix" result="shape"/>
<feGaussianBlur stdDeviation="1" result="effect1_foregroundBlur_334_5989"/>
</filter>
<filter id="filter6_f_334_5989" x="27.5" y="42.5" width="2086" height="342.798" filterUnits="userSpaceOnUse" color-interpolation-filters="sRGB">
<feFlood flood-opacity="0" result="BackgroundImageFix"/>
<feBlend mode="normal" in="SourceGraphic" in2="BackgroundImageFix" result="shape"/>
<feGaussianBlur stdDeviation="1.5" result="effect1_foregroundBlur_334_5989"/>
</filter>
<filter id="filter7_f_334_5989" x="27.5" y="58.5" width="2086" height="348.294" filterUnits="userSpaceOnUse" color-interpolation-filters="sRGB">
<feFlood flood-opacity="0" result="BackgroundImageFix"/>
<feBlend mode="normal" in="SourceGraphic" in2="BackgroundImageFix" result="shape"/>
<feGaussianBlur stdDeviation="1.5" result="effect1_foregroundBlur_334_5989"/>
</filter>
<filter id="filter8_f_334_5989" x="27.5" y="96.5" width="2086" height="348.294" filterUnits="userSpaceOnUse" color-interpolation-filters="sRGB">
<feFlood flood-opacity="0" result="BackgroundImageFix"/>
<feBlend mode="normal" in="SourceGraphic" in2="BackgroundImageFix" result="shape"/>
<feGaussianBlur stdDeviation="1.5" result="effect1_foregroundBlur_334_5989"/>
</filter>
<filter id="filter9_f_334_5989" x="23.5" y="80.5" width="2094.5" height="368.778" filterUnits="userSpaceOnUse" color-interpolation-filters="sRGB">
<feFlood flood-opacity="0" result="BackgroundImageFix"/>
<feBlend mode="normal" in="SourceGraphic" in2="BackgroundImageFix" result="shape"/>
<feGaussianBlur stdDeviation="1.5" result="effect1_foregroundBlur_334_5989"/>
</filter>
<filter id="filter10_f_334_5989" x="21.5" y="105" width="2099" height="360.284" filterUnits="userSpaceOnUse" color-interpolation-filters="sRGB">
<feFlood flood-opacity="0" result="BackgroundImageFix"/>
<feBlend mode="normal" in="SourceGraphic" in2="BackgroundImageFix" result="shape"/>
<feGaussianBlur stdDeviation="1.5" result="effect1_foregroundBlur_334_5989"/>
</filter>
<filter id="filter11_f_334_5989" x="26.5" y="103.5" width="2089.5" height="376.772" filterUnits="userSpaceOnUse" color-interpolation-filters="sRGB">
<feFlood flood-opacity="0" result="BackgroundImageFix"/>
<feBlend mode="normal" in="SourceGraphic" in2="BackgroundImageFix" result="shape"/>
<feGaussianBlur stdDeviation="1.5" result="effect1_foregroundBlur_334_5989"/>
</filter>
<filter id="filter12_f_334_5989" x="13.5" y="131" width="2115" height="382.269" filterUnits="userSpaceOnUse" color-interpolation-filters="sRGB">
<feFlood flood-opacity="0" result="BackgroundImageFix"/>
<feBlend mode="normal" in="SourceGraphic" in2="BackgroundImageFix" result="shape"/>
<feGaussianBlur stdDeviation="1.5" result="effect1_foregroundBlur_334_5989"/>
</filter>
<filter id="filter13_f_334_5989" x="0.5" y="133.5" width="2140.5" height="392.77" filterUnits="userSpaceOnUse" color-interpolation-filters="sRGB">
<feFlood flood-opacity="0" result="BackgroundImageFix"/>
<feBlend mode="normal" in="SourceGraphic" in2="BackgroundImageFix" result="shape"/>
<feGaussianBlur stdDeviation="1.5" result="effect1_foregroundBlur_334_5989"/>
</filter>
<filter id="filter14_f_334_5989" x="9.5" y="153" width="2122" height="366.795" filterUnits="userSpaceOnUse" color-interpolation-filters="sRGB">
<feFlood flood-opacity="0" result="BackgroundImageFix"/>
<feBlend mode="normal" in="SourceGraphic" in2="BackgroundImageFix" result="shape"/>
<feGaussianBlur stdDeviation="1.5" result="effect1_foregroundBlur_334_5989"/>
</filter>
<filter id="filter15_f_334_5989" x="1372.75" y="301.75" width="285" height="95.5" filterUnits="userSpaceOnUse" color-interpolation-filters="sRGB">
<feFlood flood-opacity="0" result="BackgroundImageFix"/>
<feBlend mode="normal" in="SourceGraphic" in2="BackgroundImageFix" result="shape"/>
<feGaussianBlur stdDeviation="1.5" result="effect1_foregroundBlur_334_5989"/>
</filter>
<linearGradient id="paint0_linear_334_5989" x1="963" y1="413" x2="690.5" y2="325" gradientUnits="userSpaceOnUse">
<stop stop-color="#718FFF"/>
<stop offset="1" stop-color="#7F96F0" stop-opacity="0"/>
<stop offset="1" stop-color="#7F96F0" stop-opacity="0"/>
</linearGradient>
<linearGradient id="paint1_linear_334_5989" x1="819" y1="423" x2="540.5" y2="335.5" gradientUnits="userSpaceOnUse">
<stop stop-color="#718FFF"/>
<stop offset="1" stop-color="#7F96F0" stop-opacity="0"/>
<stop offset="1" stop-color="#7F96F0" stop-opacity="0"/>
</linearGradient>
<linearGradient id="paint2_linear_334_5989" x1="819" y1="420" x2="540.5" y2="335.5" gradientUnits="userSpaceOnUse">
<stop stop-color="#718FFF"/>
<stop offset="1" stop-color="#7F96F0" stop-opacity="0"/>
</linearGradient>
<linearGradient id="paint3_linear_334_5989" x1="1056.94" y1="516.764" x2="756.502" y2="472" gradientUnits="userSpaceOnUse">
<stop stop-color="#718FFF"/>
<stop offset="1" stop-color="#7F96F0" stop-opacity="0"/>
</linearGradient>
<linearGradient id="paint4_linear_334_5989" x1="1056.4" y1="513.813" x2="765.504" y2="474" gradientUnits="userSpaceOnUse">
<stop stop-color="#718FFF"/>
<stop offset="1" stop-color="#7F96F0" stop-opacity="0"/>
</linearGradient>
<radialGradient id="paint5_radial_334_5989" cx="0" cy="0" r="1" gradientUnits="userSpaceOnUse" gradientTransform="translate(617.016 25.9587) rotate(14.8542) scale(1544.6 839.903)">
<stop stop-color="#A4B2E7" stop-opacity="0.8"/>
<stop offset="1" stop-color="#A4B2E7" stop-opacity="0.2"/>
</radialGradient>
<radialGradient id="paint6_radial_334_5989" cx="0" cy="0" r="1" gradientUnits="userSpaceOnUse" gradientTransform="translate(1295.33 240.92) rotate(30.1778) scale(336.98 188.37)">
<stop stop-color="#4165EC" stop-opacity="0.92"/>
<stop offset="1" stop-color="#A4B2E7" stop-opacity="0.99"/>
</radialGradient>
<radialGradient id="paint7_radial_334_5989" cx="0" cy="0" r="1" gradientUnits="userSpaceOnUse" gradientTransform="translate(617.016 41.6307) rotate(15.0863) scale(1546.28 852.725)">
<stop stop-color="#A4B2E7" stop-opacity="0.8"/>
<stop offset="1" stop-color="#A4B2E7" stop-opacity="0.2"/>
</radialGradient>
<radialGradient id="paint8_radial_334_5989" cx="0" cy="0" r="1" gradientUnits="userSpaceOnUse" gradientTransform="translate(1295.33 260.11) rotate(30.5835) scale(338.382 190.66)">
<stop stop-color="#4165EC" stop-opacity="0.92"/>
<stop offset="1" stop-color="#A4B2E7" stop-opacity="0.99"/>
</radialGradient>
<radialGradient id="paint9_radial_334_5989" cx="0" cy="0" r="1" gradientUnits="userSpaceOnUse" gradientTransform="translate(617.016 79.6307) rotate(15.0863) scale(1546.28 852.725)">
<stop stop-color="#A4B2E7" stop-opacity="0.8"/>
<stop offset="1" stop-color="#A4B2E7" stop-opacity="0.2"/>
</radialGradient>
<radialGradient id="paint10_radial_334_5989" cx="0" cy="0" r="1" gradientUnits="userSpaceOnUse" gradientTransform="translate(1295.33 298.11) rotate(30.5835) scale(338.382 190.66)">
<stop stop-color="#4165EC" stop-opacity="0.92"/>
<stop offset="1" stop-color="#A4B2E7" stop-opacity="0.99"/>
</radialGradient>
<radialGradient id="paint11_radial_334_5989" cx="0" cy="0" r="1" gradientUnits="userSpaceOnUse" gradientTransform="translate(1296.5 294) rotate(31.9613) scale(344.764 199.173)">
<stop stop-color="#4165EC" stop-opacity="0.92"/>
<stop offset="1" stop-color="#A4B2E7" stop-opacity="0.99"/>
</radialGradient>
<radialGradient id="paint12_radial_334_5989" cx="0" cy="0" r="1" gradientUnits="userSpaceOnUse" gradientTransform="translate(1297.24 313.57) rotate(31.2985) scale(343.054 195.888)">
<stop stop-color="#4165EC" stop-opacity="0.92"/>
<stop offset="1" stop-color="#A4B2E7" stop-opacity="0.99"/>
</radialGradient>
<radialGradient id="paint13_radial_334_5989" cx="0" cy="0" r="1" gradientUnits="userSpaceOnUse" gradientTransform="translate(617.003 84.931) rotate(16.2549) scale(1557.77 918.607)">
<stop stop-color="#A4B2E7" stop-opacity="0.8"/>
<stop offset="1" stop-color="#A4B2E7" stop-opacity="0.2"/>
</radialGradient>
<radialGradient id="paint14_radial_334_5989" cx="0" cy="0" r="1" gradientUnits="userSpaceOnUse" gradientTransform="translate(611.19 112.103) rotate(16.2947) scale(1577.16 932.072)">
<stop stop-color="#A4B2E7" stop-opacity="0.8"/>
<stop offset="1" stop-color="#A4B2E7" stop-opacity="0.2"/>
</radialGradient>
<radialGradient id="paint15_radial_334_5989" cx="0" cy="0" r="1" gradientUnits="userSpaceOnUse" gradientTransform="translate(1298.97 352.331) rotate(32.656) scale(350.83 205.022)">
<stop stop-color="#4165EC" stop-opacity="0.92"/>
<stop offset="1" stop-color="#A4B2E7" stop-opacity="0.99"/>
</radialGradient>
<radialGradient id="paint16_radial_334_5989" cx="0" cy="0" r="1" gradientUnits="userSpaceOnUse" gradientTransform="translate(605.378 113.976) rotate(16.5366) scale(1598.23 956.962)">
<stop stop-color="#A4B2E7" stop-opacity="0.8"/>
<stop offset="1" stop-color="#A4B2E7" stop-opacity="0.2"/>
</radialGradient>
<radialGradient id="paint17_radial_334_5989" cx="0" cy="0" r="1" gradientUnits="userSpaceOnUse" gradientTransform="translate(609.164 135.027) rotate(15.6071) scale(1576.98 896.709)">
<stop stop-color="#A4B2E7" stop-opacity="0.8"/>
<stop offset="1" stop-color="#A4B2E7" stop-opacity="0.2"/>
</radialGradient>
<radialGradient id="paint18_radial_334_5989" cx="0" cy="0" r="1" gradientUnits="userSpaceOnUse" gradientTransform="translate(1484 446) rotate(172.057) scale(586.124 335.806)">
<stop stop-color="#BDC9F4" stop-opacity="0.92"/>
<stop offset="1" stop-color="#516ACA" stop-opacity="0.99"/>
</radialGradient>
<linearGradient id="paint19_linear_334_5989" x1="1487" y1="363" x2="1651.5" y2="306" gradientUnits="userSpaceOnUse">
<stop stop-color="#718FFF"/>
<stop offset="1" stop-color="#7F96F0" stop-opacity="0"/>
<stop offset="1" stop-color="#7F96F0" stop-opacity="0"/>
</linearGradient>
<linearGradient id="paint20_linear_334_5989" x1="1379" y1="394" x2="1651.5" y2="306" gradientUnits="userSpaceOnUse">
<stop stop-color="#A8B9FA"/>
<stop offset="1" stop-color="#7F96F0" stop-opacity="0"/>
<stop offset="1" stop-color="#7F96F0" stop-opacity="0"/>
</linearGradient>
<linearGradient id="paint21_linear_334_5989" x1="1301.5" y1="484" x2="1574" y2="396" gradientUnits="userSpaceOnUse">
<stop stop-color="#A8BAFF"/>
<stop offset="1" stop-color="#7F96F0" stop-opacity="0"/>
<stop offset="1" stop-color="#7F96F0" stop-opacity="0"/>
</linearGradient>
</defs>
</svg>
