<svg version="1" xmlns="http://www.w3.org/2000/svg" width="346.667" height="346.667" viewBox="0 0 260.000000 260.000000"><path d="M15.7 11.9c-.6.2-1.5.9-1.9 1.5-.4.6-.8 24.4-.8 52.8 0 48.3.1 51.8 1.7 52.6 2.9 1.3 34.1.8 35.5-.6.8-.8 1.2-6.3 1.2-18.2 0-9.3.3-17.1.6-17.1.3-.1 6.9-.2 14.8-.3l14.2-.2v17.1c0 9.3.4 17.6.9 18.4 1.2 1.9 33.5 2.3 36 .4 1.4-1 1.6-6.3 1.6-52.3.1-35.9-.3-51.7-1-52.7-1.6-2.1-32.8-2.5-35.6-.5C81.2 14 81 15.6 81 30.4c0 12.3-.3 16.5-1.2 16.8-1.1.3-22.2.2-26.8-.1-1.4-.1-1.6-2.5-1.6-16.6 0-10.7-.4-16.9-1.1-17.6-1.1-1.1-31.6-1.9-34.6-1zM139.4 11.9c-4.1.7-4.4 1.8-4.4 16.7 0 13.1.2 14.4 1.9 15.4 1.1.6 9 1 18.3 1h16.3v35.7c0 30.6.2 36 1.5 37.3 2 2 34.3 2.1 36.2.2 1-1 1.3-9.8 1.4-36.8 0-19.5.3-35.6.6-35.9.2-.3 7.9-.5 16.9-.6 9.6-.1 16.9-.5 17.7-1.1.8-.8 1.2-5.1 1.2-15.3 0-11.6-.3-14.5-1.5-15.5s-12.8-1.3-52.9-1.4c-28.2-.1-52.1.1-53.2.3zM14.3 141.8c-1.8 1.9-1.9 29.7 0 30.9.6.4 8.6.8 17.7.9 9.1.1 16.7.2 17 .3.3.1.4 16.1.4 35.6-.1 26.6.2 35.9 1.1 37.2 1.1 1.4 3.5 1.6 18.4 1.6 11.8 0 17.6-.4 18.4-1.2.9-.9 1.2-10.9 1.2-37.1 0-19.8.2-36 .5-36.1.3-.1 8.1-.2 17.3-.3 13.6-.1 17-.4 17.7-1.6.5-.8 1-7.6 1-15.1 0-11.4-.3-13.9-1.6-15-2.4-2-107.1-2-109.1-.1zM144.8 140.9c-.7.2-1.6.9-2 1.5-.4.6-.8 24.1-.8 52.2 0 44.6.2 51.3 1.5 52.4 2.2 1.8 34.8 1.8 36.9 0 1.2-.9 1.6-4.4 1.8-16.8l.3-15.6 14-.2c16.7-.2 21.8-.8 29.2-3.4 13.9-4.9 21.6-17 21.2-33.4-.4-17.1-11-29.8-29.4-35.2-5.1-1.5-10.7-1.7-38.7-1.8-18-.1-33.3.1-34 .3zm59.7 29.3c3.6 1.6 5.1 7.6 2.9 11.9-1.8 3.6-3 3.9-15 3.9H182v-17h10c5.4 0 11.1.5 12.5 1.2z"/></svg>