<?xml version="1.0" standalone="no"?>
<!DOCTYPE svg PUBLIC "-//W3C//DTD SVG 20010904//EN"
 "http://www.w3.org/TR/2001/REC-SVG-20010904/DTD/svg10.dtd">
<svg version="1.0" xmlns="http://www.w3.org/2000/svg"
 width="700.000000pt" height="700.000000pt" viewBox="0 0 700.000000 700.000000"
 preserveAspectRatio="xMidYMid meet">
<metadata>
Created by potrace 1.14, written by Peter Selinger 2001-2017
</metadata>
<g transform="translate(0.000000,700.000000) scale(0.100000,-0.100000)"
fill="#000000" stroke="none">
<path d="M1229 6996 c-2 -2 -26 -6 -54 -10 -281 -34 -559 -172 -773 -385 -209
-207 -349 -484 -389 -771 -4 -30 -8 -1079 -8 -2330 l0 -2275 23 -110 c28 -133
66 -244 123 -356 77 -156 142 -243 273 -374 185 -184 436 -316 686 -361 19 -4
44 -9 55 -12 11 -3 362 -7 780 -9 712 -3 762 -2 795 14 26 13 38 28 47 58 7
22 33 112 58 200 55 191 84 288 160 540 31 105 63 210 70 235 29 99 148 497
175 585 10 33 32 105 48 160 16 55 55 186 87 290 31 105 61 204 65 220 9 34
385 1288 430 1435 16 52 108 361 205 685 199 669 226 758 260 870 22 72 60
199 102 342 19 63 11 98 -26 121 -25 15 -62 17 -332 16 -366 0 -356 2 -387
-101 -24 -79 -170 -584 -182 -628 -5 -16 -16 -55 -25 -85 -9 -30 -18 -62 -20
-70 -2 -8 -30 -107 -63 -220 -57 -194 -187 -646 -308 -1065 -55 -190 -88 -303
-125 -425 -11 -36 -21 -74 -24 -85 -3 -16 -81 -287 -167 -580 -6 -22 -13 -44
-14 -50 -1 -5 -14 -48 -28 -95 -31 -105 -226 -779 -231 -800 -6 -23 -183 -632
-214 -735 l-27 -90 -490 -1 c-533 0 -564 2 -681 56 -35 16 -84 43 -109 61 -95
65 -210 203 -237 284 -5 16 -13 35 -17 40 -35 50 -35 50 -35 2345 0 2419 -4
2227 47 2360 36 94 136 216 233 285 83 59 129 80 221 104 78 20 101 21 1697
21 1771 0 1637 -5 1704 59 26 26 44 70 117 288 47 142 86 266 86 276 0 10 -13
32 -29 48 l-30 29 -1759 0 c-967 0 -1761 -2 -1763 -4z"/>
<path d="M5338 6983 c-32 -22 -76 -72 -83 -93 -2 -8 -42 -148 -89 -310 -109
-378 -176 -611 -271 -940 -42 -146 -78 -272 -80 -280 -2 -8 -14 -46 -25 -85
-12 -38 -30 -99 -40 -135 -10 -36 -56 -198 -103 -360 -47 -162 -122 -419 -165
-570 -44 -151 -124 -426 -177 -610 -54 -184 -101 -348 -105 -365 -8 -31 -118
-410 -235 -810 -37 -126 -75 -259 -85 -295 -10 -36 -39 -137 -65 -225 -25 -88
-48 -167 -50 -175 -2 -8 -34 -118 -70 -244 -95 -325 -113 -307 312 -304 370 4
345 -6 390 160 17 62 52 185 78 273 26 88 48 167 50 175 5 17 117 403 195 670
59 201 66 222 78 270 5 19 49 170 97 335 48 165 102 354 121 419 19 66 59 203
89 305 29 103 87 303 129 446 41 143 86 298 100 345 13 47 67 234 120 415 52
182 123 425 156 540 34 116 74 255 90 310 116 412 114 405 133 405 11 0 57
-18 104 -40 154 -72 248 -164 311 -305 53 -117 51 -11 49 -2400 l-2 -2220 -28
-79 c-79 -224 -271 -399 -492 -447 -47 -10 -295 -13 -1145 -14 -727 -2 -1093
-5 -1110 -12 -14 -6 -32 -18 -39 -27 -8 -9 -56 -144 -108 -299 -93 -281 -94
-282 -77 -314 9 -18 28 -36 43 -41 27 -9 2441 -8 2477 1 12 3 38 8 58 11 271
43 546 192 749 406 198 208 332 484 364 747 4 37 8 1087 8 2333 0 2417 3 2256
-39 2435 -28 123 -124 323 -213 447 -52 72 -182 213 -242 261 -116 94 -294
191 -431 237 -151 51 -224 61 -470 66 -218 5 -237 4 -262 -13z"/>
<path d="M1984 4809 c-118 -11 -215 -82 -255 -187 -18 -48 -21 -78 -21 -182 0
-137 12 -187 59 -249 37 -48 60 -67 113 -94 40 -19 63 -22 191 -24 145 -3 147
-2 208 28 120 60 168 149 170 317 2 99 1 106 -33 175 -83 172 -212 237 -432
216z"/>
<path d="M1872 3114 c-45 -23 -77 -48 -99 -77 -54 -72 -65 -116 -65 -262 0
-118 2 -135 25 -187 33 -75 91 -131 164 -158 48 -18 80 -22 178 -23 166 -1
245 29 311 117 50 65 63 116 61 241 -2 96 -5 117 -28 166 -15 31 -44 75 -64
98 -85 94 -151 119 -305 120 -106 0 -113 -2 -178 -35z"/>
</g>
</svg>
