<svg width="170" height="27" viewBox="0 0 170 27" fill="none" xmlns="http://www.w3.org/2000/svg">
  <g clip-path="url(#clip0_3001_1957)">
    <path d="M7.8593 15.0947H7.42768C6.80194 15.0947 6.29468 15.6005 6.29468 16.2244V16.6547C6.29468 17.2786 6.80194 17.7844 7.42768 17.7844H7.8593C8.48504 17.7844 8.9923 17.2786 8.9923 16.6547V16.2244C8.9923 15.6005 8.48504 15.0947 7.8593 15.0947Z" fill="#EC502D" />
    <path d="M7.8593 8.81885H7.42768C6.80194 8.81885 6.29468 9.32461 6.29468 9.9485V10.3788C6.29468 11.0027 6.80194 11.5085 7.42768 11.5085H7.8593C8.48504 11.5085 8.9923 11.0027 8.9923 10.3788V9.9485C8.9923 9.32461 8.48504 8.81885 7.8593 8.81885Z" fill="#EC502D" />
    <path d="M20.9507 0.75C23.7822 0.75 26.0771 3.0382 26.0771 5.86134V21.6387C26.0771 24.4618 23.7822 26.75 20.9507 26.75H12.5531C12.3642 26.75 12.2284 26.5697 12.2813 26.3894L12.8688 24.3662C12.9218 24.1849 13.0876 24.0603 13.2764 24.0603H20.9886C22.3095 24.0603 23.3805 22.9925 23.3805 21.6755V5.82448C23.3805 4.74165 22.6572 3.82916 21.666 3.53728L16.2758 21.9624C16.2228 22.1427 16.057 22.2672 15.8682 22.2672H13.8669C13.6781 22.2672 13.5422 22.0869 13.5952 21.9056L19.6638 1.15644C19.7347 0.915364 19.9555 0.75 20.2073 0.75H20.9507Z" fill="#EC502D" />
    <path d="M13.8987 5.53759L8.48051 24.0603H5.08951C3.76867 24.0603 2.69762 22.9925 2.69762 21.6755V5.82448C2.69762 4.50755 3.76867 3.43966 5.08951 3.43966H16.8851C17.0739 3.43966 17.2408 3.31513 17.2927 3.13383L17.8792 1.11061C17.9312 0.930307 17.7953 0.75 17.6075 0.75H5.12647C2.29497 0.75 0 3.0382 0 5.86134V21.6387C0 24.4618 2.29497 26.75 5.12647 26.75H9.9662C10.218 26.75 10.4398 26.5846 10.5097 26.3436L16.5794 5.59437C16.6323 5.41406 16.4964 5.23276 16.3076 5.23276H14.3064C14.1175 5.23276 13.9517 5.35728 13.8987 5.53759Z" fill="#EC502D" />
  </g>
  <path fill-rule="evenodd" clip-rule="evenodd" d="M56.4329 22.4521V8.11291H51.3942V5.0835H63.0909H65.0669H76.7636V8.11291H71.7249V22.4521H68.1295V8.11291H65.0669H63.0909H60.0283V22.4521H56.4329ZM78.3595 22.4521V5.0835H86.4366C87.5169 5.0835 88.3946 5.21814 89.0698 5.48742C89.7619 5.7567 90.2936 6.14379 90.665 6.64869C91.0364 7.13677 91.2895 7.73423 91.4246 8.4411C91.5765 9.14796 91.6525 9.94739 91.6525 10.8394C91.6525 11.6641 91.5849 12.4298 91.4499 13.1367C91.3317 13.8267 91.087 14.4326 90.7156 14.9543C90.3443 15.4761 89.8041 15.88 89.0952 16.1661C88.4031 16.4522 87.4831 16.5953 86.3353 16.5953H81.955V22.4521H78.3595ZM81.955 13.6668H84.9174C85.6432 13.6668 86.2171 13.6332 86.6391 13.5659C87.0611 13.4817 87.3734 13.3386 87.576 13.1367C87.7785 12.9347 87.9051 12.6486 87.9558 12.2784C88.0233 11.9081 88.057 11.4284 88.057 10.8394C88.057 10.2503 88.0233 9.77067 87.9558 9.40041C87.9051 9.03015 87.7785 8.74404 87.576 8.54208C87.3903 8.32329 87.0949 8.18023 86.6898 8.11291C86.2847 8.02876 85.7276 7.98668 85.0187 7.98668H81.955V13.6668ZM102.478 8.11291V22.4521H106.073V8.11291H111.112V5.0835H97.4389V8.11291H102.478ZM137.454 22.4522V5.09761H140.821V22.4522H137.454ZM143.414 5.09761V22.4521H146.756V17.3526H147.82L151.491 22.4521H155.264L150.529 15.7622L155.188 9.57712H151.542L147.82 14.6514H146.756V5.09761H143.414ZM163.695 22.4521V12.2783H161.214V9.57708H163.695V5.8408H167.063V9.57708H170V12.2783H167.063V22.4521H163.695ZM156.52 22.4521V9.57706H159.888V22.4521H156.52ZM126.611 22.452C127.354 22.5867 128.283 22.654 129.397 22.654C130.511 22.654 131.431 22.5867 132.157 22.452C132.899 22.3174 133.482 22.0986 133.904 21.7956C134.342 21.4927 134.655 21.0888 134.84 20.5839C135.043 20.079 135.17 19.4478 135.22 18.6905C135.288 17.9331 135.322 17.0327 135.322 15.9893C135.322 14.9458 135.288 14.0538 135.22 13.3133C135.17 12.5559 135.043 11.9248 134.84 11.4199C134.655 10.915 134.342 10.5111 133.904 10.2081C133.482 9.90519 132.899 9.69482 132.157 9.57701C131.431 9.44237 130.511 9.37505 129.397 9.37505C128.283 9.37505 127.354 9.44237 126.611 9.57701C125.869 9.69482 125.286 9.90519 124.864 10.2081C124.442 10.5111 124.13 10.915 123.928 11.4199C123.742 11.9248 123.615 12.5559 123.548 13.3133C123.497 14.0538 123.472 14.9458 123.472 15.9893C123.472 17.0327 123.497 17.9331 123.548 18.6905C123.615 19.4478 123.742 20.079 123.928 20.5839C124.13 21.0888 124.442 21.4927 124.864 21.7956C125.286 22.0986 125.869 22.3174 126.611 22.452ZM130.865 19.8265C130.511 19.9107 130.021 19.9527 129.397 19.9527C128.755 19.9527 128.257 19.9107 127.903 19.8265C127.548 19.7424 127.295 19.5741 127.143 19.3216C126.991 19.0523 126.898 18.6484 126.865 18.1099C126.848 17.5713 126.839 16.8644 126.839 15.9893C126.839 15.1141 126.848 14.4157 126.865 13.8939C126.898 13.3554 126.991 12.9599 127.143 12.7074C127.295 12.4381 127.548 12.2698 127.903 12.2025C128.257 12.1183 128.755 12.0763 129.397 12.0763C130.021 12.0763 130.511 12.1183 130.865 12.2025C131.237 12.2698 131.49 12.4381 131.625 12.7074C131.777 12.9599 131.87 13.3554 131.903 13.8939C131.937 14.4157 131.954 15.1141 131.954 15.9893C131.954 16.8644 131.937 17.5713 131.903 18.1099C131.87 18.6484 131.777 19.0523 131.625 19.3216C131.49 19.5741 131.237 19.7424 130.865 19.8265ZM115.87 22.654C114.756 22.654 113.828 22.5867 113.085 22.452C112.342 22.3174 111.76 22.0986 111.338 21.7956C110.916 21.4927 110.604 21.0888 110.401 20.5839C110.216 20.079 110.089 19.4478 110.022 18.6905C109.971 17.9331 109.946 17.0327 109.946 15.9893C109.946 14.9458 109.971 14.0538 110.022 13.3133C110.089 12.5559 110.216 11.9248 110.401 11.4199C110.604 10.915 110.916 10.5111 111.338 10.2081C111.76 9.90519 112.342 9.69482 113.085 9.57701C113.828 9.44237 114.756 9.37505 115.87 9.37505C116.984 9.37505 117.904 9.44237 118.63 9.57701C119.373 9.69482 119.955 9.90519 120.377 10.2081C120.816 10.5111 121.128 10.915 121.314 11.4199C121.517 11.9248 121.643 12.5559 121.694 13.3133C121.761 14.0538 121.795 14.9458 121.795 15.9893C121.795 17.0327 121.761 17.9331 121.694 18.6905C121.643 19.4478 121.517 20.079 121.314 20.5839C121.128 21.0888 120.816 21.4927 120.377 21.7956C119.955 22.0986 119.373 22.3174 118.63 22.452C117.904 22.5867 116.984 22.654 115.87 22.654ZM115.87 19.9527C116.495 19.9527 116.984 19.9107 117.339 19.8265C117.71 19.7424 117.964 19.5741 118.099 19.3216C118.25 19.0523 118.343 18.6484 118.377 18.1099C118.411 17.5713 118.428 16.8644 118.428 15.9893C118.428 15.1141 118.411 14.4157 118.377 13.8939C118.343 13.3554 118.25 12.9599 118.099 12.7074C117.964 12.4381 117.71 12.2698 117.339 12.2025C116.984 12.1183 116.495 12.0763 115.87 12.0763C115.229 12.0763 114.731 12.1183 114.377 12.2025C114.022 12.2698 113.769 12.4381 113.617 12.7074C113.465 12.9599 113.372 13.3554 113.338 13.8939C113.322 14.4157 113.313 15.1141 113.313 15.9893C113.313 16.8644 113.322 17.5713 113.338 18.1099C113.372 18.6484 113.465 19.0523 113.617 19.3216C113.769 19.5741 114.022 19.7424 114.377 19.8265C114.731 19.9107 115.229 19.9527 115.87 19.9527ZM35.6787 5.08369V22.4523H39.2741V15.2575H46.2118V22.4523H49.8072V5.08369H46.2118V12.1776H39.2741V5.08369H35.6787Z" fill="currentColor" />
  <defs>
    <clipPath id="clip0_3001_1957">
      <rect width="26.077" height="26" fill="white" transform="translate(0 0.75)" />
    </clipPath>
  </defs>
</svg>