<?xml version="1.0" encoding="UTF-8" standalone="no"?>
<!-- Created with Inkscape (http://www.inkscape.org/) -->

<svg
   xmlns:dc="http://purl.org/dc/elements/1.1/"
   xmlns:cc="http://creativecommons.org/ns#"
   xmlns:rdf="http://www.w3.org/1999/02/22-rdf-syntax-ns#"
   xmlns:svg="http://www.w3.org/2000/svg"
   xmlns="http://www.w3.org/2000/svg"
   xmlns:sodipodi="http://sodipodi.sourceforge.net/DTD/sodipodi-0.dtd"
   xmlns:inkscape="http://www.inkscape.org/namespaces/inkscape"
   width="104.83582mm"
   height="47.882313mm"
   viewBox="0 0 104.83582 47.882313"
   version="1.1"
   id="svg4624"
   inkscape:version="0.92.1 r15371"
   sodipodi:docname="logo.svg">
  <defs
     id="defs4618" />
  <sodipodi:namedview
     id="base"
     pagecolor="#ffffff"
     bordercolor="#666666"
     borderopacity="1.0"
     inkscape:pageopacity="0.0"
     inkscape:pageshadow="2"
     inkscape:zoom="1"
     inkscape:cx="33.52836"
     inkscape:cy="-39.071895"
     inkscape:document-units="mm"
     inkscape:current-layer="layer1"
     showgrid="false"
     inkscape:window-width="1920"
     inkscape:window-height="1058"
     inkscape:window-x="0"
     inkscape:window-y="22"
     inkscape:window-maximized="1" />
  <metadata
     id="metadata4621">
    <rdf:RDF>
      <cc:Work
         rdf:about="">
        <dc:format>image/svg+xml</dc:format>
        <dc:type
           rdf:resource="http://purl.org/dc/dcmitype/StillImage" />
        <dc:title></dc:title>
      </cc:Work>
    </rdf:RDF>
  </metadata>
  <g
     inkscape:label="Layer 1"
     inkscape:groupmode="layer"
     id="layer1"
     transform="translate(-56.140859,-90.613246)">
    <g
       id="g4624"
       transform="matrix(0.03709281,0,0,0.03709281,-124.84834,168.23546)"
       inkscape:export-filename="/home/tim/Dropbox/programming/proxy/toolkit-site/static/logo-facebook.png"
       inkscape:export-xdpi="6.145772"
       inkscape:export-ydpi="6.145772">
      <g
         id="text4495-6-94-2-3"
         style="font-style:normal;font-variant:normal;font-weight:normal;font-stretch:normal;font-size:540.23040771px;line-height:1.25;font-family:'Rubik Mono One';-inkscape-font-specification:'Rubik Mono One';letter-spacing:-58.88264847px;word-spacing:0px;fill:#e1421f;fill-opacity:1;stroke:none;stroke-width:4.05172825"
         transform="scale(0.98908074,1.0110398)"
         aria-label="TOOLKIT">
        <path
           inkscape:connector-curvature="0"
           id="path4997"
           style="font-style:normal;font-variant:normal;font-weight:normal;font-stretch:normal;font-size:540.23040771px;font-family:'Rubik Mono One';-inkscape-font-specification:'Rubik Mono One';letter-spacing:-58.88264847px;fill:#e1421f;fill-opacity:1;stroke-width:4.05172825"
           d="m 4947.8141,-1176.5788 h 372.759 q 5.9426,0 10.2644,4.3219 4.3218,4.3218 4.3218,10.2644 v 86.9771 q 0,5.9425 -4.3218,10.2643 -4.3218,4.3219 -10.2644,4.3219 h -116.1495 v 247.4255 q 0,5.94253 -4.3219,10.26438 -4.3218,4.32184 -10.2643,4.32184 h -111.2875 q -5.9425,0 -10.2644,-4.32184 -4.3218,-4.32185 -4.3218,-10.26438 v -247.4255 h -116.1496 q -5.9425,0 -10.2643,-4.3219 -4.3219,-4.3218 -4.3219,-10.2643 v -86.9771 q 0,-5.9426 4.3219,-10.2644 4.3218,-4.3219 10.2643,-4.3219 z" />
        <path
           inkscape:connector-curvature="0"
           id="path4999"
           style="font-style:normal;font-variant:normal;font-weight:normal;font-stretch:normal;font-size:540.23040771px;font-family:'Rubik Mono One';-inkscape-font-specification:'Rubik Mono One';letter-spacing:-58.88264847px;fill:#e1421f;fill-opacity:1;stroke-width:4.05172825"
           d="m 5748.0128,-1020.4522 v 65.90813 q 0,55.64373 -27.0115,92.91963 -27.0115,37.2759 -70.7702,52.94258 -43.7586,15.66668 -103.184,15.66668 -59.4253,0 -103.184,-15.66668 -43.7587,-15.66668 -70.7702,-52.94258 -27.0115,-37.2759 -27.0115,-94.00009 v -63.74717 q 0,-81.5748 55.6437,-122.0921 56.184,-40.5173 145.322,-40.5173 89.138,0 144.7818,40.5173 56.1839,40.5173 56.1839,121.0116 z m -256.0692,-10.2644 v 86.43691 q 0,22.14945 14.5862,34.03452 15.1265,11.88506 40.5173,11.88506 25.3908,0 39.9771,-11.88506 15.1264,-12.4253 15.1264,-34.57475 v -85.35638 q 0,-22.1495 -15.1264,-34.0345 -14.5863,-12.4253 -39.9771,-12.4253 -25.3908,0 -40.5173,11.885 -14.5862,11.8851 -14.5862,34.0345 z" />
        <path
           inkscape:connector-curvature="0"
           id="path5001"
           style="font-style:normal;font-variant:normal;font-weight:normal;font-stretch:normal;font-size:540.23040771px;font-family:'Rubik Mono One';-inkscape-font-specification:'Rubik Mono One';letter-spacing:-58.88264847px;fill:#e1421f;fill-opacity:1;stroke-width:4.05172825"
           d="m 6170.7305,-1020.4522 v 65.90813 q 0,55.64373 -27.0115,92.91963 -27.0115,37.2759 -70.7702,52.94258 -43.7587,15.66668 -103.184,15.66668 -59.4254,0 -103.184,-15.66668 -43.7587,-15.66668 -70.7702,-52.94258 -27.0115,-37.2759 -27.0115,-94.00009 v -63.74717 q 0,-81.5748 55.6437,-122.0921 56.184,-40.5173 145.322,-40.5173 89.138,0 144.7817,40.5173 56.184,40.5173 56.184,121.0116 z m -256.0692,-10.2644 v 86.43691 q 0,22.14945 14.5862,34.03452 15.1265,11.88506 40.5173,11.88506 25.3908,0 39.977,-11.88506 15.1265,-12.4253 15.1265,-34.57475 v -85.35638 q 0,-22.1495 -15.1265,-34.0345 -14.5862,-12.4253 -39.977,-12.4253 -25.3908,0 -40.5173,11.885 -14.5862,11.8851 -14.5862,34.0345 z" />
        <path
           inkscape:connector-curvature="0"
           id="path5003"
           style="font-style:normal;font-variant:normal;font-weight:normal;font-stretch:normal;font-size:540.23040771px;font-family:'Rubik Mono One';-inkscape-font-specification:'Rubik Mono One';letter-spacing:-58.88264847px;fill:#e1421f;fill-opacity:1;stroke-width:4.05172825"
           d="m 6342.8371,-909.16471 h 184.2186 q 5.9425,0 10.2644,4.32184 4.3218,4.32184 4.3218,10.26438 v 81.57479 q 0,5.94253 -4.3218,10.26438 -4.3219,4.32184 -10.2644,4.32184 h -315.4946 q -5.9425,0 -10.2643,-4.32184 -4.3219,-4.32185 -4.3219,-10.26438 v -348.9888 q 0,-5.9426 4.3219,-10.2644 4.3218,-4.3219 10.2643,-4.3219 h 116.6898 q 5.9425,0 10.2644,4.3219 4.3218,4.3218 4.3218,10.2644 z" />
        <path
           inkscape:connector-curvature="0"
           id="path5005"
           style="font-style:normal;font-variant:normal;font-weight:normal;font-stretch:normal;font-size:540.23040771px;font-family:'Rubik Mono One';-inkscape-font-specification:'Rubik Mono One';letter-spacing:-58.88264847px;fill:#e1421f;fill-opacity:1;stroke-width:4.05172825"
           d="m 6969.9876,-817.32554 q 2.1609,3.24138 2.1609,7.56322 0,4.32184 -3.7816,8.10346 -3.2414,3.24138 -8.1034,3.24138 H 6820.884 q -12.4253,0 -19.4483,-8.64369 l -94.0001,-116.14953 v 110.207 q 0,5.94253 -4.3218,10.26438 -4.3218,4.32184 -10.2644,4.32184 H 6581.562 q -5.9426,0 -10.2644,-4.32184 -4.3219,-4.32185 -4.3219,-10.26438 v -348.9888 q 0,-5.9426 4.3219,-10.2644 4.3218,-4.3219 10.2644,-4.3219 h 111.2874 q 5.9426,0 10.2644,4.3219 4.3218,4.3218 4.3218,10.2644 v 101.5633 l 85.3564,-106.9656 q 8.1035,-9.184 19.9886,-9.184 h 130.1955 q 4.8621,0 8.1035,3.7816 3.7816,3.2414 3.7816,8.1035 0,4.3218 -2.7012,7.5632 l -128.0346,156.1266 z" />
        <path
           inkscape:connector-curvature="0"
           id="path5007"
           style="font-style:normal;font-variant:normal;font-weight:normal;font-stretch:normal;font-size:540.23040771px;font-family:'Rubik Mono One';-inkscape-font-specification:'Rubik Mono One';letter-spacing:-58.88264847px;fill:#e1421f;fill-opacity:1;stroke-width:4.05172825"
           d="m 7334.1067,-1065.8315 h -97.7817 v 156.66679 h 97.7817 q 5.9425,0 10.2644,4.32184 4.3218,4.32184 4.3218,10.26438 v 81.57479 q 0,5.94253 -4.3218,10.26438 -4.3219,4.32184 -10.2644,4.32184 h -342.5061 q -5.9425,0 -10.2644,-4.32184 -4.3218,-4.32185 -4.3218,-10.26438 v -81.57479 q 0,-5.94254 4.3218,-10.26438 4.3219,-4.32184 10.2644,-4.32184 h 98.8622 v -156.66679 h -98.8622 q -5.9425,0 -10.2644,-4.3219 -4.3218,-4.3218 -4.3218,-10.2644 v -81.5747 q 0,-5.9426 4.3218,-10.2644 4.3219,-4.3219 10.2644,-4.3219 h 342.5061 q 5.9425,0 10.2644,4.3219 4.3218,4.3218 4.3218,10.2644 v 81.5747 q 0,5.9426 -4.3218,10.2644 -4.3219,4.3219 -10.2644,4.3219 z" />
        <path
           inkscape:connector-curvature="0"
           id="path5009"
           style="font-style:normal;font-variant:normal;font-weight:normal;font-stretch:normal;font-size:540.23040771px;font-family:'Rubik Mono One';-inkscape-font-specification:'Rubik Mono One';letter-spacing:-58.88264847px;fill:#e1421f;fill-opacity:1;stroke-width:4.05172825"
           d="m 7386.1198,-1176.5788 h 372.759 q 5.9425,0 10.2644,4.3219 4.3218,4.3218 4.3218,10.2644 v 86.9771 q 0,5.9425 -4.3218,10.2643 -4.3219,4.3219 -10.2644,4.3219 h -116.1496 v 247.4255 q 0,5.94253 -4.3218,10.26438 -4.3218,4.32184 -10.2644,4.32184 h -111.2874 q -5.9426,0 -10.2644,-4.32184 -4.3219,-4.32185 -4.3219,-10.26438 v -247.4255 h -116.1495 q -5.9425,0 -10.2644,-4.3219 -4.3218,-4.3218 -4.3218,-10.2643 v -86.9771 q 0,-5.9426 4.3218,-10.2644 4.3219,-4.3219 10.2644,-4.3219 z" />
      </g>
      <g
         inkscape:export-ydpi="1.5561962"
         inkscape:export-xdpi="1.5561962"
         id="text4491-4-81-2-7"
         style="font-style:normal;font-variant:normal;font-weight:bold;font-stretch:normal;font-size:551.27655029px;line-height:1.25;font-family:'Rubik Mono One';-inkscape-font-specification:'Rubik Mono One Bold';letter-spacing:0px;word-spacing:0px;fill:#e1421f;fill-opacity:1;stroke:none;stroke-width:4.13457394"
         transform="matrix(1.7633125,0,0,1.831278,-250.05292,-5272.9206)"
         aria-label="HTTP">
        <path
           inkscape:connector-curvature="0"
           id="path7194-53"
           style="letter-spacing:-40.21031952px;fill:#e1421f;fill-opacity:1;stroke-width:4.13457394"
           d="m 3177.4362,1736.6408 h 113.563 q 6.0641,0 10.4743,4.4103 4.4102,4.4102 4.4102,10.4742 V 2107.65 q 0,6.064 -4.4102,10.4742 -4.4102,4.4102 -10.4743,4.4102 h -113.563 q -6.064,0 -10.4742,-4.4102 -4.4102,-4.4102 -4.4102,-10.4742 V 1990.2281 H 3052.2965 V 2107.65 q 0,6.064 -4.4102,10.4742 -4.4103,4.4102 -10.4743,4.4102 h -113.563 q -6.064,0 -10.4742,-3.8589 -4.4102,-4.4102 -4.4102,-11.0255 v -356.1247 q 0,-6.064 4.4102,-10.4742 4.4102,-4.4103 10.4742,-4.4103 h 113.563 q 6.064,0 10.4743,4.4103 4.4102,4.4102 4.4102,10.4742 v 113.0117 h 110.2553 v -113.0117 q 0,-6.064 4.4102,-10.4742 4.4102,-4.4103 10.4742,-4.4103 z" />
        <path
           sodipodi:nodetypes="ccsscscscsscsccscsscscscssccc"
           inkscape:connector-curvature="0"
           id="path7196-5"
           transform="scale(0.2696342,0.25962708)"
           d="m 12407.154,6688.9824 c -14.993,0 -27.941,5.6616 -38.845,16.9864 -10.905,11.3244 -16.358,24.7726 -16.358,40.3437 v 341.8574 c 0,15.5713 5.453,29.0193 16.358,40.3438 10.904,11.3244 23.852,16.9863 38.845,16.9863 h 439.575 v 972.4902 c 0,15.5711 5.453,29.0193 16.357,40.3438 10.904,11.3244 23.852,16.9863 38.846,16.9863 h 421.173 c 14.994,0 27.942,-5.6619 38.846,-16.9863 10.904,-11.3245 16.358,-24.7727 16.358,-40.3438 V 7145.5 c 267.026,0 534.052,0 801.078,0 v 972.4902 c 0,15.5711 5.453,29.0193 16.357,40.3438 10.904,11.3244 23.852,16.9863 38.846,16.9863 h 421.174 c 14.993,0 27.943,-5.6619 38.847,-16.9863 10.904,-11.3245 16.356,-24.7727 16.356,-40.3438 V 7145.5 h 439.574 c 14.993,0 27.944,-5.6619 38.848,-16.9863 10.904,-11.3245 16.355,-24.7725 16.355,-40.3438 v -341.8574 c 0,-15.5711 -5.451,-29.0193 -16.355,-40.3437 -10.904,-11.3248 -23.855,-16.9864 -38.848,-16.9864 -914.462,0 -1828.925,0 -2743.387,0 z"
           style="letter-spacing:-109.03938293px;fill:#e1421f;fill-opacity:1;stroke-width:15.62673569" />
        <path
           inkscape:connector-curvature="0"
           id="path7200-6"
           style="font-style:normal;font-variant:normal;font-weight:bold;font-stretch:normal;font-size:551.27655029px;font-family:'Rubik Mono One';-inkscape-font-specification:'Rubik Mono One Bold';letter-spacing:-77.50056458px;fill:#e1421f;fill-opacity:1;stroke-width:4.13457394"
           d="m 4135.8358,1736.6408 h 206.1774 q 78.2813,0 124.0372,38.0381 45.756,38.0381 45.756,97.576 0,59.5378 -38.5894,94.8195 -38.5893,34.7305 -131.2038,34.7305 h -72.7685 V 2107.65 q 0,6.064 -4.4102,10.4742 -4.4102,4.4102 -10.4743,4.4102 h -118.5244 q -6.0641,0 -10.4743,-4.4102 -4.4102,-4.4102 -4.4102,-10.4742 v -356.1247 q 0,-6.064 4.4102,-10.4742 4.4102,-4.4103 10.4743,-4.4103 z m 133.9602,102.5375 v 60.6404 h 70.0121 q 12.6794,0 20.3972,-7.7179 8.2692,-7.7178 8.2692,-21.4998 0,-13.7819 -7.7179,-22.6023 -7.7178,-8.8204 -20.9485,-8.8204 z" />
      </g>
    </g>
  </g>
</svg>
