<svg viewBox="0 0 170 26" fill="none" xmlns="http://www.w3.org/2000/svg">
<g clip-path="url(#clip0_751_17333)">
<path d="M7.85924 14.3447H7.42762C6.80188 14.3447 6.29462 14.8505 6.29462 15.4744V15.9047C6.29462 16.5286 6.80188 17.0344 7.42762 17.0344H7.85924C8.48497 17.0344 8.99223 16.5286 8.99223 15.9047V15.4744C8.99223 14.8505 8.48497 14.3447 7.85924 14.3447Z" fill="currentColor"/>
<path d="M7.85924 8.06885H7.42762C6.80188 8.06885 6.29462 8.57461 6.29462 9.1985V9.62885C6.29462 10.2527 6.80188 10.7585 7.42762 10.7585H7.85924C8.48497 10.7585 8.99223 10.2527 8.99223 9.62885V9.1985C8.99223 8.57461 8.48497 8.06885 7.85924 8.06885Z" fill="currentColor"/>
<path d="M20.9506 0C23.7821 0 26.0771 2.2882 26.0771 5.11134V20.8887C26.0771 23.7118 23.7821 26 20.9506 26H12.553C12.3642 26 12.2283 25.8197 12.2813 25.6394L12.8687 23.6162C12.9217 23.4349 13.0875 23.3103 13.2764 23.3103H20.9886C22.3094 23.3103 23.3805 22.2425 23.3805 20.9255V5.07448C23.3805 3.99165 22.6571 3.07916 21.666 2.78728L16.2757 21.2124C16.2228 21.3927 16.0569 21.5172 15.8681 21.5172H13.8669C13.678 21.5172 13.5421 21.3369 13.5951 21.1556L19.6637 0.406437C19.7347 0.165364 19.9555 0 20.2073 0H20.9506Z" fill="currenColor"/>
<path d="M13.8987 4.78759L8.48051 23.3103H5.08951C3.76867 23.3103 2.69762 22.2425 2.69762 20.9255V5.07448C2.69762 3.75755 3.76867 2.68966 5.08951 2.68966H16.8851C17.0739 2.68966 17.2408 2.56513 17.2927 2.38383L17.8792 0.360613C17.9312 0.180307 17.7953 0 17.6075 0H5.12647C2.29497 0 0 2.2882 0 5.11134V20.8887C0 23.7118 2.29497 26 5.12647 26H9.9662C10.218 26 10.4398 25.8346 10.5097 25.5936L16.5794 4.84437C16.6323 4.66406 16.4964 4.48276 16.3076 4.48276H14.3064C14.1175 4.48276 13.9517 4.60728 13.8987 4.78759Z" fill="currentColor"/>
</g>
<path fill-rule="evenodd" clip-rule="evenodd" d="M56.4327 21.7021V7.36291H51.3941V4.3335H63.0907H65.0668H76.7634V7.36291H71.7248V21.7021H68.1294V7.36291H65.0668H63.0907H60.0282V21.7021H56.4327ZM78.3594 21.7021V4.3335H86.4364C87.5168 4.3335 88.3945 4.46814 89.0697 4.73742C89.7618 5.0067 90.2935 5.39379 90.6649 5.89869C91.0362 6.38677 91.2894 6.98423 91.4245 7.6911C91.5764 8.39796 91.6523 9.19739 91.6523 10.0894C91.6523 10.9141 91.5848 11.6798 91.4498 12.3867C91.3316 13.0767 91.0869 13.6826 90.7155 14.2043C90.3441 14.7261 89.804 15.13 89.095 15.4161C88.403 15.7022 87.483 15.8453 86.3352 15.8453H81.9548V21.7021H78.3594ZM81.9548 12.9168H84.9173C85.6431 12.9168 86.217 12.8832 86.639 12.8159C87.061 12.7317 87.3733 12.5886 87.5758 12.3867C87.7784 12.1847 87.905 11.8986 87.9556 11.5284C88.0232 11.1581 88.0569 10.6784 88.0569 10.0894C88.0569 9.50033 88.0232 9.02067 87.9556 8.65041C87.905 8.28015 87.7784 7.99404 87.5758 7.79208C87.3902 7.57329 87.0948 7.43023 86.6896 7.36291C86.2845 7.27876 85.7275 7.23668 85.0185 7.23668H81.9548V12.9168ZM102.477 7.36291V21.7021H106.073V7.36291H111.111V4.3335H97.4388V7.36291H102.477ZM137.454 21.7022V4.34761H140.821V21.7022H137.454ZM143.414 4.34761V21.7021H146.756V16.6026H147.82L151.491 21.7021H155.264L150.529 15.0122L155.188 8.82712H151.542L147.82 13.9014H146.756V4.34761H143.414ZM163.695 21.7021V11.5283H161.214V8.82708H163.695V5.0908H167.063V8.82708H170V11.5283H167.063V21.7021H163.695ZM156.52 21.7021V8.82706H159.888V21.7021H156.52ZM126.611 21.702C127.354 21.8367 128.282 21.904 129.397 21.904C130.511 21.904 131.431 21.8367 132.156 21.702C132.899 21.5674 133.481 21.3486 133.903 21.0456C134.342 20.7427 134.655 20.3388 134.84 19.8339C135.043 19.329 135.169 18.6978 135.22 17.9405C135.288 17.1831 135.321 16.2827 135.321 15.2393C135.321 14.1958 135.288 13.3038 135.22 12.5633C135.169 11.8059 135.043 11.1748 134.84 10.6699C134.655 10.165 134.342 9.76108 133.903 9.45813C133.481 9.15519 132.899 8.94482 132.156 8.82701C131.431 8.69237 130.511 8.62505 129.397 8.62505C128.282 8.62505 127.354 8.69237 126.611 8.82701C125.869 8.94482 125.286 9.15519 124.864 9.45813C124.442 9.76108 124.13 10.165 123.927 10.6699C123.742 11.1748 123.615 11.8059 123.548 12.5633C123.497 13.3038 123.472 14.1958 123.472 15.2393C123.472 16.2827 123.497 17.1831 123.548 17.9405C123.615 18.6978 123.742 19.329 123.927 19.8339C124.13 20.3388 124.442 20.7427 124.864 21.0456C125.286 21.3486 125.869 21.5674 126.611 21.702ZM130.865 19.0765C130.511 19.1607 130.021 19.2027 129.397 19.2027C128.755 19.2027 128.257 19.1607 127.903 19.0765C127.548 18.9924 127.295 18.8241 127.143 18.5716C126.991 18.3023 126.898 17.8984 126.865 17.3599C126.848 16.8213 126.839 16.1144 126.839 15.2393C126.839 14.3641 126.848 13.6657 126.865 13.1439C126.898 12.6054 126.991 12.2099 127.143 11.9574C127.295 11.6881 127.548 11.5198 127.903 11.4525C128.257 11.3683 128.755 11.3263 129.397 11.3263C130.021 11.3263 130.511 11.3683 130.865 11.4525C131.236 11.5198 131.49 11.6881 131.625 11.9574C131.777 12.2099 131.869 12.6054 131.903 13.1439C131.937 13.6657 131.954 14.3641 131.954 15.2393C131.954 16.1144 131.937 16.8213 131.903 17.3599C131.869 17.8984 131.777 18.3023 131.625 18.5716C131.49 18.8241 131.236 18.9924 130.865 19.0765ZM115.87 21.904C114.756 21.904 113.828 21.8367 113.085 21.702C112.342 21.5674 111.76 21.3486 111.338 21.0456C110.916 20.7427 110.604 20.3388 110.401 19.8339C110.215 19.329 110.089 18.6978 110.021 17.9405C109.971 17.1831 109.945 16.2827 109.945 15.2393C109.945 14.1958 109.971 13.3038 110.021 12.5633C110.089 11.8059 110.215 11.1748 110.401 10.6699C110.604 10.165 110.916 9.76108 111.338 9.45813C111.76 9.15519 112.342 8.94482 113.085 8.82701C113.828 8.69237 114.756 8.62505 115.87 8.62505C116.984 8.62505 117.904 8.69237 118.63 8.82701C119.373 8.94482 119.955 9.15519 120.377 9.45813C120.816 9.76108 121.128 10.165 121.314 10.6699C121.517 11.1748 121.643 11.8059 121.694 12.5633C121.761 13.3038 121.795 14.1958 121.795 15.2393C121.795 16.2827 121.761 17.1831 121.694 17.9405C121.643 18.6978 121.517 19.329 121.314 19.8339C121.128 20.3388 120.816 20.7427 120.377 21.0456C119.955 21.3486 119.373 21.5674 118.63 21.702C117.904 21.8367 116.984 21.904 115.87 21.904ZM115.87 19.2027C116.495 19.2027 116.984 19.1607 117.339 19.0765C117.71 18.9924 117.963 18.8241 118.098 18.5716C118.25 18.3023 118.343 17.8984 118.377 17.3599C118.411 16.8213 118.428 16.1144 118.428 15.2393C118.428 14.3641 118.411 13.6657 118.377 13.1439C118.343 12.6054 118.25 12.2099 118.098 11.9574C117.963 11.6881 117.71 11.5198 117.339 11.4525C116.984 11.3683 116.495 11.3263 115.87 11.3263C115.229 11.3263 114.731 11.3683 114.376 11.4525C114.022 11.5198 113.769 11.6881 113.617 11.9574C113.465 12.2099 113.372 12.6054 113.338 13.1439C113.321 13.6657 113.313 14.3641 113.313 15.2393C113.313 16.1144 113.321 16.8213 113.338 17.3599C113.372 17.8984 113.465 18.3023 113.617 18.5716C113.769 18.8241 114.022 18.9924 114.376 19.0765C114.731 19.1607 115.229 19.2027 115.87 19.2027ZM35.6786 4.33369V21.7023H39.274V14.5075H46.2116V21.7023H49.8071V4.33369H46.2116V11.4276H39.274V4.33369H35.6786Z" fill="currentColor"/>
<defs>
<clipPath id="clip0_751_17333">
<rect width="26.077" height="26" fill="white"/>
</clipPath>
</defs>
</svg>
