<?xml version="1.0" encoding="UTF-8" standalone="no"?>
<!-- Created with Inkscape (http://www.inkscape.org/) -->

<svg
   xmlns:dc="http://purl.org/dc/elements/1.1/"
   xmlns:cc="http://creativecommons.org/ns#"
   xmlns:rdf="http://www.w3.org/1999/02/22-rdf-syntax-ns#"
   xmlns:svg="http://www.w3.org/2000/svg"
   xmlns="http://www.w3.org/2000/svg"
   xmlns:sodipodi="http://sodipodi.sourceforge.net/DTD/sodipodi-0.dtd"
   xmlns:inkscape="http://www.inkscape.org/namespaces/inkscape"
   width="163.10564mm"
   height="14.024311mm"
   viewBox="0 0 163.10564 14.024311"
   version="1.1"
   id="svg5259"
   inkscape:version="0.92.3 (2405546, 2018-03-11)"
   sodipodi:docname="logo.svg">
  <defs
     id="defs5253" />
  <sodipodi:namedview
     id="base"
     pagecolor="#ffffff"
     bordercolor="#666666"
     borderopacity="1.0"
     inkscape:pageopacity="0.0"
     inkscape:pageshadow="2"
     inkscape:zoom="0.6"
     inkscape:cx="261.36203"
     inkscape:cy="-65.878402"
     inkscape:document-units="mm"
     inkscape:current-layer="layer1"
     showgrid="false"
     inkscape:window-width="838"
     inkscape:window-height="1048"
     inkscape:window-x="2760"
     inkscape:window-y="0"
     inkscape:window-maximized="1" />
  <metadata
     id="metadata5256">
    <rdf:RDF>
      <cc:Work
         rdf:about="">
        <dc:format>image/svg+xml</dc:format>
        <dc:type
           rdf:resource="http://purl.org/dc/dcmitype/StillImage" />
        <dc:title />
      </cc:Work>
    </rdf:RDF>
  </metadata>
  <g
     inkscape:label="Layer 1"
     inkscape:groupmode="layer"
     id="layer1"
     transform="translate(-26.948409,-117.3787)">
    <g
       aria-label="TOOLKIT"
       transform="scale(0.98908074,1.0110398)"
       style="font-style:normal;font-variant:normal;font-weight:normal;font-stretch:normal;font-size:19.26548958px;line-height:1.25;font-family:'Rubik Mono One';-inkscape-font-specification:'Rubik Mono One';letter-spacing:-2.09985042px;word-spacing:0px;fill:#e1421f;fill-opacity:1;stroke:none;stroke-width:0.14449117"
       id="text4495-6-94-2">
      <path
         d="m 91.384928,116.28969 h 13.293192 q 0.21192,0 0.36604,0.15412 0.15412,0.15412 0.15412,0.36604 v 3.10175 q 0,0.21192 -0.15412,0.36604 -0.15412,0.15413 -0.36604,0.15413 h -4.14208 v 8.82359 q 0,0.21192 -0.15413,0.36604 -0.15412,0.15413 -0.36604,0.15413 h -3.968693 q -0.211921,0 -0.366045,-0.15413 -0.154124,-0.15412 -0.154124,-0.36604 v -8.82359 h -4.14208 q -0.21192,0 -0.366044,-0.15413 -0.154124,-0.15412 -0.154124,-0.36604 v -3.10175 q 0,-0.21192 0.154124,-0.36604 0.154124,-0.15412 0.366044,-0.15412 z"
         style="font-style:normal;font-variant:normal;font-weight:normal;font-stretch:normal;font-size:19.26548958px;font-family:'Rubik Mono One';-inkscape-font-specification:'Rubik Mono One';letter-spacing:-2.09985042px;fill:#e1421f;fill-opacity:1;stroke-width:0.14449117"
         id="path818" />
      <path
         d="m 119.92131,121.85741 v 2.35039 q 0,1.98435 -0.96328,3.31367 -0.96327,1.32931 -2.52378,1.88801 -1.5605,0.5587 -3.67971,0.5587 -2.1192,0 -3.6797,-0.5587 -1.56051,-0.5587 -2.52378,-1.88801 -0.96328,-1.32932 -0.96328,-3.3522 v -2.27333 q 0,-2.90909 1.98435,-4.354 2.00361,-1.44491 5.18241,-1.44491 3.17881,0 5.16316,1.44491 2.00361,1.44491 2.00361,4.31547 z m -9.13185,-0.36604 v 3.08248 q 0,0.78988 0.52017,1.21372 0.53944,0.42384 1.44491,0.42384 0.90548,0 1.42565,-0.42384 0.53943,-0.4431 0.53943,-1.23299 v -3.04395 q 0,-0.78988 -0.53943,-1.21372 -0.52017,-0.44311 -1.42565,-0.44311 -0.90547,0 -1.44491,0.42384 -0.52017,0.42384 -0.52017,1.21373 z"
         style="font-style:normal;font-variant:normal;font-weight:normal;font-stretch:normal;font-size:19.26548958px;font-family:'Rubik Mono One';-inkscape-font-specification:'Rubik Mono One';letter-spacing:-2.09985042px;fill:#e1421f;fill-opacity:1;stroke-width:0.14449117"
         id="path820" />
      <path
         d="m 134.9961,121.85741 v 2.35039 q 0,1.98435 -0.96327,3.31367 -0.96328,1.32931 -2.52378,1.88801 -1.5605,0.5587 -3.67971,0.5587 -2.1192,0 -3.67971,-0.5587 -1.5605,-0.5587 -2.52378,-1.88801 -0.96327,-1.32932 -0.96327,-3.3522 v -2.27333 q 0,-2.90909 1.98434,-4.354 2.00362,-1.44491 5.18242,-1.44491 3.17881,0 5.16315,1.44491 2.00361,1.44491 2.00361,4.31547 z m -9.13184,-0.36604 v 3.08248 q 0,0.78988 0.52017,1.21372 0.53943,0.42384 1.44491,0.42384 0.90548,0 1.42565,-0.42384 0.53943,-0.4431 0.53943,-1.23299 v -3.04395 q 0,-0.78988 -0.53943,-1.21372 -0.52017,-0.44311 -1.42565,-0.44311 -0.90548,0 -1.44491,0.42384 -0.52017,0.42384 -0.52017,1.21373 z"
         style="font-style:normal;font-variant:normal;font-weight:normal;font-stretch:normal;font-size:19.26548958px;font-family:'Rubik Mono One';-inkscape-font-specification:'Rubik Mono One';letter-spacing:-2.09985042px;fill:#e1421f;fill-opacity:1;stroke-width:0.14449117"
         id="path822" />
      <path
         d="m 141.1337,125.8261 h 6.56953 q 0.21192,0 0.36605,0.15413 0.15412,0.15412 0.15412,0.36604 v 2.90909 q 0,0.21192 -0.15412,0.36604 -0.15413,0.15413 -0.36605,0.15413 h -11.25104 q -0.21192,0 -0.36605,-0.15413 -0.15412,-0.15412 -0.15412,-0.36604 v -12.44551 q 0,-0.21192 0.15412,-0.36604 0.15413,-0.15412 0.36605,-0.15412 h 4.16134 q 0.21192,0 0.36605,0.15412 0.15412,0.15412 0.15412,0.36604 z"
         style="font-style:normal;font-variant:normal;font-weight:normal;font-stretch:normal;font-size:19.26548958px;font-family:'Rubik Mono One';-inkscape-font-specification:'Rubik Mono One';letter-spacing:-2.09985042px;fill:#e1421f;fill-opacity:1;stroke-width:0.14449117"
         id="path824" />
      <path
         d="m 163.4989,129.10124 q 0.0771,0.11559 0.0771,0.26971 0,0.15413 -0.13486,0.28899 -0.1156,0.11559 -0.28899,0.11559 h -4.97049 q -0.44311,0 -0.69356,-0.30825 l -3.35219,-4.14208 v 3.93016 q 0,0.21192 -0.15413,0.36604 -0.15412,0.15413 -0.36604,0.15413 h -3.96869 q -0.21192,0 -0.36605,-0.15413 -0.15412,-0.15412 -0.15412,-0.36604 v -12.44551 q 0,-0.21192 0.15412,-0.36604 0.15413,-0.15412 0.36605,-0.15412 h 3.96869 q 0.21192,0 0.36604,0.15412 0.15413,0.15412 0.15413,0.36604 v 3.62192 l 3.04394,-3.81457 q 0.28899,-0.32751 0.71283,-0.32751 h 4.64298 q 0.17339,0 0.28898,0.13485 0.13486,0.1156 0.13486,0.28899 0,0.15412 -0.0963,0.26971 l -4.56592,5.56773 z"
         style="font-style:normal;font-variant:normal;font-weight:normal;font-stretch:normal;font-size:19.26548958px;font-family:'Rubik Mono One';-inkscape-font-specification:'Rubik Mono One';letter-spacing:-2.09985042px;fill:#e1421f;fill-opacity:1;stroke-width:0.14449117"
         id="path826" />
      <path
         d="m 176.48398,120.23911 h -3.48705 v 5.58699 h 3.48705 q 0.21192,0 0.36605,0.15413 0.15412,0.15412 0.15412,0.36604 v 2.90909 q 0,0.21192 -0.15412,0.36604 -0.15413,0.15413 -0.36605,0.15413 h -12.21432 q -0.21192,0 -0.36604,-0.15413 -0.15413,-0.15412 -0.15413,-0.36604 v -2.90909 q 0,-0.21192 0.15413,-0.36604 0.15412,-0.15413 0.36604,-0.15413 h 3.52559 v -5.58699 h -3.52559 q -0.21192,0 -0.36604,-0.15412 -0.15413,-0.15413 -0.15413,-0.36605 v -2.90909 q 0,-0.21192 0.15413,-0.36604 0.15412,-0.15412 0.36604,-0.15412 h 12.21432 q 0.21192,0 0.36605,0.15412 0.15412,0.15412 0.15412,0.36604 v 2.90909 q 0,0.21192 -0.15412,0.36605 -0.15413,0.15412 -0.36605,0.15412 z"
         style="font-style:normal;font-variant:normal;font-weight:normal;font-stretch:normal;font-size:19.26548958px;font-family:'Rubik Mono One';-inkscape-font-specification:'Rubik Mono One';letter-spacing:-2.09985042px;fill:#e1421f;fill-opacity:1;stroke-width:0.14449117"
         id="path828" />
      <path
         d="m 178.33885,116.28969 h 13.29318 q 0.21192,0 0.36605,0.15412 0.15412,0.15412 0.15412,0.36604 v 3.10175 q 0,0.21192 -0.15412,0.36604 -0.15413,0.15413 -0.36605,0.15413 h -4.14208 v 8.82359 q 0,0.21192 -0.15412,0.36604 -0.15412,0.15413 -0.36604,0.15413 h -3.96869 q -0.21193,0 -0.36605,-0.15413 -0.15412,-0.15412 -0.15412,-0.36604 v -8.82359 h -4.14208 q -0.21192,0 -0.36605,-0.15413 -0.15412,-0.15412 -0.15412,-0.36604 v -3.10175 q 0,-0.21192 0.15412,-0.36604 0.15413,-0.15412 0.36605,-0.15412 z"
         style="font-style:normal;font-variant:normal;font-weight:normal;font-stretch:normal;font-size:19.26548958px;font-family:'Rubik Mono One';-inkscape-font-specification:'Rubik Mono One';letter-spacing:-2.09985042px;fill:#e1421f;fill-opacity:1;stroke-width:0.14449117"
         id="path830" />
    </g>
    <g
       aria-label="HTTP"
       transform="matrix(0.03499359,0,0,0.03634239,-74.846706,54.265018)"
       style="font-style:normal;font-variant:normal;font-weight:bold;font-stretch:normal;font-size:551.27655029px;line-height:1.25;font-family:'Rubik Mono One';-inkscape-font-specification:'Rubik Mono One Bold';letter-spacing:0px;word-spacing:0px;fill:#e1421f;fill-opacity:1;stroke:none;stroke-width:4.13457394"
       id="text4491-4-81-2"
       inkscape:export-xdpi="1.5561962"
       inkscape:export-ydpi="1.5561962">
      <path
         d="m 3177.4362,1736.6408 h 113.563 q 6.0641,0 10.4743,4.4103 4.4102,4.4102 4.4102,10.4742 V 2107.65 q 0,6.064 -4.4102,10.4742 -4.4102,4.4102 -10.4743,4.4102 h -113.563 q -6.064,0 -10.4742,-4.4102 -4.4102,-4.4102 -4.4102,-10.4742 V 1990.2281 H 3052.2965 V 2107.65 q 0,6.064 -4.4102,10.4742 -4.4103,4.4102 -10.4743,4.4102 h -113.563 q -6.064,0 -10.4742,-3.8589 -4.4102,-4.4102 -4.4102,-11.0255 v -356.1247 q 0,-6.064 4.4102,-10.4742 4.4102,-4.4103 10.4742,-4.4103 h 113.563 q 6.064,0 10.4743,4.4103 4.4102,4.4102 4.4102,10.4742 v 113.0117 h 110.2553 v -113.0117 q 0,-6.064 4.4102,-10.4742 4.4102,-4.4103 10.4742,-4.4103 z"
         style="letter-spacing:-40.21031952px;fill:#e1421f;fill-opacity:1;stroke-width:4.13457394"
         id="path7194"
         inkscape:connector-curvature="0" />
      <path
         style="letter-spacing:-109.03938293px;fill:#e1421f;fill-opacity:1;stroke-width:15.62673569"
         d="m 12407.154,6688.9824 c -14.993,0 -27.941,5.6616 -38.845,16.9864 -10.905,11.3244 -16.358,24.7726 -16.358,40.3437 v 341.8574 c 0,15.5713 5.453,29.0193 16.358,40.3438 10.904,11.3244 23.852,16.9863 38.845,16.9863 h 439.575 v 972.4902 c 0,15.5711 5.453,29.0193 16.357,40.3438 10.904,11.3244 23.852,16.9863 38.846,16.9863 h 421.173 c 14.994,0 27.942,-5.6619 38.846,-16.9863 10.904,-11.3245 16.358,-24.7727 16.358,-40.3438 V 7145.5 c 267.026,0 534.052,0 801.078,0 v 972.4902 c 0,15.5711 5.453,29.0193 16.357,40.3438 10.904,11.3244 23.852,16.9863 38.846,16.9863 h 421.174 c 14.993,0 27.943,-5.6619 38.847,-16.9863 10.904,-11.3245 16.356,-24.7727 16.356,-40.3438 V 7145.5 h 439.574 c 14.993,0 27.944,-5.6619 38.848,-16.9863 10.904,-11.3245 16.355,-24.7725 16.355,-40.3438 v -341.8574 c 0,-15.5711 -5.451,-29.0193 -16.355,-40.3437 -10.904,-11.3248 -23.855,-16.9864 -38.848,-16.9864 -914.462,0 -1828.925,0 -2743.387,0 z"
         transform="scale(0.2696342,0.25962708)"
         id="path7196"
         inkscape:connector-curvature="0"
         sodipodi:nodetypes="ccsscscscsscsccscsscscscssccc" />
      <path
         d="m 4135.8358,1736.6408 h 206.1774 q 78.2813,0 124.0372,38.0381 45.756,38.0381 45.756,97.576 0,59.5378 -38.5894,94.8195 -38.5893,34.7305 -131.2038,34.7305 h -72.7685 V 2107.65 q 0,6.064 -4.4102,10.4742 -4.4102,4.4102 -10.4743,4.4102 h -118.5244 q -6.0641,0 -10.4743,-4.4102 -4.4102,-4.4102 -4.4102,-10.4742 v -356.1247 q 0,-6.064 4.4102,-10.4742 4.4102,-4.4103 10.4743,-4.4103 z m 133.9602,102.5375 v 60.6404 h 70.0121 q 12.6794,0 20.3972,-7.7179 8.2692,-7.7178 8.2692,-21.4998 0,-13.7819 -7.7179,-22.6023 -7.7178,-8.8204 -20.9485,-8.8204 z"
         style="font-style:normal;font-variant:normal;font-weight:bold;font-stretch:normal;font-size:551.27655029px;font-family:'Rubik Mono One';-inkscape-font-specification:'Rubik Mono One Bold';letter-spacing:-77.50056458px;fill:#e1421f;fill-opacity:1;stroke-width:4.13457394"
         id="path7200"
         inkscape:connector-curvature="0" />
    </g>
  </g>
</svg>
