<svg width="64" height="64" viewBox="0 0 64 64" fill="none" xmlns="http://www.w3.org/2000/svg">
<g filter="url(#filter0_iiii_440_12337)">
<g filter="url(#filter1_iiii_440_12337)">
<path d="M32 60.3744C49.6741 60.3744 64 48.8056 64 34.5386C64 25.6922 58.5151 17.878 50.0832 13.2436C46.6522 11.3368 43.9565 9.6253 41.7129 8.2026C37.4875 5.51766 34.8802 3.8623 32 3.8623C29.0744 3.8623 25.777 5.95624 21.4234 8.71873C18.9706 10.309 16.4662 11.8181 13.9141 13.2436C5.48487 17.878 0 25.6922 0 34.5386C0 48.8056 14.3259 60.3744 32 60.3744ZM28.2641 12.6927C29.1537 10.6678 29.6066 8.47811 29.5932 6.26645C29.5932 5.88136 30.1307 5.76904 30.2056 6.19157C31.9599 13.6126 27.7988 17.2897 24.7207 18.5198C24.3891 18.6482 24.1885 18.1989 24.4453 17.9636C26.0799 16.4994 27.382 14.7021 28.2641 12.6927ZM33.7516 12.4199C33.4986 10.2453 32.7877 8.14903 31.6657 6.26912V6.22901C31.4839 5.90008 31.8957 5.52568 32.1605 5.76904C37.3913 11.3983 35.645 16.6131 33.642 19.2392C33.4227 19.512 33.0296 19.2312 33.1392 18.9023C33.7968 16.8085 34.0054 14.5997 33.7516 12.4199ZM38.4877 10.925C37.4149 9.03156 35.9497 7.38941 34.1902 6.10867V6.07123C33.8907 5.84392 34.126 5.33849 34.4924 5.48825C41.4133 8.38713 41.8894 13.9683 41.0496 17.2415C41.0327 17.3189 40.9867 17.3868 40.9213 17.4314C40.8577 17.4763 40.779 17.4941 40.7023 17.4811C40.6257 17.4681 40.5573 17.4252 40.5121 17.3619C40.4653 17.2979 40.4443 17.2187 40.4533 17.1399C40.2406 14.9535 39.571 12.8361 38.4877 10.925ZM24.924 12.4199C23.2766 13.8747 21.5036 14.447 19.4204 15.0861C19.1101 15.0861 18.9016 14.8775 19.0058 14.6047C23.6778 12.1792 25.3411 10.2056 27.0018 7.19441C27.0018 7.19441 27.4163 6.88153 27.5046 7.42172C27.5046 8.23202 26.574 10.9651 24.924 12.4199ZM38.1106 42.3848C37.7318 43.9935 36.8572 45.4425 35.6102 46.5272C34.6869 47.4496 33.4785 48.0321 32.1819 48.1799C30.8468 48.0549 29.5965 47.4708 28.6438 46.5272C27.4089 45.4378 26.5458 43.9894 26.1755 42.3848C26.1634 42.2898 26.1725 42.1933 26.2021 42.1022C26.2317 42.0111 26.2811 41.9277 26.3466 41.858C26.4123 41.7898 26.4927 41.7377 26.5818 41.7057C26.6709 41.6736 26.7661 41.6626 26.8601 41.6734H37.4341C37.5275 41.663 37.6221 41.6744 37.7103 41.7069C37.7985 41.7394 37.8779 41.7921 37.9422 41.8606C38.0075 41.9299 38.0566 42.013 38.0857 42.1036C38.1149 42.1943 38.1234 42.2904 38.1106 42.3848ZM23.5547 36.5817C22.5891 37.242 21.4207 37.5388 20.2569 37.4194C19.0932 37.2999 18.0094 36.7719 17.1981 35.9292C16.3719 35.0721 15.8605 33.9604 15.7474 32.7754C15.6342 31.5903 15.9259 30.4019 16.575 29.404C17.1285 28.5536 17.9174 27.8931 18.8374 27.5026C19.7558 27.1114 20.7715 27.0088 21.7496 27.2085C22.7257 27.409 23.6243 27.9038 24.3276 28.6258C25.0336 29.3478 25.5123 30.2731 25.7048 31.2733C25.8992 32.2769 25.7989 33.3153 25.416 34.2631C25.037 35.2014 24.3895 36.0097 23.5547 36.5817ZM46.2083 36.595C45.2411 37.2511 44.0728 37.5434 42.9106 37.42C41.7484 37.2966 40.6675 36.7656 39.8596 35.9211C38.9187 34.9425 38.3951 33.6364 38.3995 32.2788C38.3995 31.2546 38.6936 30.2517 39.2525 29.4013C39.8061 28.5509 40.595 27.8877 41.5176 27.4999C42.4374 27.11 43.4541 27.0093 44.4326 27.2111C45.4113 27.4144 46.3099 27.9091 47.0132 28.6365C47.7165 29.3639 48.1899 30.2865 48.3824 31.292C48.5725 32.2969 48.4676 33.3353 48.0802 34.2818C47.698 35.2206 47.0467 36.0254 46.2083 36.595Z" fill="url(#paint0_linear_440_12337)"/>
</g>
<path d="M46.4892 37.0086L46.4889 37.0088C45.4239 37.7312 44.1375 38.0531 42.8578 37.9172C41.5785 37.7814 40.3886 37.197 39.499 36.2675M46.4892 37.0086L39.499 36.2675M46.4892 37.0086C47.409 36.3838 48.1235 35.501 48.543 34.4712L46.4892 37.0086ZM39.499 36.2675C39.4988 36.2673 39.4986 36.267 39.4983 36.2668L39.8594 35.9213L39.4992 36.2677C39.4991 36.2676 39.4991 36.2676 39.499 36.2675ZM44.5336 26.7214L44.5342 26.7216C45.6118 26.9453 46.6 27.4898 47.3727 28.2889C48.1452 29.0879 48.6631 30.0993 48.8735 31.198L48.8737 31.1991C49.0817 32.2985 48.967 33.4347 48.5433 34.4704L44.5336 26.7214ZM44.5336 26.7214C43.4559 26.4991 42.3361 26.61 41.3229 27.0394L44.5336 26.7214ZM49.8404 13.6806L49.8424 13.6817C58.1526 18.2493 63.5 25.9143 63.5 34.5386C63.5 48.4349 49.5031 59.8744 32 59.8744C14.4969 59.8744 0.5 48.4349 0.5 34.5386C0.5 25.9143 5.84743 18.2493 14.155 13.6817L14.155 13.6817L14.1579 13.6801C16.7189 12.2497 19.2321 10.7354 21.6933 9.13958C23.8761 7.7546 25.7648 6.55643 27.4712 5.70162C29.1793 4.84591 30.6521 4.3623 32 4.3623C33.3379 4.3623 34.6329 4.74505 36.1332 5.47519C37.6422 6.20955 39.3239 7.27696 41.4447 8.62461L41.4451 8.62487L41.5024 8.66122C43.7351 10.0769 46.4247 11.7824 49.8404 13.6806ZM27.8063 12.4915L27.8063 12.4917C26.9529 14.4357 25.6931 16.1746 24.1116 17.5912L24.1116 17.5911L24.1074 17.595C23.7999 17.8769 23.7677 18.2906 23.9104 18.592C23.9831 18.7455 24.1107 18.8922 24.2958 18.9758C24.4891 19.0631 24.7036 19.0626 24.9012 18.9861L24.9012 18.9861L24.9063 18.9841C26.5248 18.3373 28.4306 17.0476 29.7035 14.9354C30.9827 12.8129 31.5948 9.9058 30.6949 6.08799C30.6542 5.87938 30.5463 5.68881 30.3661 5.56196C30.1858 5.43511 29.9761 5.40252 29.791 5.43265C29.4239 5.4924 29.0932 5.81036 29.0932 6.26645L29.0932 6.26949C29.1062 8.41089 28.6677 10.531 27.8063 12.4915ZM31.407 5.41652C31.1889 5.61724 31.0402 5.97058 31.1657 6.33163V6.40698L31.2364 6.52536C32.3221 8.34462 33.0101 10.3733 33.255 12.4777C33.5005 14.5865 33.2989 16.7234 32.6633 18.749C32.5343 19.1433 32.7077 19.5179 32.9834 19.708C33.1234 19.8045 33.3069 19.8661 33.5075 19.8452C33.7165 19.8233 33.9001 19.7161 34.0317 19.5525L34.0318 19.5526L34.0395 19.5424C35.0908 18.1642 36.0789 16.1028 36.1139 13.6374C36.149 11.1584 35.2192 8.32628 32.5267 5.42869L32.5133 5.41426L32.4988 5.40093C32.1229 5.05539 31.6546 5.1886 31.407 5.41652ZM38.0527 11.1715L38.0527 11.1715C39.0949 13.0101 39.7416 15.0459 39.9517 17.1485C39.9457 17.3293 40 17.5077 40.1071 17.655C40.229 17.8244 40.4127 17.9391 40.6186 17.974C40.8242 18.009 41.0352 17.9616 41.2062 17.8423C41.3723 17.7279 41.4898 17.5556 41.5356 17.3593C41.9745 15.6435 42.0712 13.3202 41.1446 11.0365C40.2108 8.73513 38.2573 6.52311 34.6856 5.02705L34.6816 5.02542C34.4736 4.94042 34.25 4.93856 34.0496 5.02546C33.8578 5.10862 33.722 5.25761 33.6433 5.41694C33.5228 5.66099 33.5125 5.99238 33.6902 6.26051V6.36315L33.8959 6.51291C35.5978 7.7517 37.015 9.34006 38.0527 11.1715ZM27.0018 7.19441L26.7006 6.79534L26.6155 6.85958L26.564 6.95295C25.7464 8.4354 24.9432 9.635 23.7846 10.7606C22.6235 11.8886 21.0847 12.9621 18.7755 14.161L18.6067 14.2486L18.5388 14.4262C18.4246 14.7248 18.4733 15.0467 18.6866 15.2828C18.8819 15.4991 19.1614 15.5861 19.4204 15.5861H19.4953L19.567 15.5641C21.6458 14.9263 23.5173 14.3292 25.2549 12.7947C26.1529 12.0028 26.8339 10.8864 27.2883 9.88588C27.5173 9.38163 27.6938 8.8957 27.8139 8.47818C27.9307 8.07214 28.0046 7.69545 28.0046 7.42172V7.38115L27.9981 7.34111C27.9662 7.14619 27.8918 6.93991 27.7252 6.78842C27.5454 6.62484 27.334 6.5927 27.1737 6.60766C27.0259 6.62144 26.9059 6.67476 26.8376 6.71021C26.8002 6.72963 26.7693 6.74847 26.7468 6.76315C26.7354 6.77059 26.7257 6.77721 26.718 6.78264L26.7079 6.78994L26.7039 6.79289L26.7022 6.79418L26.7014 6.79478L26.701 6.79506C26.7008 6.7952 26.7006 6.79534 27.0018 7.19441ZM38.5973 42.4994L38.6029 42.4758L38.6061 42.4517C38.6289 42.2835 38.6137 42.1123 38.5618 41.9506L38.0857 42.1036C38.0566 42.013 38.0075 41.9299 37.9422 41.8606L38.3069 41.5186C38.3065 41.5182 38.3062 41.5179 38.3059 41.5175C38.1885 41.3927 38.0438 41.297 37.8831 41.2378C37.732 41.1821 37.5706 41.1602 37.4103 41.1734H26.8845C26.7248 41.1598 26.5638 41.1808 26.4127 41.2351C26.2513 41.2931 26.1054 41.3876 25.9864 41.5112L25.9864 41.5112L25.9823 41.5155C25.8663 41.639 25.7789 41.7866 25.7266 41.9477C25.6742 42.1089 25.6581 42.2796 25.6795 42.4477L25.6826 42.4727L25.6883 42.4972C26.081 44.1988 26.9948 45.7353 28.3023 46.8926C29.3358 47.9117 30.6899 48.5424 32.1352 48.6777L32.1869 48.6825L32.2385 48.6767C33.6416 48.5167 34.9497 47.8883 35.9513 46.8932C37.2704 45.7409 38.1958 44.2045 38.5973 42.4994ZM23.837 36.9944L23.8374 36.9941C24.7538 36.3662 25.4639 35.4794 25.8796 34.4504L25.8796 34.4504C26.2986 33.413 26.4084 32.2766 26.1957 31.1782C25.985 30.0841 25.461 29.0698 24.6851 28.2762C23.9132 27.484 22.9256 26.9396 21.8503 26.7187L21.8496 26.7185C20.7723 26.4987 19.6536 26.6116 18.642 27.0424C17.63 27.4719 16.7634 28.198 16.1559 29.1312L16.1558 29.1314C15.4452 30.2241 15.1257 31.5253 15.2496 32.8229C15.3735 34.1203 15.9334 35.3375 16.8379 36.2759C17.7312 37.2039 18.9245 37.7852 20.2059 37.9167C21.4872 38.0483 22.7737 37.7215 23.837 36.9944Z" stroke="url(#paint1_radial_440_12337)" stroke-opacity="0.2"/>
</g>
<defs>
<filter id="filter0_iiii_440_12337" x="0" y="-4.13621" width="64" height="72.2724" filterUnits="userSpaceOnUse" color-interpolation-filters="sRGB">
<feFlood flood-opacity="0" result="BackgroundImageFix"/>
<feBlend mode="normal" in="SourceGraphic" in2="BackgroundImageFix" result="shape"/>
<feColorMatrix in="SourceAlpha" type="matrix" values="0 0 0 0 0 0 0 0 0 0 0 0 0 0 0 0 0 0 127 0" result="hardAlpha"/>
<feOffset dy="8.27243"/>
<feGaussianBlur stdDeviation="2.06811"/>
<feComposite in2="hardAlpha" operator="arithmetic" k2="-1" k3="1"/>
<feColorMatrix type="matrix" values="0 0 0 0 0.78638 0 0 0 0 0.830606 0 0 0 0 0.9854 0 0 0 0.1 0"/>
<feBlend mode="normal" in2="shape" result="effect1_innerShadow_440_12337"/>
<feColorMatrix in="SourceAlpha" type="matrix" values="0 0 0 0 0 0 0 0 0 0 0 0 0 0 0 0 0 0 127 0" result="hardAlpha"/>
<feOffset dy="-4.13621"/>
<feGaussianBlur stdDeviation="2.06811"/>
<feComposite in2="hardAlpha" operator="arithmetic" k2="-1" k3="1"/>
<feColorMatrix type="matrix" values="0 0 0 0 0.0636856 0 0 0 0 0.181279 0 0 0 0 0.592855 0 0 0 0.1 0"/>
<feBlend mode="normal" in2="effect1_innerShadow_440_12337" result="effect2_innerShadow_440_12337"/>
<feColorMatrix in="SourceAlpha" type="matrix" values="0 0 0 0 0 0 0 0 0 0 0 0 0 0 0 0 0 0 127 0" result="hardAlpha"/>
<feOffset dy="8.27243"/>
<feGaussianBlur stdDeviation="2.06811"/>
<feComposite in2="hardAlpha" operator="arithmetic" k2="-1" k3="1"/>
<feColorMatrix type="matrix" values="0 0 0 0 0.78638 0 0 0 0 0.830606 0 0 0 0 0.9854 0 0 0 0.1 0"/>
<feBlend mode="normal" in2="effect2_innerShadow_440_12337" result="effect3_innerShadow_440_12337"/>
<feColorMatrix in="SourceAlpha" type="matrix" values="0 0 0 0 0 0 0 0 0 0 0 0 0 0 0 0 0 0 127 0" result="hardAlpha"/>
<feOffset dy="-4.13621"/>
<feGaussianBlur stdDeviation="2.06811"/>
<feComposite in2="hardAlpha" operator="arithmetic" k2="-1" k3="1"/>
<feColorMatrix type="matrix" values="0 0 0 0 0.0636856 0 0 0 0 0.181279 0 0 0 0 0.592855 0 0 0 0.1 0"/>
<feBlend mode="normal" in2="effect3_innerShadow_440_12337" result="effect4_innerShadow_440_12337"/>
</filter>
<filter id="filter1_iiii_440_12337" x="0" y="2.6623" width="64" height="58.9117" filterUnits="userSpaceOnUse" color-interpolation-filters="sRGB">
<feFlood flood-opacity="0" result="BackgroundImageFix"/>
<feBlend mode="normal" in="SourceGraphic" in2="BackgroundImageFix" result="shape"/>
<feColorMatrix in="SourceAlpha" type="matrix" values="0 0 0 0 0 0 0 0 0 0 0 0 0 0 0 0 0 0 127 0" result="hardAlpha"/>
<feOffset dy="2.4"/>
<feGaussianBlur stdDeviation="0.6"/>
<feComposite in2="hardAlpha" operator="arithmetic" k2="-1" k3="1"/>
<feColorMatrix type="matrix" values="0 0 0 0 0.78638 0 0 0 0 0.830606 0 0 0 0 0.9854 0 0 0 0.1 0"/>
<feBlend mode="normal" in2="shape" result="effect1_innerShadow_440_12337"/>
<feColorMatrix in="SourceAlpha" type="matrix" values="0 0 0 0 0 0 0 0 0 0 0 0 0 0 0 0 0 0 127 0" result="hardAlpha"/>
<feOffset dy="-1.2"/>
<feGaussianBlur stdDeviation="0.6"/>
<feComposite in2="hardAlpha" operator="arithmetic" k2="-1" k3="1"/>
<feColorMatrix type="matrix" values="0 0 0 0 0.0636856 0 0 0 0 0.181279 0 0 0 0 0.592855 0 0 0 0.1 0"/>
<feBlend mode="normal" in2="effect1_innerShadow_440_12337" result="effect2_innerShadow_440_12337"/>
<feColorMatrix in="SourceAlpha" type="matrix" values="0 0 0 0 0 0 0 0 0 0 0 0 0 0 0 0 0 0 127 0" result="hardAlpha"/>
<feOffset dy="2.4"/>
<feGaussianBlur stdDeviation="0.6"/>
<feComposite in2="hardAlpha" operator="arithmetic" k2="-1" k3="1"/>
<feColorMatrix type="matrix" values="0 0 0 0 0.78638 0 0 0 0 0.830606 0 0 0 0 0.9854 0 0 0 0.1 0"/>
<feBlend mode="normal" in2="effect2_innerShadow_440_12337" result="effect3_innerShadow_440_12337"/>
<feColorMatrix in="SourceAlpha" type="matrix" values="0 0 0 0 0 0 0 0 0 0 0 0 0 0 0 0 0 0 127 0" result="hardAlpha"/>
<feOffset dy="-1.2"/>
<feGaussianBlur stdDeviation="0.6"/>
<feComposite in2="hardAlpha" operator="arithmetic" k2="-1" k3="1"/>
<feColorMatrix type="matrix" values="0 0 0 0 0.0636856 0 0 0 0 0.181279 0 0 0 0 0.592855 0 0 0 0.1 0"/>
<feBlend mode="normal" in2="effect3_innerShadow_440_12337" result="effect4_innerShadow_440_12337"/>
</filter>
<linearGradient id="paint0_linear_440_12337" x1="32" y1="3.8623" x2="32" y2="60.3744" gradientUnits="userSpaceOnUse">
<stop stop-color="#4064E2"/>
<stop offset="1" stop-color="#3556CA"/>
</linearGradient>
<radialGradient id="paint1_radial_440_12337" cx="0" cy="0" r="1" gradientUnits="userSpaceOnUse" gradientTransform="translate(18.0399 0.489512) rotate(55.4066) scale(80.9514 83.0253)">
<stop stop-color="white" stop-opacity="0.6"/>
<stop offset="1" stop-color="white" stop-opacity="0.2"/>
</radialGradient>
</defs>
</svg>
