<svg width="64" height="65" viewBox="0 0 64 65" fill="none" xmlns="http://www.w3.org/2000/svg">
<g filter="url(#filter0_iiii_440_12341)">
<mask id="path-1-inside-1_440_12341" fill="white">
<path d="M29.4748 0.0265025C29.3288 0.0365034 28.8487 0.0885083 28.4107 0.130512C22.2661 0.776573 16.2015 3.38082 11.2551 7.5152C9.93411 8.69047 8.68444 9.94348 7.5127 11.2676C3.41832 16.154 1.0241 21.6425 0.150014 28.1331C-0.0500047 29.5813 -0.0500047 34.4357 0.150014 35.8839C1.0241 42.3745 3.42032 47.863 7.5127 52.7495C8.68392 54.074 9.93362 55.3271 11.2551 56.5018C16.1515 60.5962 21.63 62.9804 28.1306 63.8645C29.5688 64.0645 34.4332 64.0645 35.8694 63.8645C42.36 62.9784 47.8485 60.5842 52.7349 56.5018C54.062 55.3297 55.3152 54.0765 56.4873 52.7495C60.5817 47.863 62.9659 42.3745 63.85 35.8839C64.05 34.4357 64.05 29.5813 63.85 28.1331C62.9639 21.6425 60.5797 16.154 56.4873 11.2676C55.3152 9.94047 54.062 8.68728 52.7349 7.5152C47.8605 3.44282 42.318 1.0166 35.9234 0.162515C35.2253 0.0665062 34.2252 0.0265025 32.349 0.0165015C31.3889 -0.00550052 30.4309 -0.00550052 29.4848 0.0165015L29.4748 0.0265025ZM29.8688 3.42082C29.8688 4.33891 29.9328 6.33909 30.0148 8.23527C30.0648 9.16336 30.1188 10.4975 30.1408 11.1936C30.2348 13.6418 30.4949 20.0904 30.5249 20.6644L30.5669 21.2385L30.2128 21.1965C30.0736 21.1946 29.9359 21.1668 29.8068 21.1145C29.7399 20.7152 29.7051 20.3112 29.7028 19.9064C29.4628 14.8119 29.2447 9.72941 29.0467 4.64294L28.9927 2.89277L29.2227 2.86077C29.3368 2.83877 29.5348 2.82076 29.6608 2.81076H29.8688V3.42082ZM37.4015 3.2348C37.4115 3.2448 37.4335 5.61903 37.4655 8.5153C37.4955 11.4116 37.5275 14.0278 37.5595 14.3078C37.5815 14.6019 37.5695 14.8499 37.5275 14.8599C37.3873 14.8919 37.2417 14.8919 37.1015 14.8599L36.7474 14.8299L36.6854 12.5357L36.6034 9.40938C36.5394 8.02525 36.4894 3.29481 36.5294 3.1708C36.5614 3.08479 36.6434 3.07479 36.9775 3.13879C37.2075 3.1788 37.3935 3.2208 37.4035 3.2328L37.4015 3.2348ZM19.1918 5.86905C19.2458 5.94306 19.6078 10.2775 20.0659 15.952L20.3879 19.8584C20.4299 20.2664 20.4199 20.2764 20.1699 20.4324C20.0755 20.5046 19.9701 20.5613 19.8579 20.6004C19.8359 20.6004 19.7859 20.3924 19.7639 20.1424C19.6498 19.1103 19.2338 14.1718 18.9318 10.5995C18.7538 8.4953 18.5977 6.61712 18.5777 6.4091C18.5357 6.06507 18.5457 6.03507 18.7438 5.92106C19.0058 5.79504 19.1418 5.76504 19.1918 5.86905ZM40.8598 7.4532C41.0899 7.52521 41.1099 7.56721 41.1539 8.01525C41.2359 8.80733 41.2159 12.5677 41.1219 12.5677C40.8918 12.5677 40.4238 12.2957 40.3838 12.1516C40.3428 11.3256 40.3288 10.4984 40.3418 9.67141C40.3418 7.10917 40.3098 7.26518 40.8618 7.4532H40.8598ZM26.3285 7.81923C26.3285 8.03725 26.3825 9.20336 26.4425 10.4435L26.6085 13.9238C26.6725 15.2979 26.6825 15.2459 26.1525 15.2779C25.9024 15.2859 25.9024 15.2859 25.8804 14.8919C25.8584 14.6739 25.8304 13.9858 25.7764 13.3618C25.7344 12.7277 25.6404 11.3616 25.5784 10.3295C25.5377 9.56502 25.4816 8.80146 25.4104 8.03926C25.3704 7.64122 25.3804 7.63122 25.5884 7.54921C25.7458 7.49673 25.9105 7.46906 26.0764 7.4672C26.3265 7.4572 26.3265 7.4572 26.3265 7.83323L26.3285 7.81923ZM48.1625 8.90134L48.4245 9.00535L48.4885 10.0594C48.5065 10.6295 48.5286 11.8816 48.5065 12.8197L48.4885 14.5259L48.1545 14.3718L47.8205 14.2038L47.7985 11.6016C47.7885 10.1535 47.7885 8.93534 47.8085 8.88133C47.8385 8.76732 47.8385 8.76732 48.1605 8.90334L48.1625 8.90134ZM33.7872 9.93343C33.8372 9.97344 33.9412 13.7978 33.9532 15.734L33.9632 16.9021L33.5892 16.8381C33.4631 16.8301 33.3271 16.8081 33.1911 16.7881C33.1691 16.7661 32.9411 10.9335 32.9411 10.3715V9.78742L33.3391 9.84142C33.4931 9.84942 33.6412 9.87943 33.7872 9.93343ZM51.9149 10.4855C52.0089 10.5995 52.0289 12.3177 52.0509 21.8305C52.0689 32.7456 52.0689 33.0296 51.9369 33.0296C51.8359 33.0256 51.7381 32.993 51.6548 32.9356C51.5408 32.8396 51.5288 31.8935 51.4888 22.5686C51.4788 18.7661 51.4468 14.9637 51.3928 11.1615L51.3428 10.0254L51.5728 10.1915C51.7089 10.2855 51.8529 10.4215 51.9269 10.4855H51.9149ZM44.8602 12.0996C44.9022 12.1416 44.9342 12.5897 44.9422 13.0997C44.9842 14.8379 44.9842 25.4989 44.9522 25.5269C44.9342 25.5489 44.7982 25.5049 44.6302 25.4449L44.3502 25.3309V11.9456L44.5802 11.9856C44.6942 12.0276 44.8202 12.0676 44.8602 12.1116V12.0996ZM23.1302 12.5477C23.1622 12.7557 23.1922 13.2357 23.2242 13.6298L23.3502 15.58C23.4322 16.9641 23.4222 17.0601 22.9742 17.0601C22.7341 17.0601 22.7041 17.0281 22.6721 16.7981C22.6001 16.328 22.3181 12.4637 22.3601 12.3917C22.5579 12.2859 22.7723 12.2148 22.9942 12.1816C23.0482 12.1716 23.1082 12.3397 23.1302 12.5477ZM10.1189 14.5479L10.503 18.4342C10.629 19.7283 10.743 20.8325 10.743 20.8825C10.743 20.9765 10.141 21.2805 10.0769 21.2045C9.76573 18.7713 9.49167 16.3334 9.25487 13.8918C9.25487 13.7058 9.85692 12.9017 9.93293 12.9957C9.96293 13.0057 10.0369 13.7158 10.1189 14.5479ZM40.9738 15.3819L41.2039 15.504L41.2139 17.2141C41.2239 18.1422 41.2359 19.1823 41.2359 19.5163C41.2579 20.2264 41.1639 20.3504 40.7338 20.1944L40.4958 20.1124V19.4343C40.4958 19.0603 40.4738 17.9642 40.4418 16.9961L40.3878 15.2459H40.5778C40.7166 15.2657 40.8524 15.3119 40.9738 15.3819ZM13.5673 18.4322L14.0873 24.0988L14.3593 27.005L14.0473 27.3171L13.7533 27.6191L13.6913 26.995C13.6593 26.651 13.5013 25.0488 13.3373 23.4207C13.1692 21.8065 12.9392 19.4523 12.8172 18.2022L12.5992 15.932L12.9112 15.65C13.1812 15.3919 13.2132 15.3799 13.2652 15.524C13.2952 15.61 13.4313 16.9101 13.5673 18.4302V18.4322ZM7.67072 19.3823C7.84674 20.9345 8.30478 25.0609 8.70282 28.5492C9.08685 32.0295 9.46289 35.3958 9.53489 36.0299C9.5989 36.6539 9.70291 37.604 9.76492 38.1561C9.87893 39.0702 9.87893 39.1342 9.75492 39.2282C9.5689 39.3742 9.48489 39.3542 9.48489 39.1862C9.48489 39.1142 9.41088 38.5201 9.32687 37.8741C9.19086 36.802 8.95084 34.9678 8.42079 30.8634C8.31678 30.0413 8.09876 28.3972 7.95075 27.2071C7.61389 24.6562 7.28786 22.1039 6.97265 19.5503C6.82664 18.4782 6.74263 17.5281 6.76463 17.4241C6.81864 17.2061 7.28468 16.478 7.33869 16.518C7.34869 16.5401 7.5047 17.8322 7.68272 19.3843L7.67072 19.3823ZM5.26449 22.7766L5.75254 26.619C5.89855 27.7771 6.08657 29.2352 6.17858 29.8413L6.32459 30.9454L6.15658 31.0894C6.06257 31.1634 5.97056 31.1934 5.93856 31.1634C5.90855 31.1414 5.84455 30.8194 5.79454 30.4754C5.75254 30.1313 5.46051 28.0991 5.14848 25.9849L4.58643 22.1306L4.76245 21.6005C4.81645 21.4105 4.88846 21.2345 4.98047 21.0665C5.02247 21.0665 5.14048 21.8405 5.26449 22.7766ZM48.4765 21.7445C48.5906 21.8486 48.6026 22.3386 48.6026 25.9529V30.0393H48.3845C47.9045 30.0393 47.9145 30.1653 47.8725 25.6949L47.8505 21.6205H48.1005C48.2365 21.6205 48.4125 21.6725 48.4765 21.7445ZM31.2449 23.1527C33.0271 23.4227 34.5792 23.9127 36.1094 24.7048C37.0995 25.2149 37.5795 25.5689 38.6836 26.619C40.3178 28.1811 41.3179 29.5573 42.268 31.4975C43.6421 34.3077 44.1821 36.81 44.8602 43.4986C45.1642 46.4989 45.5703 51.9374 45.6523 54.1656C45.6743 54.8116 45.7343 55.8717 45.7783 56.5178C45.8603 57.9039 45.9643 57.7179 44.7462 58.31C43.05 59.134 41.4239 59.6961 39.2757 60.2162C36.6414 60.8622 34.9413 61.0702 32.349 61.0802L30.4629 61.0902L30.4729 60.1841C30.4729 59.6861 30.5229 58.528 30.5669 57.6219C30.8069 53.2475 30.7529 47.707 30.4529 44.6427C30.2748 42.8725 29.9408 40.7363 29.7548 40.2683C29.7148 40.1643 29.8908 40.0683 30.6729 39.8102C32.099 39.3082 33.3391 38.6961 33.5151 38.3841C33.8592 37.8 33.2571 36.966 32.4851 36.966C32.349 36.966 31.941 37.112 31.579 37.28C29.8188 38.0801 26.2745 39.0402 24.2443 39.2482C22.5341 39.3942 20.818 39.3202 19.1298 39.0402C18.2957 38.8821 16.8176 38.3301 15.5875 37.696C14.1573 36.954 13.2832 35.9659 13.0252 34.7998C12.8892 34.1737 12.9212 32.9136 13.1072 32.2055C13.3052 31.4235 13.8453 30.2873 14.3573 29.6313C16.5976 26.685 21.232 24.1208 25.9724 23.2247C27.7163 22.9358 29.4938 22.9115 31.2449 23.1527ZM55.5272 23.4007C55.8092 23.5147 55.8392 23.5467 55.8392 23.8187C55.8612 25.9629 55.8092 30.8694 55.7672 31.0774C55.7672 31.1514 55.3612 31.1634 55.1832 31.0874C55.0692 31.0574 55.0572 30.6294 55.0572 27.161C55.0572 24.6708 55.0892 23.2647 55.1432 23.2647C55.1732 23.2647 55.3612 23.3267 55.5272 23.3907V23.4007ZM58.9655 27.7171L59.2476 27.8431L59.1936 34.3537C59.1315 42.6565 59.1215 42.9065 58.8195 43.6246C58.3395 44.7927 58.3615 45.0327 58.4015 39.8862C58.4235 37.312 58.4655 34.7098 58.4755 34.0937C58.4975 33.4916 58.5055 31.7815 58.5155 30.2913C58.5155 28.5012 58.5375 27.6051 58.6015 27.6051C58.6415 27.6051 58.8095 27.6551 58.9635 27.7191L58.9655 27.7171ZM11.6271 29.6853C11.6811 30.3193 11.6691 30.3833 11.4291 30.8834L11.179 31.4254L11.085 30.6334C10.939 29.3753 10.939 29.3213 11.2431 29.1352C11.3791 29.0412 11.5131 28.9772 11.5331 28.9892C11.5651 29.0112 11.6051 29.3232 11.6271 29.6873V29.6853ZM6.76263 34.4237C6.83464 35.0698 7.38669 39.3522 7.66872 41.4564C8.09476 44.7067 8.12676 45.1767 7.93875 44.9767C7.78275 44.1682 7.65134 43.355 7.54471 42.5385C6.31459 34.0597 6.32659 34.1117 6.4306 34.0497C6.63862 33.9037 6.71063 33.9857 6.76263 34.4237ZM12.4312 38.0301C12.4852 38.2281 12.7132 40.3643 12.7132 40.6223C12.7132 40.8403 12.4312 41.0404 12.3052 40.9163C12.2652 40.8743 12.1591 40.2063 12.0751 39.4362L11.8891 37.634L11.8351 37.24L12.1071 37.552C12.2431 37.698 12.3472 37.854 12.4292 38.0321L12.4312 38.0301ZM18.7858 40.9983C18.8678 41.0804 18.9318 41.3964 19.0038 42.2385C19.1178 43.7806 19.1398 43.6546 18.8178 43.6546C18.4837 43.6546 18.4957 43.6866 18.3797 42.2885C18.2737 40.8823 18.2737 40.9043 18.4837 40.9043C18.5877 40.9043 18.7218 40.9463 18.7858 40.9983ZM25.0263 41.1124C25.0363 41.1944 25.0764 41.6644 25.1084 42.1665C25.1304 42.6545 25.2024 43.7806 25.2664 44.6447C25.4844 47.823 25.4924 48.229 25.3604 48.229C25.2024 48.229 25.1924 48.103 25.0163 45.8628C24.9439 44.7789 24.8566 43.696 24.7543 42.6145C24.6923 41.7584 24.6403 41.0404 24.6723 41.0303C24.7543 40.9363 24.9843 40.9983 25.0263 41.1124ZM10.223 42.6225C10.273 42.6965 10.577 45.2167 10.941 48.6551C11.055 49.6972 11.163 50.6973 11.181 50.8853L11.2231 51.2193L11.025 51.0933C10.9575 51.0562 10.9024 50.9999 10.8668 50.9316C10.8312 50.8632 10.8167 50.7859 10.825 50.7093C10.825 50.2192 10.483 46.9489 10.223 44.9487C10.1222 44.211 10.0349 43.4714 9.96093 42.7305C9.96093 42.5625 10.151 42.5005 10.223 42.6345V42.6225ZM55.6432 45.9148L55.5932 49.2051L55.3932 49.4991C54.9452 50.1652 54.9672 50.2892 54.9872 46.6029L55.0092 43.2266L55.2992 42.9245C55.4019 42.8133 55.5174 42.7147 55.6432 42.6305C55.6752 42.6305 55.6752 44.1106 55.6432 45.9248V45.9148ZM48.3725 51.1353C48.4025 55.7097 48.4025 56.0638 48.2765 56.2078C48.1945 56.2898 48.1225 56.3438 48.1005 56.3218C48.0505 56.2598 47.9645 46.2888 48.0285 46.2268C48.0585 46.1948 48.1425 46.1848 48.2045 46.1848C48.3085 46.2168 48.3405 46.7689 48.3725 51.1353ZM22.6601 47.999C22.7141 48.4891 22.9102 50.8333 22.9942 51.9374C23.0362 52.6654 23.0362 52.6974 22.8681 52.7474C22.7741 52.7795 22.6601 52.7695 22.6281 52.7374C22.5781 52.6754 22.3981 50.9373 22.1901 48.239L22.1281 47.593H22.3781C22.6041 47.593 22.6161 47.615 22.6581 47.999H22.6601ZM16.4735 50.7593C16.5236 50.8133 16.5676 51.0093 16.5676 51.2073C16.5676 51.4153 16.6616 52.4794 16.7656 53.5735C17.0676 56.5958 17.0876 56.9999 16.9516 56.9178C16.7436 56.8038 16.5676 56.6238 16.6076 56.5738C16.6076 56.2838 16.5776 55.9898 16.5256 55.6997C16.4633 55.1487 16.412 54.5966 16.3715 54.0436C16.3267 53.4272 16.2707 52.8117 16.2035 52.1974C16.0575 50.8233 16.0675 50.6553 16.2355 50.6553C16.3175 50.6553 16.4215 50.6973 16.4755 50.7493L16.4735 50.7593ZM20.1919 56.0518C20.2239 56.2278 20.2659 56.8738 20.2959 57.4899C20.3599 58.666 20.3279 58.748 20.0059 58.512C19.9119 58.438 19.8479 58.146 19.7559 57.2499C19.5898 55.6237 19.5898 55.6877 19.8919 55.7197C20.1219 55.7377 20.1539 55.7697 20.1939 56.0538L20.1919 56.0518ZM17.3876 26.925C16.5656 27.2791 16.5015 28.3952 17.2736 28.7792C17.8357 29.0692 18.3997 28.9372 18.6918 28.4452C19.2538 27.5711 18.3377 26.499 17.3876 26.925ZM22.7221 27.6851C22.5499 27.794 22.4079 27.9448 22.3096 28.1233C22.2113 28.3019 22.1597 28.5024 22.1597 28.7062C22.1597 28.91 22.2113 29.1105 22.3096 29.2891C22.4079 29.4676 22.5499 29.6184 22.7221 29.7273C23.4742 30.1733 24.4323 29.5813 24.4323 28.6852C24.4323 27.8211 23.4422 27.2371 22.7221 27.6751V27.6851Z"/>
</mask>
<g filter="url(#filter1_iiii_440_12341)">
<path d="M29.4748 0.0265025C29.3288 0.0365034 28.8487 0.0885083 28.4107 0.130512C22.2661 0.776573 16.2015 3.38082 11.2551 7.5152C9.93411 8.69047 8.68444 9.94348 7.5127 11.2676C3.41832 16.154 1.0241 21.6425 0.150014 28.1331C-0.0500047 29.5813 -0.0500047 34.4357 0.150014 35.8839C1.0241 42.3745 3.42032 47.863 7.5127 52.7495C8.68392 54.074 9.93362 55.3271 11.2551 56.5018C16.1515 60.5962 21.63 62.9804 28.1306 63.8645C29.5688 64.0645 34.4332 64.0645 35.8694 63.8645C42.36 62.9784 47.8485 60.5842 52.7349 56.5018C54.062 55.3297 55.3152 54.0765 56.4873 52.7495C60.5817 47.863 62.9659 42.3745 63.85 35.8839C64.05 34.4357 64.05 29.5813 63.85 28.1331C62.9639 21.6425 60.5797 16.154 56.4873 11.2676C55.3152 9.94047 54.062 8.68728 52.7349 7.5152C47.8605 3.44282 42.318 1.0166 35.9234 0.162515C35.2253 0.0665062 34.2252 0.0265025 32.349 0.0165015C31.3889 -0.00550052 30.4309 -0.00550052 29.4848 0.0165015L29.4748 0.0265025ZM29.8688 3.42082C29.8688 4.33891 29.9328 6.33909 30.0148 8.23527C30.0648 9.16336 30.1188 10.4975 30.1408 11.1936C30.2348 13.6418 30.4949 20.0904 30.5249 20.6644L30.5669 21.2385L30.2128 21.1965C30.0736 21.1946 29.9359 21.1668 29.8068 21.1145C29.7399 20.7152 29.7051 20.3112 29.7028 19.9064C29.4628 14.8119 29.2447 9.72941 29.0467 4.64294L28.9927 2.89277L29.2227 2.86077C29.3368 2.83877 29.5348 2.82076 29.6608 2.81076H29.8688V3.42082ZM37.4015 3.2348C37.4115 3.2448 37.4335 5.61903 37.4655 8.5153C37.4955 11.4116 37.5275 14.0278 37.5595 14.3078C37.5815 14.6019 37.5695 14.8499 37.5275 14.8599C37.3873 14.8919 37.2417 14.8919 37.1015 14.8599L36.7474 14.8299L36.6854 12.5357L36.6034 9.40938C36.5394 8.02525 36.4894 3.29481 36.5294 3.1708C36.5614 3.08479 36.6434 3.07479 36.9775 3.13879C37.2075 3.1788 37.3935 3.2208 37.4035 3.2328L37.4015 3.2348ZM19.1918 5.86905C19.2458 5.94306 19.6078 10.2775 20.0659 15.952L20.3879 19.8584C20.4299 20.2664 20.4199 20.2764 20.1699 20.4324C20.0755 20.5046 19.9701 20.5613 19.8579 20.6004C19.8359 20.6004 19.7859 20.3924 19.7639 20.1424C19.6498 19.1103 19.2338 14.1718 18.9318 10.5995C18.7538 8.4953 18.5977 6.61712 18.5777 6.4091C18.5357 6.06507 18.5457 6.03507 18.7438 5.92106C19.0058 5.79504 19.1418 5.76504 19.1918 5.86905ZM40.8598 7.4532C41.0899 7.52521 41.1099 7.56721 41.1539 8.01525C41.2359 8.80733 41.2159 12.5677 41.1219 12.5677C40.8918 12.5677 40.4238 12.2957 40.3838 12.1516C40.3428 11.3256 40.3288 10.4984 40.3418 9.67141C40.3418 7.10917 40.3098 7.26518 40.8618 7.4532H40.8598ZM26.3285 7.81923C26.3285 8.03725 26.3825 9.20336 26.4425 10.4435L26.6085 13.9238C26.6725 15.2979 26.6825 15.2459 26.1525 15.2779C25.9024 15.2859 25.9024 15.2859 25.8804 14.8919C25.8584 14.6739 25.8304 13.9858 25.7764 13.3618C25.7344 12.7277 25.6404 11.3616 25.5784 10.3295C25.5377 9.56502 25.4816 8.80146 25.4104 8.03926C25.3704 7.64122 25.3804 7.63122 25.5884 7.54921C25.7458 7.49673 25.9105 7.46906 26.0764 7.4672C26.3265 7.4572 26.3265 7.4572 26.3265 7.83323L26.3285 7.81923ZM48.1625 8.90134L48.4245 9.00535L48.4885 10.0594C48.5065 10.6295 48.5286 11.8816 48.5065 12.8197L48.4885 14.5259L48.1545 14.3718L47.8205 14.2038L47.7985 11.6016C47.7885 10.1535 47.7885 8.93534 47.8085 8.88133C47.8385 8.76732 47.8385 8.76732 48.1605 8.90334L48.1625 8.90134ZM33.7872 9.93343C33.8372 9.97344 33.9412 13.7978 33.9532 15.734L33.9632 16.9021L33.5892 16.8381C33.4631 16.8301 33.3271 16.8081 33.1911 16.7881C33.1691 16.7661 32.9411 10.9335 32.9411 10.3715V9.78742L33.3391 9.84142C33.4931 9.84942 33.6412 9.87943 33.7872 9.93343ZM51.9149 10.4855C52.0089 10.5995 52.0289 12.3177 52.0509 21.8305C52.0689 32.7456 52.0689 33.0296 51.9369 33.0296C51.8359 33.0256 51.7381 32.993 51.6548 32.9356C51.5408 32.8396 51.5288 31.8935 51.4888 22.5686C51.4788 18.7661 51.4468 14.9637 51.3928 11.1615L51.3428 10.0254L51.5728 10.1915C51.7089 10.2855 51.8529 10.4215 51.9269 10.4855H51.9149ZM44.8602 12.0996C44.9022 12.1416 44.9342 12.5897 44.9422 13.0997C44.9842 14.8379 44.9842 25.4989 44.9522 25.5269C44.9342 25.5489 44.7982 25.5049 44.6302 25.4449L44.3502 25.3309V11.9456L44.5802 11.9856C44.6942 12.0276 44.8202 12.0676 44.8602 12.1116V12.0996ZM23.1302 12.5477C23.1622 12.7557 23.1922 13.2357 23.2242 13.6298L23.3502 15.58C23.4322 16.9641 23.4222 17.0601 22.9742 17.0601C22.7341 17.0601 22.7041 17.0281 22.6721 16.7981C22.6001 16.328 22.3181 12.4637 22.3601 12.3917C22.5579 12.2859 22.7723 12.2148 22.9942 12.1816C23.0482 12.1716 23.1082 12.3397 23.1302 12.5477ZM10.1189 14.5479L10.503 18.4342C10.629 19.7283 10.743 20.8325 10.743 20.8825C10.743 20.9765 10.141 21.2805 10.0769 21.2045C9.76573 18.7713 9.49167 16.3334 9.25487 13.8918C9.25487 13.7058 9.85692 12.9017 9.93293 12.9957C9.96293 13.0057 10.0369 13.7158 10.1189 14.5479ZM40.9738 15.3819L41.2039 15.504L41.2139 17.2141C41.2239 18.1422 41.2359 19.1823 41.2359 19.5163C41.2579 20.2264 41.1639 20.3504 40.7338 20.1944L40.4958 20.1124V19.4343C40.4958 19.0603 40.4738 17.9642 40.4418 16.9961L40.3878 15.2459H40.5778C40.7166 15.2657 40.8524 15.3119 40.9738 15.3819ZM13.5673 18.4322L14.0873 24.0988L14.3593 27.005L14.0473 27.3171L13.7533 27.6191L13.6913 26.995C13.6593 26.651 13.5013 25.0488 13.3373 23.4207C13.1692 21.8065 12.9392 19.4523 12.8172 18.2022L12.5992 15.932L12.9112 15.65C13.1812 15.3919 13.2132 15.3799 13.2652 15.524C13.2952 15.61 13.4313 16.9101 13.5673 18.4302V18.4322ZM7.67072 19.3823C7.84674 20.9345 8.30478 25.0609 8.70282 28.5492C9.08685 32.0295 9.46289 35.3958 9.53489 36.0299C9.5989 36.6539 9.70291 37.604 9.76492 38.1561C9.87893 39.0702 9.87893 39.1342 9.75492 39.2282C9.5689 39.3742 9.48489 39.3542 9.48489 39.1862C9.48489 39.1142 9.41088 38.5201 9.32687 37.8741C9.19086 36.802 8.95084 34.9678 8.42079 30.8634C8.31678 30.0413 8.09876 28.3972 7.95075 27.2071C7.61389 24.6562 7.28786 22.1039 6.97265 19.5503C6.82664 18.4782 6.74263 17.5281 6.76463 17.4241C6.81864 17.2061 7.28468 16.478 7.33869 16.518C7.34869 16.5401 7.5047 17.8322 7.68272 19.3843L7.67072 19.3823ZM5.26449 22.7766L5.75254 26.619C5.89855 27.7771 6.08657 29.2352 6.17858 29.8413L6.32459 30.9454L6.15658 31.0894C6.06257 31.1634 5.97056 31.1934 5.93856 31.1634C5.90855 31.1414 5.84455 30.8194 5.79454 30.4754C5.75254 30.1313 5.46051 28.0991 5.14848 25.9849L4.58643 22.1306L4.76245 21.6005C4.81645 21.4105 4.88846 21.2345 4.98047 21.0665C5.02247 21.0665 5.14048 21.8405 5.26449 22.7766ZM48.4765 21.7445C48.5906 21.8486 48.6026 22.3386 48.6026 25.9529V30.0393H48.3845C47.9045 30.0393 47.9145 30.1653 47.8725 25.6949L47.8505 21.6205H48.1005C48.2365 21.6205 48.4125 21.6725 48.4765 21.7445ZM31.2449 23.1527C33.0271 23.4227 34.5792 23.9127 36.1094 24.7048C37.0995 25.2149 37.5795 25.5689 38.6836 26.619C40.3178 28.1811 41.3179 29.5573 42.268 31.4975C43.6421 34.3077 44.1821 36.81 44.8602 43.4986C45.1642 46.4989 45.5703 51.9374 45.6523 54.1656C45.6743 54.8116 45.7343 55.8717 45.7783 56.5178C45.8603 57.9039 45.9643 57.7179 44.7462 58.31C43.05 59.134 41.4239 59.6961 39.2757 60.2162C36.6414 60.8622 34.9413 61.0702 32.349 61.0802L30.4629 61.0902L30.4729 60.1841C30.4729 59.6861 30.5229 58.528 30.5669 57.6219C30.8069 53.2475 30.7529 47.707 30.4529 44.6427C30.2748 42.8725 29.9408 40.7363 29.7548 40.2683C29.7148 40.1643 29.8908 40.0683 30.6729 39.8102C32.099 39.3082 33.3391 38.6961 33.5151 38.3841C33.8592 37.8 33.2571 36.966 32.4851 36.966C32.349 36.966 31.941 37.112 31.579 37.28C29.8188 38.0801 26.2745 39.0402 24.2443 39.2482C22.5341 39.3942 20.818 39.3202 19.1298 39.0402C18.2957 38.8821 16.8176 38.3301 15.5875 37.696C14.1573 36.954 13.2832 35.9659 13.0252 34.7998C12.8892 34.1737 12.9212 32.9136 13.1072 32.2055C13.3052 31.4235 13.8453 30.2873 14.3573 29.6313C16.5976 26.685 21.232 24.1208 25.9724 23.2247C27.7163 22.9358 29.4938 22.9115 31.2449 23.1527ZM55.5272 23.4007C55.8092 23.5147 55.8392 23.5467 55.8392 23.8187C55.8612 25.9629 55.8092 30.8694 55.7672 31.0774C55.7672 31.1514 55.3612 31.1634 55.1832 31.0874C55.0692 31.0574 55.0572 30.6294 55.0572 27.161C55.0572 24.6708 55.0892 23.2647 55.1432 23.2647C55.1732 23.2647 55.3612 23.3267 55.5272 23.3907V23.4007ZM58.9655 27.7171L59.2476 27.8431L59.1936 34.3537C59.1315 42.6565 59.1215 42.9065 58.8195 43.6246C58.3395 44.7927 58.3615 45.0327 58.4015 39.8862C58.4235 37.312 58.4655 34.7098 58.4755 34.0937C58.4975 33.4916 58.5055 31.7815 58.5155 30.2913C58.5155 28.5012 58.5375 27.6051 58.6015 27.6051C58.6415 27.6051 58.8095 27.6551 58.9635 27.7191L58.9655 27.7171ZM11.6271 29.6853C11.6811 30.3193 11.6691 30.3833 11.4291 30.8834L11.179 31.4254L11.085 30.6334C10.939 29.3753 10.939 29.3213 11.2431 29.1352C11.3791 29.0412 11.5131 28.9772 11.5331 28.9892C11.5651 29.0112 11.6051 29.3232 11.6271 29.6873V29.6853ZM6.76263 34.4237C6.83464 35.0698 7.38669 39.3522 7.66872 41.4564C8.09476 44.7067 8.12676 45.1767 7.93875 44.9767C7.78275 44.1682 7.65134 43.355 7.54471 42.5385C6.31459 34.0597 6.32659 34.1117 6.4306 34.0497C6.63862 33.9037 6.71063 33.9857 6.76263 34.4237ZM12.4312 38.0301C12.4852 38.2281 12.7132 40.3643 12.7132 40.6223C12.7132 40.8403 12.4312 41.0404 12.3052 40.9163C12.2652 40.8743 12.1591 40.2063 12.0751 39.4362L11.8891 37.634L11.8351 37.24L12.1071 37.552C12.2431 37.698 12.3472 37.854 12.4292 38.0321L12.4312 38.0301ZM18.7858 40.9983C18.8678 41.0804 18.9318 41.3964 19.0038 42.2385C19.1178 43.7806 19.1398 43.6546 18.8178 43.6546C18.4837 43.6546 18.4957 43.6866 18.3797 42.2885C18.2737 40.8823 18.2737 40.9043 18.4837 40.9043C18.5877 40.9043 18.7218 40.9463 18.7858 40.9983ZM25.0263 41.1124C25.0363 41.1944 25.0764 41.6644 25.1084 42.1665C25.1304 42.6545 25.2024 43.7806 25.2664 44.6447C25.4844 47.823 25.4924 48.229 25.3604 48.229C25.2024 48.229 25.1924 48.103 25.0163 45.8628C24.9439 44.7789 24.8566 43.696 24.7543 42.6145C24.6923 41.7584 24.6403 41.0404 24.6723 41.0303C24.7543 40.9363 24.9843 40.9983 25.0263 41.1124ZM10.223 42.6225C10.273 42.6965 10.577 45.2167 10.941 48.6551C11.055 49.6972 11.163 50.6973 11.181 50.8853L11.2231 51.2193L11.025 51.0933C10.9575 51.0562 10.9024 50.9999 10.8668 50.9316C10.8312 50.8632 10.8167 50.7859 10.825 50.7093C10.825 50.2192 10.483 46.9489 10.223 44.9487C10.1222 44.211 10.0349 43.4714 9.96093 42.7305C9.96093 42.5625 10.151 42.5005 10.223 42.6345V42.6225ZM55.6432 45.9148L55.5932 49.2051L55.3932 49.4991C54.9452 50.1652 54.9672 50.2892 54.9872 46.6029L55.0092 43.2266L55.2992 42.9245C55.4019 42.8133 55.5174 42.7147 55.6432 42.6305C55.6752 42.6305 55.6752 44.1106 55.6432 45.9248V45.9148ZM48.3725 51.1353C48.4025 55.7097 48.4025 56.0638 48.2765 56.2078C48.1945 56.2898 48.1225 56.3438 48.1005 56.3218C48.0505 56.2598 47.9645 46.2888 48.0285 46.2268C48.0585 46.1948 48.1425 46.1848 48.2045 46.1848C48.3085 46.2168 48.3405 46.7689 48.3725 51.1353ZM22.6601 47.999C22.7141 48.4891 22.9102 50.8333 22.9942 51.9374C23.0362 52.6654 23.0362 52.6974 22.8681 52.7474C22.7741 52.7795 22.6601 52.7695 22.6281 52.7374C22.5781 52.6754 22.3981 50.9373 22.1901 48.239L22.1281 47.593H22.3781C22.6041 47.593 22.6161 47.615 22.6581 47.999H22.6601ZM16.4735 50.7593C16.5236 50.8133 16.5676 51.0093 16.5676 51.2073C16.5676 51.4153 16.6616 52.4794 16.7656 53.5735C17.0676 56.5958 17.0876 56.9999 16.9516 56.9178C16.7436 56.8038 16.5676 56.6238 16.6076 56.5738C16.6076 56.2838 16.5776 55.9898 16.5256 55.6997C16.4633 55.1487 16.412 54.5966 16.3715 54.0436C16.3267 53.4272 16.2707 52.8117 16.2035 52.1974C16.0575 50.8233 16.0675 50.6553 16.2355 50.6553C16.3175 50.6553 16.4215 50.6973 16.4755 50.7493L16.4735 50.7593ZM20.1919 56.0518C20.2239 56.2278 20.2659 56.8738 20.2959 57.4899C20.3599 58.666 20.3279 58.748 20.0059 58.512C19.9119 58.438 19.8479 58.146 19.7559 57.2499C19.5898 55.6237 19.5898 55.6877 19.8919 55.7197C20.1219 55.7377 20.1539 55.7697 20.1939 56.0538L20.1919 56.0518ZM17.3876 26.925C16.5656 27.2791 16.5015 28.3952 17.2736 28.7792C17.8357 29.0692 18.3997 28.9372 18.6918 28.4452C19.2538 27.5711 18.3377 26.499 17.3876 26.925ZM22.7221 27.6851C22.5499 27.794 22.4079 27.9448 22.3096 28.1233C22.2113 28.3019 22.1597 28.5024 22.1597 28.7062C22.1597 28.91 22.2113 29.1105 22.3096 29.2891C22.4079 29.4676 22.5499 29.6184 22.7221 29.7273C23.4742 30.1733 24.4323 29.5813 24.4323 28.6852C24.4323 27.8211 23.4422 27.2371 22.7221 27.6751V27.6851Z" fill="url(#paint0_linear_440_12341)"/>
</g>
<path d="M29.4748 0.0265025C29.3288 0.0365034 28.8487 0.0885083 28.4107 0.130512C22.2661 0.776573 16.2015 3.38082 11.2551 7.5152C9.93411 8.69047 8.68444 9.94348 7.5127 11.2676C3.41832 16.154 1.0241 21.6425 0.150014 28.1331C-0.0500047 29.5813 -0.0500047 34.4357 0.150014 35.8839C1.0241 42.3745 3.42032 47.863 7.5127 52.7495C8.68392 54.074 9.93362 55.3271 11.2551 56.5018C16.1515 60.5962 21.63 62.9804 28.1306 63.8645C29.5688 64.0645 34.4332 64.0645 35.8694 63.8645C42.36 62.9784 47.8485 60.5842 52.7349 56.5018C54.062 55.3297 55.3152 54.0765 56.4873 52.7495C60.5817 47.863 62.9659 42.3745 63.85 35.8839C64.05 34.4357 64.05 29.5813 63.85 28.1331C62.9639 21.6425 60.5797 16.154 56.4873 11.2676C55.3152 9.94047 54.062 8.68728 52.7349 7.5152C47.8605 3.44282 42.318 1.0166 35.9234 0.162515C35.2253 0.0665062 34.2252 0.0265025 32.349 0.0165015C31.3889 -0.00550052 30.4309 -0.00550052 29.4848 0.0165015L29.4748 0.0265025ZM29.8688 3.42082C29.8688 4.33891 29.9328 6.33909 30.0148 8.23527C30.0648 9.16336 30.1188 10.4975 30.1408 11.1936C30.2348 13.6418 30.4949 20.0904 30.5249 20.6644L30.5669 21.2385L30.2128 21.1965C30.0736 21.1946 29.9359 21.1668 29.8068 21.1145C29.7399 20.7152 29.7051 20.3112 29.7028 19.9064C29.4628 14.8119 29.2447 9.72941 29.0467 4.64294L28.9927 2.89277L29.2227 2.86077C29.3368 2.83877 29.5348 2.82076 29.6608 2.81076H29.8688V3.42082ZM37.4015 3.2348C37.4115 3.2448 37.4335 5.61903 37.4655 8.5153C37.4955 11.4116 37.5275 14.0278 37.5595 14.3078C37.5815 14.6019 37.5695 14.8499 37.5275 14.8599C37.3873 14.8919 37.2417 14.8919 37.1015 14.8599L36.7474 14.8299L36.6854 12.5357L36.6034 9.40938C36.5394 8.02525 36.4894 3.29481 36.5294 3.1708C36.5614 3.08479 36.6434 3.07479 36.9775 3.13879C37.2075 3.1788 37.3935 3.2208 37.4035 3.2328L37.4015 3.2348ZM19.1918 5.86905C19.2458 5.94306 19.6078 10.2775 20.0659 15.952L20.3879 19.8584C20.4299 20.2664 20.4199 20.2764 20.1699 20.4324C20.0755 20.5046 19.9701 20.5613 19.8579 20.6004C19.8359 20.6004 19.7859 20.3924 19.7639 20.1424C19.6498 19.1103 19.2338 14.1718 18.9318 10.5995C18.7538 8.4953 18.5977 6.61712 18.5777 6.4091C18.5357 6.06507 18.5457 6.03507 18.7438 5.92106C19.0058 5.79504 19.1418 5.76504 19.1918 5.86905ZM40.8598 7.4532C41.0899 7.52521 41.1099 7.56721 41.1539 8.01525C41.2359 8.80733 41.2159 12.5677 41.1219 12.5677C40.8918 12.5677 40.4238 12.2957 40.3838 12.1516C40.3428 11.3256 40.3288 10.4984 40.3418 9.67141C40.3418 7.10917 40.3098 7.26518 40.8618 7.4532H40.8598ZM26.3285 7.81923C26.3285 8.03725 26.3825 9.20336 26.4425 10.4435L26.6085 13.9238C26.6725 15.2979 26.6825 15.2459 26.1525 15.2779C25.9024 15.2859 25.9024 15.2859 25.8804 14.8919C25.8584 14.6739 25.8304 13.9858 25.7764 13.3618C25.7344 12.7277 25.6404 11.3616 25.5784 10.3295C25.5377 9.56502 25.4816 8.80146 25.4104 8.03926C25.3704 7.64122 25.3804 7.63122 25.5884 7.54921C25.7458 7.49673 25.9105 7.46906 26.0764 7.4672C26.3265 7.4572 26.3265 7.4572 26.3265 7.83323L26.3285 7.81923ZM48.1625 8.90134L48.4245 9.00535L48.4885 10.0594C48.5065 10.6295 48.5286 11.8816 48.5065 12.8197L48.4885 14.5259L48.1545 14.3718L47.8205 14.2038L47.7985 11.6016C47.7885 10.1535 47.7885 8.93534 47.8085 8.88133C47.8385 8.76732 47.8385 8.76732 48.1605 8.90334L48.1625 8.90134ZM33.7872 9.93343C33.8372 9.97344 33.9412 13.7978 33.9532 15.734L33.9632 16.9021L33.5892 16.8381C33.4631 16.8301 33.3271 16.8081 33.1911 16.7881C33.1691 16.7661 32.9411 10.9335 32.9411 10.3715V9.78742L33.3391 9.84142C33.4931 9.84942 33.6412 9.87943 33.7872 9.93343ZM51.9149 10.4855C52.0089 10.5995 52.0289 12.3177 52.0509 21.8305C52.0689 32.7456 52.0689 33.0296 51.9369 33.0296C51.8359 33.0256 51.7381 32.993 51.6548 32.9356C51.5408 32.8396 51.5288 31.8935 51.4888 22.5686C51.4788 18.7661 51.4468 14.9637 51.3928 11.1615L51.3428 10.0254L51.5728 10.1915C51.7089 10.2855 51.8529 10.4215 51.9269 10.4855H51.9149ZM44.8602 12.0996C44.9022 12.1416 44.9342 12.5897 44.9422 13.0997C44.9842 14.8379 44.9842 25.4989 44.9522 25.5269C44.9342 25.5489 44.7982 25.5049 44.6302 25.4449L44.3502 25.3309V11.9456L44.5802 11.9856C44.6942 12.0276 44.8202 12.0676 44.8602 12.1116V12.0996ZM23.1302 12.5477C23.1622 12.7557 23.1922 13.2357 23.2242 13.6298L23.3502 15.58C23.4322 16.9641 23.4222 17.0601 22.9742 17.0601C22.7341 17.0601 22.7041 17.0281 22.6721 16.7981C22.6001 16.328 22.3181 12.4637 22.3601 12.3917C22.5579 12.2859 22.7723 12.2148 22.9942 12.1816C23.0482 12.1716 23.1082 12.3397 23.1302 12.5477ZM10.1189 14.5479L10.503 18.4342C10.629 19.7283 10.743 20.8325 10.743 20.8825C10.743 20.9765 10.141 21.2805 10.0769 21.2045C9.76573 18.7713 9.49167 16.3334 9.25487 13.8918C9.25487 13.7058 9.85692 12.9017 9.93293 12.9957C9.96293 13.0057 10.0369 13.7158 10.1189 14.5479ZM40.9738 15.3819L41.2039 15.504L41.2139 17.2141C41.2239 18.1422 41.2359 19.1823 41.2359 19.5163C41.2579 20.2264 41.1639 20.3504 40.7338 20.1944L40.4958 20.1124V19.4343C40.4958 19.0603 40.4738 17.9642 40.4418 16.9961L40.3878 15.2459H40.5778C40.7166 15.2657 40.8524 15.3119 40.9738 15.3819ZM13.5673 18.4322L14.0873 24.0988L14.3593 27.005L14.0473 27.3171L13.7533 27.6191L13.6913 26.995C13.6593 26.651 13.5013 25.0488 13.3373 23.4207C13.1692 21.8065 12.9392 19.4523 12.8172 18.2022L12.5992 15.932L12.9112 15.65C13.1812 15.3919 13.2132 15.3799 13.2652 15.524C13.2952 15.61 13.4313 16.9101 13.5673 18.4302V18.4322ZM7.67072 19.3823C7.84674 20.9345 8.30478 25.0609 8.70282 28.5492C9.08685 32.0295 9.46289 35.3958 9.53489 36.0299C9.5989 36.6539 9.70291 37.604 9.76492 38.1561C9.87893 39.0702 9.87893 39.1342 9.75492 39.2282C9.5689 39.3742 9.48489 39.3542 9.48489 39.1862C9.48489 39.1142 9.41088 38.5201 9.32687 37.8741C9.19086 36.802 8.95084 34.9678 8.42079 30.8634C8.31678 30.0413 8.09876 28.3972 7.95075 27.2071C7.61389 24.6562 7.28786 22.1039 6.97265 19.5503C6.82664 18.4782 6.74263 17.5281 6.76463 17.4241C6.81864 17.2061 7.28468 16.478 7.33869 16.518C7.34869 16.5401 7.5047 17.8322 7.68272 19.3843L7.67072 19.3823ZM5.26449 22.7766L5.75254 26.619C5.89855 27.7771 6.08657 29.2352 6.17858 29.8413L6.32459 30.9454L6.15658 31.0894C6.06257 31.1634 5.97056 31.1934 5.93856 31.1634C5.90855 31.1414 5.84455 30.8194 5.79454 30.4754C5.75254 30.1313 5.46051 28.0991 5.14848 25.9849L4.58643 22.1306L4.76245 21.6005C4.81645 21.4105 4.88846 21.2345 4.98047 21.0665C5.02247 21.0665 5.14048 21.8405 5.26449 22.7766ZM48.4765 21.7445C48.5906 21.8486 48.6026 22.3386 48.6026 25.9529V30.0393H48.3845C47.9045 30.0393 47.9145 30.1653 47.8725 25.6949L47.8505 21.6205H48.1005C48.2365 21.6205 48.4125 21.6725 48.4765 21.7445ZM31.2449 23.1527C33.0271 23.4227 34.5792 23.9127 36.1094 24.7048C37.0995 25.2149 37.5795 25.5689 38.6836 26.619C40.3178 28.1811 41.3179 29.5573 42.268 31.4975C43.6421 34.3077 44.1821 36.81 44.8602 43.4986C45.1642 46.4989 45.5703 51.9374 45.6523 54.1656C45.6743 54.8116 45.7343 55.8717 45.7783 56.5178C45.8603 57.9039 45.9643 57.7179 44.7462 58.31C43.05 59.134 41.4239 59.6961 39.2757 60.2162C36.6414 60.8622 34.9413 61.0702 32.349 61.0802L30.4629 61.0902L30.4729 60.1841C30.4729 59.6861 30.5229 58.528 30.5669 57.6219C30.8069 53.2475 30.7529 47.707 30.4529 44.6427C30.2748 42.8725 29.9408 40.7363 29.7548 40.2683C29.7148 40.1643 29.8908 40.0683 30.6729 39.8102C32.099 39.3082 33.3391 38.6961 33.5151 38.3841C33.8592 37.8 33.2571 36.966 32.4851 36.966C32.349 36.966 31.941 37.112 31.579 37.28C29.8188 38.0801 26.2745 39.0402 24.2443 39.2482C22.5341 39.3942 20.818 39.3202 19.1298 39.0402C18.2957 38.8821 16.8176 38.3301 15.5875 37.696C14.1573 36.954 13.2832 35.9659 13.0252 34.7998C12.8892 34.1737 12.9212 32.9136 13.1072 32.2055C13.3052 31.4235 13.8453 30.2873 14.3573 29.6313C16.5976 26.685 21.232 24.1208 25.9724 23.2247C27.7163 22.9358 29.4938 22.9115 31.2449 23.1527ZM55.5272 23.4007C55.8092 23.5147 55.8392 23.5467 55.8392 23.8187C55.8612 25.9629 55.8092 30.8694 55.7672 31.0774C55.7672 31.1514 55.3612 31.1634 55.1832 31.0874C55.0692 31.0574 55.0572 30.6294 55.0572 27.161C55.0572 24.6708 55.0892 23.2647 55.1432 23.2647C55.1732 23.2647 55.3612 23.3267 55.5272 23.3907V23.4007ZM58.9655 27.7171L59.2476 27.8431L59.1936 34.3537C59.1315 42.6565 59.1215 42.9065 58.8195 43.6246C58.3395 44.7927 58.3615 45.0327 58.4015 39.8862C58.4235 37.312 58.4655 34.7098 58.4755 34.0937C58.4975 33.4916 58.5055 31.7815 58.5155 30.2913C58.5155 28.5012 58.5375 27.6051 58.6015 27.6051C58.6415 27.6051 58.8095 27.6551 58.9635 27.7191L58.9655 27.7171ZM11.6271 29.6853C11.6811 30.3193 11.6691 30.3833 11.4291 30.8834L11.179 31.4254L11.085 30.6334C10.939 29.3753 10.939 29.3213 11.2431 29.1352C11.3791 29.0412 11.5131 28.9772 11.5331 28.9892C11.5651 29.0112 11.6051 29.3232 11.6271 29.6873V29.6853ZM6.76263 34.4237C6.83464 35.0698 7.38669 39.3522 7.66872 41.4564C8.09476 44.7067 8.12676 45.1767 7.93875 44.9767C7.78275 44.1682 7.65134 43.355 7.54471 42.5385C6.31459 34.0597 6.32659 34.1117 6.4306 34.0497C6.63862 33.9037 6.71063 33.9857 6.76263 34.4237ZM12.4312 38.0301C12.4852 38.2281 12.7132 40.3643 12.7132 40.6223C12.7132 40.8403 12.4312 41.0404 12.3052 40.9163C12.2652 40.8743 12.1591 40.2063 12.0751 39.4362L11.8891 37.634L11.8351 37.24L12.1071 37.552C12.2431 37.698 12.3472 37.854 12.4292 38.0321L12.4312 38.0301ZM18.7858 40.9983C18.8678 41.0804 18.9318 41.3964 19.0038 42.2385C19.1178 43.7806 19.1398 43.6546 18.8178 43.6546C18.4837 43.6546 18.4957 43.6866 18.3797 42.2885C18.2737 40.8823 18.2737 40.9043 18.4837 40.9043C18.5877 40.9043 18.7218 40.9463 18.7858 40.9983ZM25.0263 41.1124C25.0363 41.1944 25.0764 41.6644 25.1084 42.1665C25.1304 42.6545 25.2024 43.7806 25.2664 44.6447C25.4844 47.823 25.4924 48.229 25.3604 48.229C25.2024 48.229 25.1924 48.103 25.0163 45.8628C24.9439 44.7789 24.8566 43.696 24.7543 42.6145C24.6923 41.7584 24.6403 41.0404 24.6723 41.0303C24.7543 40.9363 24.9843 40.9983 25.0263 41.1124ZM10.223 42.6225C10.273 42.6965 10.577 45.2167 10.941 48.6551C11.055 49.6972 11.163 50.6973 11.181 50.8853L11.2231 51.2193L11.025 51.0933C10.9575 51.0562 10.9024 50.9999 10.8668 50.9316C10.8312 50.8632 10.8167 50.7859 10.825 50.7093C10.825 50.2192 10.483 46.9489 10.223 44.9487C10.1222 44.211 10.0349 43.4714 9.96093 42.7305C9.96093 42.5625 10.151 42.5005 10.223 42.6345V42.6225ZM55.6432 45.9148L55.5932 49.2051L55.3932 49.4991C54.9452 50.1652 54.9672 50.2892 54.9872 46.6029L55.0092 43.2266L55.2992 42.9245C55.4019 42.8133 55.5174 42.7147 55.6432 42.6305C55.6752 42.6305 55.6752 44.1106 55.6432 45.9248V45.9148ZM48.3725 51.1353C48.4025 55.7097 48.4025 56.0638 48.2765 56.2078C48.1945 56.2898 48.1225 56.3438 48.1005 56.3218C48.0505 56.2598 47.9645 46.2888 48.0285 46.2268C48.0585 46.1948 48.1425 46.1848 48.2045 46.1848C48.3085 46.2168 48.3405 46.7689 48.3725 51.1353ZM22.6601 47.999C22.7141 48.4891 22.9102 50.8333 22.9942 51.9374C23.0362 52.6654 23.0362 52.6974 22.8681 52.7474C22.7741 52.7795 22.6601 52.7695 22.6281 52.7374C22.5781 52.6754 22.3981 50.9373 22.1901 48.239L22.1281 47.593H22.3781C22.6041 47.593 22.6161 47.615 22.6581 47.999H22.6601ZM16.4735 50.7593C16.5236 50.8133 16.5676 51.0093 16.5676 51.2073C16.5676 51.4153 16.6616 52.4794 16.7656 53.5735C17.0676 56.5958 17.0876 56.9999 16.9516 56.9178C16.7436 56.8038 16.5676 56.6238 16.6076 56.5738C16.6076 56.2838 16.5776 55.9898 16.5256 55.6997C16.4633 55.1487 16.412 54.5966 16.3715 54.0436C16.3267 53.4272 16.2707 52.8117 16.2035 52.1974C16.0575 50.8233 16.0675 50.6553 16.2355 50.6553C16.3175 50.6553 16.4215 50.6973 16.4755 50.7493L16.4735 50.7593ZM20.1919 56.0518C20.2239 56.2278 20.2659 56.8738 20.2959 57.4899C20.3599 58.666 20.3279 58.748 20.0059 58.512C19.9119 58.438 19.8479 58.146 19.7559 57.2499C19.5898 55.6237 19.5898 55.6877 19.8919 55.7197C20.1219 55.7377 20.1539 55.7697 20.1939 56.0538L20.1919 56.0518ZM17.3876 26.925C16.5656 27.2791 16.5015 28.3952 17.2736 28.7792C17.8357 29.0692 18.3997 28.9372 18.6918 28.4452C19.2538 27.5711 18.3377 26.499 17.3876 26.925ZM22.7221 27.6851C22.5499 27.794 22.4079 27.9448 22.3096 28.1233C22.2113 28.3019 22.1597 28.5024 22.1597 28.7062C22.1597 28.91 22.2113 29.1105 22.3096 29.2891C22.4079 29.4676 22.5499 29.6184 22.7221 29.7273C23.4742 30.1733 24.4323 29.5813 24.4323 28.6852C24.4323 27.8211 23.4422 27.2371 22.7221 27.6751V27.6851Z" stroke="url(#paint1_radial_440_12341)" stroke-opacity="0.2" stroke-width="2" mask="url(#path-1-inside-1_440_12341)"/>
</g>
<defs>
<filter id="filter0_iiii_440_12341" x="0" y="-4.13621" width="64" height="72.2871" filterUnits="userSpaceOnUse" color-interpolation-filters="sRGB">
<feFlood flood-opacity="0" result="BackgroundImageFix"/>
<feBlend mode="normal" in="SourceGraphic" in2="BackgroundImageFix" result="shape"/>
<feColorMatrix in="SourceAlpha" type="matrix" values="0 0 0 0 0 0 0 0 0 0 0 0 0 0 0 0 0 0 127 0" result="hardAlpha"/>
<feOffset dy="8.27243"/>
<feGaussianBlur stdDeviation="2.06811"/>
<feComposite in2="hardAlpha" operator="arithmetic" k2="-1" k3="1"/>
<feColorMatrix type="matrix" values="0 0 0 0 0.78638 0 0 0 0 0.830606 0 0 0 0 0.9854 0 0 0 0.1 0"/>
<feBlend mode="normal" in2="shape" result="effect1_innerShadow_440_12341"/>
<feColorMatrix in="SourceAlpha" type="matrix" values="0 0 0 0 0 0 0 0 0 0 0 0 0 0 0 0 0 0 127 0" result="hardAlpha"/>
<feOffset dy="-4.13621"/>
<feGaussianBlur stdDeviation="2.06811"/>
<feComposite in2="hardAlpha" operator="arithmetic" k2="-1" k3="1"/>
<feColorMatrix type="matrix" values="0 0 0 0 0.0636856 0 0 0 0 0.181279 0 0 0 0 0.592855 0 0 0 0.1 0"/>
<feBlend mode="normal" in2="effect1_innerShadow_440_12341" result="effect2_innerShadow_440_12341"/>
<feColorMatrix in="SourceAlpha" type="matrix" values="0 0 0 0 0 0 0 0 0 0 0 0 0 0 0 0 0 0 127 0" result="hardAlpha"/>
<feOffset dy="8.27243"/>
<feGaussianBlur stdDeviation="2.06811"/>
<feComposite in2="hardAlpha" operator="arithmetic" k2="-1" k3="1"/>
<feColorMatrix type="matrix" values="0 0 0 0 0.78638 0 0 0 0 0.830606 0 0 0 0 0.9854 0 0 0 0.1 0"/>
<feBlend mode="normal" in2="effect2_innerShadow_440_12341" result="effect3_innerShadow_440_12341"/>
<feColorMatrix in="SourceAlpha" type="matrix" values="0 0 0 0 0 0 0 0 0 0 0 0 0 0 0 0 0 0 127 0" result="hardAlpha"/>
<feOffset dy="-4.13621"/>
<feGaussianBlur stdDeviation="2.06811"/>
<feComposite in2="hardAlpha" operator="arithmetic" k2="-1" k3="1"/>
<feColorMatrix type="matrix" values="0 0 0 0 0.0636856 0 0 0 0 0.181279 0 0 0 0 0.592855 0 0 0 0.1 0"/>
<feBlend mode="normal" in2="effect3_innerShadow_440_12341" result="effect4_innerShadow_440_12341"/>
</filter>
<filter id="filter1_iiii_440_12341" x="0" y="-1.2" width="64" height="66.4146" filterUnits="userSpaceOnUse" color-interpolation-filters="sRGB">
<feFlood flood-opacity="0" result="BackgroundImageFix"/>
<feBlend mode="normal" in="SourceGraphic" in2="BackgroundImageFix" result="shape"/>
<feColorMatrix in="SourceAlpha" type="matrix" values="0 0 0 0 0 0 0 0 0 0 0 0 0 0 0 0 0 0 127 0" result="hardAlpha"/>
<feOffset dy="2.4"/>
<feGaussianBlur stdDeviation="0.6"/>
<feComposite in2="hardAlpha" operator="arithmetic" k2="-1" k3="1"/>
<feColorMatrix type="matrix" values="0 0 0 0 0.78638 0 0 0 0 0.830606 0 0 0 0 0.9854 0 0 0 0.1 0"/>
<feBlend mode="normal" in2="shape" result="effect1_innerShadow_440_12341"/>
<feColorMatrix in="SourceAlpha" type="matrix" values="0 0 0 0 0 0 0 0 0 0 0 0 0 0 0 0 0 0 127 0" result="hardAlpha"/>
<feOffset dy="-1.2"/>
<feGaussianBlur stdDeviation="0.6"/>
<feComposite in2="hardAlpha" operator="arithmetic" k2="-1" k3="1"/>
<feColorMatrix type="matrix" values="0 0 0 0 0.0636856 0 0 0 0 0.181279 0 0 0 0 0.592855 0 0 0 0.1 0"/>
<feBlend mode="normal" in2="effect1_innerShadow_440_12341" result="effect2_innerShadow_440_12341"/>
<feColorMatrix in="SourceAlpha" type="matrix" values="0 0 0 0 0 0 0 0 0 0 0 0 0 0 0 0 0 0 127 0" result="hardAlpha"/>
<feOffset dy="2.4"/>
<feGaussianBlur stdDeviation="0.6"/>
<feComposite in2="hardAlpha" operator="arithmetic" k2="-1" k3="1"/>
<feColorMatrix type="matrix" values="0 0 0 0 0.78638 0 0 0 0 0.830606 0 0 0 0 0.9854 0 0 0 0.1 0"/>
<feBlend mode="normal" in2="effect2_innerShadow_440_12341" result="effect3_innerShadow_440_12341"/>
<feColorMatrix in="SourceAlpha" type="matrix" values="0 0 0 0 0 0 0 0 0 0 0 0 0 0 0 0 0 0 127 0" result="hardAlpha"/>
<feOffset dy="-1.2"/>
<feGaussianBlur stdDeviation="0.6"/>
<feComposite in2="hardAlpha" operator="arithmetic" k2="-1" k3="1"/>
<feColorMatrix type="matrix" values="0 0 0 0 0.0636856 0 0 0 0 0.181279 0 0 0 0 0.592855 0 0 0 0.1 0"/>
<feBlend mode="normal" in2="effect3_innerShadow_440_12341" result="effect4_innerShadow_440_12341"/>
</filter>
<linearGradient id="paint0_linear_440_12341" x1="32" y1="0" x2="32" y2="64.0145" gradientUnits="userSpaceOnUse">
<stop stop-color="#4064E2"/>
<stop offset="1" stop-color="#3556CA"/>
</linearGradient>
<radialGradient id="paint1_radial_440_12341" cx="0" cy="0" r="1" gradientUnits="userSpaceOnUse" gradientTransform="translate(18.0399 -3.82056) rotate(58.6647) scale(88.3769 86.1455)">
<stop stop-color="white" stop-opacity="0.6"/>
<stop offset="1" stop-color="white" stop-opacity="0.2"/>
</radialGradient>
</defs>
</svg>
