<svg viewBox="0 0 24 23" fill="none" xmlns="http://www.w3.org/2000/svg"><g filter="url(#filter0_ii_1365_9865)"><path d="M11.9996 0.625C10.5025 0.625 9.02013 0.91987 7.63702 1.49277C6.25391 2.06568 4.99718 2.9054 3.93859 3.96398C1.80068 6.1019 0.599609 9.00153 0.599609 12.025C0.599609 17.0638 3.87141 21.3388 8.39721 22.855C8.96721 22.9462 9.14961 22.5928 9.14961 22.285V20.3584C5.99181 21.0424 5.31921 18.8308 5.31921 18.8308C4.79481 17.5084 4.05381 17.155 4.05381 17.155C3.01641 16.4482 4.13361 16.471 4.13361 16.471C5.27361 16.5508 5.87781 17.6452 5.87781 17.6452C6.86961 19.378 8.54541 18.865 9.19521 18.5914C9.29781 17.8504 9.59421 17.3488 9.91341 17.0638C7.38261 16.7788 4.72641 15.7984 4.72641 11.455C4.72641 10.1896 5.15961 9.175 5.90061 8.3656C5.78661 8.0806 5.38761 6.895 6.01461 5.356C6.01461 5.356 6.97221 5.0482 9.14961 6.5188C10.0502 6.268 11.0306 6.1426 11.9996 6.1426C12.9686 6.1426 13.949 6.268 14.8496 6.5188C17.027 5.0482 17.9846 5.356 17.9846 5.356C18.6116 6.895 18.2126 8.0806 18.0986 8.3656C18.8396 9.175 19.2728 10.1896 19.2728 11.455C19.2728 15.8098 16.6052 16.7674 14.063 17.0524C14.4734 17.4058 14.8496 18.1012 14.8496 19.1614V22.285C14.8496 22.5928 15.032 22.9576 15.6134 22.855C20.1392 21.3274 23.3996 17.0638 23.3996 12.025C23.3996 10.5279 23.1047 9.04552 22.5318 7.66241C21.9589 6.2793 21.1192 5.02257 20.0606 3.96398C19.002 2.9054 17.7453 2.06568 16.3622 1.49277C14.9791 0.91987 13.4967 0.625 11.9996 0.625Z" fill="url(#paint0_linear_1365_9865)"/></g><path d="M5.89052 20.0434C6.47972 20.5327 7.42863 20.9091 8.89961 20.6612V22.285C8.89961 22.3961 8.86604 22.4879 8.81147 22.5418C8.76702 22.5857 8.67125 22.6414 8.45616 22.6111C4.03948 21.1219 0.849609 16.9452 0.849609 12.025C0.849609 9.06784 2.02434 6.23179 4.11537 4.14076C5.15074 3.10539 6.37991 2.28408 7.73269 1.72374C9.08547 1.1634 10.5354 0.875 11.9996 0.875C13.4638 0.875 14.9137 1.1634 16.2665 1.72374C17.6193 2.28408 18.8485 3.10539 19.8839 4.14076C20.9192 5.17613 21.7405 6.4053 22.3009 7.75808C22.8612 9.11086 23.1496 10.5608 23.1496 12.025C23.1496 16.9459 19.9702 21.1119 15.5522 22.6118C15.331 22.647 15.2339 22.5902 15.1892 22.5461C15.1335 22.4911 15.0996 22.3967 15.0996 22.285V19.1614C15.0996 18.3236 14.8764 17.6813 14.5647 17.2396C15.7041 17.071 16.8662 16.7334 17.7811 15.972C18.8361 15.0942 19.5228 13.6876 19.5228 11.455C19.5228 10.1847 19.105 9.14676 18.3845 8.31105C18.5407 7.84373 18.8 6.6949 18.2161 5.26168L18.1721 5.15368L18.0611 5.11799L17.9846 5.356C18.0611 5.11799 18.0609 5.11792 18.0606 5.11784L18.0601 5.11767L18.059 5.11733L18.0566 5.11658L18.0506 5.11481C18.0461 5.11353 18.0407 5.11205 18.0342 5.11044C18.0214 5.10721 18.0047 5.10346 17.984 5.09969C17.9427 5.09216 17.8858 5.08463 17.8128 5.08117C17.6668 5.07423 17.4579 5.08368 17.1825 5.14121C16.6481 5.25285 15.8655 5.54507 14.8053 6.24767C13.9122 6.01054 12.9497 5.8926 11.9996 5.8926C11.0495 5.8926 10.0871 6.01054 9.19394 6.24767C8.13371 5.54507 7.35112 5.25285 6.81671 5.14121C6.54134 5.08368 6.33243 5.07423 6.1864 5.08117C6.11346 5.08463 6.05655 5.09216 6.01521 5.09969C5.99455 5.10346 5.97783 5.10721 5.96499 5.11044C5.95857 5.11205 5.95312 5.11353 5.94864 5.11481L5.94265 5.11658L5.9402 5.11733L5.93911 5.11767L5.9386 5.11784C5.93835 5.11792 5.93811 5.11799 6.01461 5.356L5.93811 5.11799L5.82709 5.15368L5.78309 5.26168C5.19918 6.6949 5.45856 7.84372 5.61469 8.31105C4.89425 9.14676 4.47641 10.1847 4.47641 11.455C4.47641 13.6818 5.16014 15.0907 6.21005 15.9727C7.12311 16.7398 8.28353 17.0824 9.42115 17.2518C9.21844 17.5482 9.05505 17.9348 8.97042 18.4122C8.65167 18.5333 8.17956 18.6644 7.68637 18.6216C7.13967 18.5742 6.54792 18.3127 6.09478 17.521L6.0934 17.5186L6.0865 17.5066C6.08069 17.4967 6.07244 17.4829 6.06179 17.4658C6.04049 17.4316 6.00945 17.384 5.96876 17.3273C5.88762 17.2141 5.76682 17.0627 5.6069 16.9082C5.28888 16.601 4.80039 16.2671 4.15107 16.2216L4.15109 16.2213L4.13871 16.2211L4.13361 16.471C4.13871 16.2211 4.13863 16.2211 4.13855 16.221L4.13836 16.221L4.1379 16.221L4.13668 16.221L4.13303 16.221L4.12114 16.2209C4.11129 16.2209 4.09763 16.221 4.081 16.2215C4.04795 16.2224 4.00203 16.2245 3.95023 16.2297C3.85662 16.2392 3.70585 16.2617 3.5838 16.3291C3.52028 16.3642 3.44008 16.4248 3.39488 16.5261C3.34597 16.6357 3.35696 16.7494 3.39838 16.8474C3.4371 16.9389 3.50418 17.023 3.58486 17.1017C3.66741 17.1822 3.776 17.2682 3.91305 17.3616L3.92889 17.3724L3.94415 17.3797L3.94455 17.3799L3.94465 17.3799L3.94529 17.3802L3.94594 17.3805L3.94622 17.3807C3.94893 17.3821 3.95427 17.385 3.962 17.3895C3.97748 17.3984 4.00256 17.4136 4.03543 17.4364C4.10114 17.4819 4.19817 17.5576 4.31209 17.6728C4.53839 17.9017 4.83464 18.29 5.08378 18.9153C5.08574 18.9213 5.08846 18.9293 5.09197 18.9392C5.09903 18.9591 5.10935 18.9866 5.1234 19.0204C5.15146 19.088 5.19458 19.1812 5.25659 19.2897C5.38044 19.5064 5.58128 19.7866 5.89052 20.0434Z" stroke="url(#paint1_radial_1365_9865)" stroke-opacity="0.2" stroke-width="0.5"/><defs><filter id="filter0_ii_1365_9865" x="0.599609" y="0.0688084" width="22.8" height="23.3604" filterUnits="userSpaceOnUse" color-interpolation-filters="sRGB"><feFlood flood-opacity="0" result="BackgroundImageFix"/><feBlend mode="normal" in="SourceGraphic" in2="BackgroundImageFix" result="shape"/><feColorMatrix in="SourceAlpha" type="matrix" values="0 0 0 0 0 0 0 0 0 0 0 0 0 0 0 0 0 0 127 0" result="hardAlpha"/><feOffset dy="1.11238"/><feGaussianBlur stdDeviation="0.278096"/><feComposite in2="hardAlpha" operator="arithmetic" k2="-1" k3="1"/><feColorMatrix type="matrix" values="0 0 0 0 0.78638 0 0 0 0 0.830606 0 0 0 0 0.9854 0 0 0 0.1 0"/><feBlend mode="normal" in2="shape" result="effect1_innerShadow_1365_9865"/><feColorMatrix in="SourceAlpha" type="matrix" values="0 0 0 0 0 0 0 0 0 0 0 0 0 0 0 0 0 0 127 0" result="hardAlpha"/><feOffset dy="-0.556192"/><feGaussianBlur stdDeviation="0.278096"/><feComposite in2="hardAlpha" operator="arithmetic" k2="-1" k3="1"/><feColorMatrix type="matrix" values="0 0 0 0 0.0636856 0 0 0 0 0.181279 0 0 0 0 0.592855 0 0 0 0.1 0"/><feBlend mode="normal" in2="effect1_innerShadow_1365_9865" result="effect2_innerShadow_1365_9865"/></filter><linearGradient id="paint0_linear_1365_9865" x1="11.9996" y1="0.625" x2="11.9996" y2="22.8727" gradientUnits="userSpaceOnUse"><stop stop-color="#4064E2"/><stop offset="1" stop-color="#3556CA"/></linearGradient><radialGradient id="paint1_radial_1365_9865" cx="0" cy="0" r="1" gradientUnits="userSpaceOnUse" gradientTransform="translate(7.02634 -0.702799) rotate(58.0312) scale(30.9247 30.4809)"><stop stop-color="white" stop-opacity="0.6"/><stop offset="1" stop-color="white" stop-opacity="0.2"/></radialGradient></defs></svg>