<svg width="49" height="48" viewBox="0 0 49 48" fill="none" xmlns="http://www.w3.org/2000/svg">
<g filter="url(#filter0_iiii_789_12425)">
<path d="M29.7397 16.7C28.8997 17.26 26.2397 18.78 25.8397 19.08C25.0597 19.7 24.3397 19.66 23.5597 19.06C23.1597 18.74 20.4997 17.22 19.6597 16.68C18.6997 16.06 18.7597 15.28 19.8197 14.84C23.0997 13.46 26.3797 13.56 29.6397 14.9C30.6197 15.32 30.6597 16.1 29.7397 16.7ZM44.1797 31.26C42.3197 27.08 39.7797 23.28 36.4997 19.94C35.4856 18.8867 34.756 17.5928 34.3797 16.18C34.1797 15.52 34.0397 14.84 33.8997 14.16C33.4997 12.4 33.3197 10.6 32.4997 8.94C31.0397 5.78 28.4997 4.14 24.8197 4C21.1997 4.1 18.4997 5.62 16.9197 8.8C16.4997 9.66 16.1997 10.56 15.9997 11.48C15.6597 13 15.3597 14.58 14.9997 16.12C14.6997 17.42 14.0997 18.54 13.0797 19.54C9.85968 22.68 7.27968 26.28 5.31968 30.24C5.03968 30.82 4.75968 31.4 4.57968 32C4.19968 33.32 5.15968 34.24 6.55968 33.92C7.43968 33.74 8.31968 33.56 9.15968 33.3C9.97968 33 10.2997 33.2 10.4997 34C11.7997 38.3 14.6397 41.32 18.9797 43C27.2197 46.12 36.8397 41.68 38.9197 33.84C39.0597 33.3 39.2597 33.1 39.8597 33.3C40.7797 33.58 41.7197 33.78 42.6597 34C43.6397 34.18 44.3597 33.68 44.4997 32.72C44.5597 32.2 44.3797 31.74 44.1797 31.26Z" fill="url(#paint0_linear_789_12425)"/>
</g>
<defs>
<filter id="filter0_iiii_789_12425" x="0.5" y="-1.2" width="48" height="50.4" filterUnits="userSpaceOnUse" color-interpolation-filters="sRGB">
<feFlood flood-opacity="0" result="BackgroundImageFix"/>
<feBlend mode="normal" in="SourceGraphic" in2="BackgroundImageFix" result="shape"/>
<feColorMatrix in="SourceAlpha" type="matrix" values="0 0 0 0 0 0 0 0 0 0 0 0 0 0 0 0 0 0 127 0" result="hardAlpha"/>
<feOffset dy="2.4"/>
<feGaussianBlur stdDeviation="0.6"/>
<feComposite in2="hardAlpha" operator="arithmetic" k2="-1" k3="1"/>
<feColorMatrix type="matrix" values="0 0 0 0 0.78638 0 0 0 0 0.830606 0 0 0 0 0.9854 0 0 0 0.1 0"/>
<feBlend mode="normal" in2="shape" result="effect1_innerShadow_789_12425"/>
<feColorMatrix in="SourceAlpha" type="matrix" values="0 0 0 0 0 0 0 0 0 0 0 0 0 0 0 0 0 0 127 0" result="hardAlpha"/>
<feOffset dy="-1.2"/>
<feGaussianBlur stdDeviation="0.6"/>
<feComposite in2="hardAlpha" operator="arithmetic" k2="-1" k3="1"/>
<feColorMatrix type="matrix" values="0 0 0 0 0.0636856 0 0 0 0 0.181279 0 0 0 0 0.592855 0 0 0 0.1 0"/>
<feBlend mode="normal" in2="effect1_innerShadow_789_12425" result="effect2_innerShadow_789_12425"/>
<feColorMatrix in="SourceAlpha" type="matrix" values="0 0 0 0 0 0 0 0 0 0 0 0 0 0 0 0 0 0 127 0" result="hardAlpha"/>
<feOffset dy="2.4"/>
<feGaussianBlur stdDeviation="0.6"/>
<feComposite in2="hardAlpha" operator="arithmetic" k2="-1" k3="1"/>
<feColorMatrix type="matrix" values="0 0 0 0 0.78638 0 0 0 0 0.830606 0 0 0 0 0.9854 0 0 0 0.1 0"/>
<feBlend mode="normal" in2="effect2_innerShadow_789_12425" result="effect3_innerShadow_789_12425"/>
<feColorMatrix in="SourceAlpha" type="matrix" values="0 0 0 0 0 0 0 0 0 0 0 0 0 0 0 0 0 0 127 0" result="hardAlpha"/>
<feOffset dy="-1.2"/>
<feGaussianBlur stdDeviation="0.6"/>
<feComposite in2="hardAlpha" operator="arithmetic" k2="-1" k3="1"/>
<feColorMatrix type="matrix" values="0 0 0 0 0.0636856 0 0 0 0 0.181279 0 0 0 0 0.592855 0 0 0 0.1 0"/>
<feBlend mode="normal" in2="effect3_innerShadow_789_12425" result="effect4_innerShadow_789_12425"/>
</filter>
<linearGradient id="paint0_linear_789_12425" x1="24.5037" y1="4" x2="24.5037" y2="44.0058" gradientUnits="userSpaceOnUse">
<stop stop-color="#4064E2"/>
<stop offset="1" stop-color="#3556CA"/>
</linearGradient>
</defs>
</svg>
