<svg width="64" height="64" viewBox="0 0 64 64" fill="none" xmlns="http://www.w3.org/2000/svg">
<g filter="url(#filter0_iiii_440_12343)">
<g filter="url(#filter1_iiii_440_12343)">
<path fill-rule="evenodd" clip-rule="evenodd" d="M61.5159 17.1435L32.1373 0L2.75879 17.1435V46.8565L7.30568 49.5096L16.6029 45.7491C17.854 45.2425 18.9254 44.374 19.6799 43.2547C20.4344 42.1355 20.8376 40.8165 20.8379 39.4667V16.1808H25.3577V39.4667C25.3573 41.7168 24.6852 43.9155 23.4275 45.7813C22.1697 47.647 20.3835 49.0947 18.2978 49.939L12.2413 52.3887L32.1373 64L61.5159 46.861V17.1435ZM29.8774 25.2203C29.8774 22.8229 30.8298 20.5237 32.5251 18.8284C34.2203 17.1332 36.5195 16.1808 38.917 16.1808H44.1916C48.7656 16.1808 52.4763 19.887 52.4763 24.4655V25.2203H47.9565V24.4655C47.9565 23.9711 47.8591 23.4815 47.6699 23.0247C47.4807 22.568 47.2034 22.1529 46.8538 21.8033C46.5042 21.4537 46.0891 21.1764 45.6324 20.9872C45.1756 20.7979 44.686 20.7006 44.1916 20.7006H38.917C37.7183 20.7006 36.5686 21.1768 35.721 22.0244C34.8734 22.872 34.3972 24.0216 34.3972 25.2203C34.3972 26.4191 34.8734 27.5687 35.721 28.4163C36.5686 29.2639 37.7183 29.7401 38.917 29.7401H43.4368C45.8342 29.7401 48.1334 30.6925 49.8287 32.3877C51.5239 34.083 52.4763 36.3822 52.4763 38.7797C52.4763 41.1771 51.5239 43.4763 49.8287 45.1716C48.1334 46.8668 45.8342 47.8192 43.4368 47.8192H38.917C36.5195 47.8192 34.2203 46.8668 32.5251 45.1716C30.8298 43.4763 29.8774 41.1771 29.8774 38.7797H34.3972C34.3972 39.9784 34.8734 41.128 35.721 41.9756C36.5686 42.8232 37.7183 43.2994 38.917 43.2994H43.4368C44.6355 43.2994 45.7851 42.8232 46.6327 41.9756C47.4803 41.128 47.9565 39.9784 47.9565 38.7797C47.9565 37.5809 47.4803 36.4313 46.6327 35.5837C45.7851 34.7361 44.6355 34.2599 43.4368 34.2599H38.917C36.5195 34.2599 34.2203 33.3075 32.5251 31.6123C30.8298 29.917 29.8774 27.6178 29.8774 25.2203Z" fill="url(#paint0_linear_440_12343)"/>
</g>
<path d="M13.373 52.4703L18.4853 50.4025L18.4854 50.4025C20.6634 49.5209 22.5286 48.0091 23.842 46.0608C25.1555 44.1125 25.8573 41.8164 25.8577 39.4667V39.4667V16.1808V15.6808H25.3577H20.8379H20.3379V16.1808V39.4666C20.3379 39.4666 20.3379 39.4666 20.3379 39.4667C20.3376 40.7169 19.9641 41.9386 19.2653 42.9752C18.5665 44.0119 17.5742 44.8164 16.4154 45.2856C16.4153 45.2857 16.4153 45.2857 16.4152 45.2857L7.34571 48.9541L3.25879 46.5694V17.4306L32.1373 0.578903L61.0159 17.4306V46.5738L32.1374 63.4211L13.373 52.4703ZM52.4763 25.7203H52.9763V25.2203V24.4655C52.9763 19.6107 49.0415 15.6808 44.1916 15.6808H38.917C36.3869 15.6808 33.9605 16.6858 32.1715 18.4749C30.3825 20.2639 29.3774 22.6903 29.3774 25.2203C29.3774 27.7504 30.3825 30.1768 32.1715 31.9658C33.9605 33.7548 36.3869 34.7599 38.917 34.7599H43.4368C44.5029 34.7599 45.5253 35.1834 46.2792 35.9373C47.033 36.6911 47.4565 37.7136 47.4565 38.7797C47.4565 39.8458 47.033 40.8682 46.2792 41.6221C45.5253 42.3759 44.5029 42.7994 43.4368 42.7994H38.917C37.8509 42.7994 36.8284 42.3759 36.0746 41.6221C35.3207 40.8682 34.8972 39.8458 34.8972 38.7797V38.2797H34.3972H29.8774H29.3774V38.7797C29.3774 41.3097 30.3825 43.7361 32.1715 45.5251C33.9605 47.3142 36.3869 48.3192 38.917 48.3192H43.4368C45.9668 48.3192 48.3932 47.3142 50.1822 45.5251C51.9713 43.7361 52.9763 41.3097 52.9763 38.7797C52.9763 36.2496 51.9713 33.8232 50.1822 32.0342C48.3932 30.2452 45.9668 29.2401 43.4368 29.2401H38.917C37.8509 29.2401 36.8284 28.8166 36.0746 28.0627C35.3207 27.3089 34.8972 26.2864 34.8972 25.2203C34.8972 24.1542 35.3207 23.1318 36.0746 22.3779C36.8284 21.6241 37.8509 21.2006 38.917 21.2006H44.1916C44.6203 21.2006 45.0449 21.285 45.441 21.4491C45.8371 21.6132 46.1971 21.8537 46.5002 22.1569C46.8034 22.46 47.0439 22.82 47.208 23.2161C47.3721 23.6122 47.4565 24.0368 47.4565 24.4655V25.2203V25.7203H47.9565H52.4763Z" stroke="url(#paint1_radial_440_12343)" stroke-opacity="0.2"/>
</g>
<defs>
<filter id="filter0_iiii_440_12343" x="0" y="-4.13621" width="64" height="72.2724" filterUnits="userSpaceOnUse" color-interpolation-filters="sRGB">
<feFlood flood-opacity="0" result="BackgroundImageFix"/>
<feBlend mode="normal" in="SourceGraphic" in2="BackgroundImageFix" result="shape"/>
<feColorMatrix in="SourceAlpha" type="matrix" values="0 0 0 0 0 0 0 0 0 0 0 0 0 0 0 0 0 0 127 0" result="hardAlpha"/>
<feOffset dy="8.27243"/>
<feGaussianBlur stdDeviation="2.06811"/>
<feComposite in2="hardAlpha" operator="arithmetic" k2="-1" k3="1"/>
<feColorMatrix type="matrix" values="0 0 0 0 0.78638 0 0 0 0 0.830606 0 0 0 0 0.9854 0 0 0 0.1 0"/>
<feBlend mode="normal" in2="shape" result="effect1_innerShadow_440_12343"/>
<feColorMatrix in="SourceAlpha" type="matrix" values="0 0 0 0 0 0 0 0 0 0 0 0 0 0 0 0 0 0 127 0" result="hardAlpha"/>
<feOffset dy="-4.13621"/>
<feGaussianBlur stdDeviation="2.06811"/>
<feComposite in2="hardAlpha" operator="arithmetic" k2="-1" k3="1"/>
<feColorMatrix type="matrix" values="0 0 0 0 0.0636856 0 0 0 0 0.181279 0 0 0 0 0.592855 0 0 0 0.1 0"/>
<feBlend mode="normal" in2="effect1_innerShadow_440_12343" result="effect2_innerShadow_440_12343"/>
<feColorMatrix in="SourceAlpha" type="matrix" values="0 0 0 0 0 0 0 0 0 0 0 0 0 0 0 0 0 0 127 0" result="hardAlpha"/>
<feOffset dy="8.27243"/>
<feGaussianBlur stdDeviation="2.06811"/>
<feComposite in2="hardAlpha" operator="arithmetic" k2="-1" k3="1"/>
<feColorMatrix type="matrix" values="0 0 0 0 0.78638 0 0 0 0 0.830606 0 0 0 0 0.9854 0 0 0 0.1 0"/>
<feBlend mode="normal" in2="effect2_innerShadow_440_12343" result="effect3_innerShadow_440_12343"/>
<feColorMatrix in="SourceAlpha" type="matrix" values="0 0 0 0 0 0 0 0 0 0 0 0 0 0 0 0 0 0 127 0" result="hardAlpha"/>
<feOffset dy="-4.13621"/>
<feGaussianBlur stdDeviation="2.06811"/>
<feComposite in2="hardAlpha" operator="arithmetic" k2="-1" k3="1"/>
<feColorMatrix type="matrix" values="0 0 0 0 0.0636856 0 0 0 0 0.181279 0 0 0 0 0.592855 0 0 0 0.1 0"/>
<feBlend mode="normal" in2="effect3_innerShadow_440_12343" result="effect4_innerShadow_440_12343"/>
</filter>
<filter id="filter1_iiii_440_12343" x="2.75879" y="-1.2" width="58.7568" height="66.4" filterUnits="userSpaceOnUse" color-interpolation-filters="sRGB">
<feFlood flood-opacity="0" result="BackgroundImageFix"/>
<feBlend mode="normal" in="SourceGraphic" in2="BackgroundImageFix" result="shape"/>
<feColorMatrix in="SourceAlpha" type="matrix" values="0 0 0 0 0 0 0 0 0 0 0 0 0 0 0 0 0 0 127 0" result="hardAlpha"/>
<feOffset dy="2.4"/>
<feGaussianBlur stdDeviation="0.6"/>
<feComposite in2="hardAlpha" operator="arithmetic" k2="-1" k3="1"/>
<feColorMatrix type="matrix" values="0 0 0 0 0.78638 0 0 0 0 0.830606 0 0 0 0 0.9854 0 0 0 0.1 0"/>
<feBlend mode="normal" in2="shape" result="effect1_innerShadow_440_12343"/>
<feColorMatrix in="SourceAlpha" type="matrix" values="0 0 0 0 0 0 0 0 0 0 0 0 0 0 0 0 0 0 127 0" result="hardAlpha"/>
<feOffset dy="-1.2"/>
<feGaussianBlur stdDeviation="0.6"/>
<feComposite in2="hardAlpha" operator="arithmetic" k2="-1" k3="1"/>
<feColorMatrix type="matrix" values="0 0 0 0 0.0636856 0 0 0 0 0.181279 0 0 0 0 0.592855 0 0 0 0.1 0"/>
<feBlend mode="normal" in2="effect1_innerShadow_440_12343" result="effect2_innerShadow_440_12343"/>
<feColorMatrix in="SourceAlpha" type="matrix" values="0 0 0 0 0 0 0 0 0 0 0 0 0 0 0 0 0 0 127 0" result="hardAlpha"/>
<feOffset dy="2.4"/>
<feGaussianBlur stdDeviation="0.6"/>
<feComposite in2="hardAlpha" operator="arithmetic" k2="-1" k3="1"/>
<feColorMatrix type="matrix" values="0 0 0 0 0.78638 0 0 0 0 0.830606 0 0 0 0 0.9854 0 0 0 0.1 0"/>
<feBlend mode="normal" in2="effect2_innerShadow_440_12343" result="effect3_innerShadow_440_12343"/>
<feColorMatrix in="SourceAlpha" type="matrix" values="0 0 0 0 0 0 0 0 0 0 0 0 0 0 0 0 0 0 127 0" result="hardAlpha"/>
<feOffset dy="-1.2"/>
<feGaussianBlur stdDeviation="0.6"/>
<feComposite in2="hardAlpha" operator="arithmetic" k2="-1" k3="1"/>
<feColorMatrix type="matrix" values="0 0 0 0 0.0636856 0 0 0 0 0.181279 0 0 0 0 0.592855 0 0 0 0.1 0"/>
<feBlend mode="normal" in2="effect3_innerShadow_440_12343" result="effect4_innerShadow_440_12343"/>
</filter>
<linearGradient id="paint0_linear_440_12343" x1="32.1373" y1="0" x2="32.1373" y2="64" gradientUnits="userSpaceOnUse">
<stop stop-color="#4064E2"/>
<stop offset="1" stop-color="#3556CA"/>
</linearGradient>
<radialGradient id="paint1_radial_440_12343" cx="0" cy="0" r="1" gradientUnits="userSpaceOnUse" gradientTransform="translate(19.3209 -3.81969) rotate(60.7903) scale(86.4638 80.82)">
<stop stop-color="white" stop-opacity="0.6"/>
<stop offset="1" stop-color="white" stop-opacity="0.2"/>
</radialGradient>
</defs>
</svg>
