<svg viewBox="0 0 48 49" fill="none" xmlns="http://www.w3.org/2000/svg">
<g filter="url(#filter0_iiii_440_10179)">
<path fill-rule="evenodd" clip-rule="evenodd" d="M14.346 40.1536C23.6436 41.423 32.7759 42.6697 42.0897 43.9408C38.9165 38.658 35.8249 33.5103 32.7085 28.3206L14.346 40.1536ZM44.7138 10.912C43.8943 12.1429 43.0731 13.3727 42.2545 14.6042C39.4435 18.8332 36.6329 23.0622 33.8246 27.2932C33.6682 27.5288 33.4654 27.7157 33.6858 28.0789C36.3993 32.5598 39.0915 37.0538 41.7904 41.5438C42.2163 42.253 42.6469 42.9595 43.1976 43.6399C43.7433 32.7422 44.2886 21.8442 44.834 10.9466L44.7138 10.912ZM7.67096 24.8834C7.7979 25.0036 8.11475 25.0736 8.26234 25.0008C10.8651 23.7216 13.4845 22.4708 16.0305 21.0863C16.8608 20.6351 17.4993 19.826 18.2145 19.17C20.5831 16.9978 22.9479 14.8212 25.3118 12.6442C25.4563 12.5105 25.6276 12.3812 25.7139 12.2126C26.5629 10.5532 27.3973 8.88538 28.2612 7.16947C27.2311 6.78222 26.2545 6.40342 25.2657 6.05882C25.1317 6.01211 24.9204 6.10486 24.7752 6.18576C22.4865 7.46432 20.1549 8.67483 17.939 10.0692C16.8304 10.7668 15.9272 11.7949 14.9455 12.6902C13.3633 14.1343 11.7832 15.5818 10.224 17.0509C9.81035 17.4409 9.43324 17.8864 9.11098 18.3555C8.04468 19.9083 7.01019 21.4834 5.92831 23.1032C6.53289 23.7284 7.08263 24.3262 7.67096 24.8834ZM17.1838 22.7606C15.889 28.2306 14.602 33.6698 13.272 39.2877C19.5083 35.2692 25.6008 31.3435 31.6531 27.4442C26.8367 25.8854 22.036 24.3313 17.1838 22.7606ZM43.1242 10.9649C37.8549 11.8453 32.7116 12.7045 27.5019 13.5748C29.2764 17.8911 31.0153 22.1208 32.8037 26.4707C36.2636 21.2715 39.6551 16.1766 43.1242 10.9649ZM17.4011 21.6418C22.146 23.182 26.7965 24.6918 31.582 26.2456C29.8048 21.916 28.0886 17.7378 26.3368 13.4712C23.3528 16.1992 20.4135 18.887 17.4011 21.6418ZM7.86696 28.0732C6.18422 32.0957 4.55869 35.9814 2.90372 39.9373C6.08436 39.8432 9.16751 39.7521 12.3566 39.658C10.8594 35.7949 9.39161 32.0077 7.86696 28.0732ZM12.4683 36.9069L12.5855 36.8812C13.7205 32.162 14.8718 27.4754 16.0305 22.5717C13.4456 23.9152 10.9799 25.1965 8.44683 26.5133C9.7396 29.8734 11.118 33.4179 12.4683 36.9069ZM41.217 10.1995C39.7076 9.7997 38.1982 9.39856 36.6881 9.00149C34.5175 8.43076 32.3453 7.86714 30.1761 7.29134C29.905 7.21923 29.709 7.17218 29.5496 7.49884C28.7828 9.06953 27.9924 10.6284 27.2135 12.1933C27.1895 12.2417 27.1945 12.3043 27.1759 12.4259C31.8765 11.7136 36.5456 11.0058 41.214 10.2983L41.217 10.1995ZM32.4601 6.62684L44.7626 10.0302C44.0571 8.01981 43.4028 6.15563 42.7298 4.23831L32.478 6.51141L32.4601 6.62684ZM13.5113 41.0598C11.9876 40.8841 10.4234 41.0456 8.87809 41.0723C7.60867 41.0936 6.33926 41.142 5.06985 41.1816C4.93918 41.1857 4.80885 41.2121 4.67853 41.3529C15.1734 42.3231 25.6679 43.2933 36.1624 44.2641L36.1837 44.124C32.8196 43.6646 29.4551 43.2053 26.091 42.7462C21.8989 42.1738 17.7139 41.5442 13.5113 41.0598ZM3.11122 36.3162C4.46357 33.1782 5.81017 30.0382 7.16793 26.9026C7.30368 26.5881 7.29318 26.3745 7.02745 26.1213C6.45943 25.5807 5.93169 24.9981 5.31086 24.3523C4.4717 28.4956 3.65318 32.5364 2.83398 36.5769L2.92572 36.6199C2.98835 36.5193 3.06485 36.4242 3.11122 36.3162ZM29.7655 5.79851C32.0461 5.21017 34.3598 4.75014 36.66 4.23696C36.8089 4.20344 36.9545 4.15436 37.1011 4.11239L37.0784 4C33.8385 4.43566 30.5989 4.87166 27.1959 5.32967C28.1238 5.73487 28.8387 6.03749 29.7655 5.79851Z" fill="url(#paint0_linear_440_10179)"/>
</g>
<defs>
<filter id="filter0_iiii_440_10179" x="0" y="-1.2804" width="48" height="51.0608" filterUnits="userSpaceOnUse" color-interpolation-filters="sRGB">
<feFlood flood-opacity="0" result="BackgroundImageFix"/>
<feBlend mode="normal" in="SourceGraphic" in2="BackgroundImageFix" result="shape"/>
<feColorMatrix in="SourceAlpha" type="matrix" values="0 0 0 0 0 0 0 0 0 0 0 0 0 0 0 0 0 0 127 0" result="hardAlpha"/>
<feOffset dy="3.0608"/>
<feGaussianBlur stdDeviation="0.765199"/>
<feComposite in2="hardAlpha" operator="arithmetic" k2="-1" k3="1"/>
<feColorMatrix type="matrix" values="0 0 0 0 0.78638 0 0 0 0 0.830606 0 0 0 0 0.9854 0 0 0 0.1 0"/>
<feBlend mode="normal" in2="shape" result="effect1_innerShadow_440_10179"/>
<feColorMatrix in="SourceAlpha" type="matrix" values="0 0 0 0 0 0 0 0 0 0 0 0 0 0 0 0 0 0 127 0" result="hardAlpha"/>
<feOffset dy="-1.5304"/>
<feGaussianBlur stdDeviation="0.765199"/>
<feComposite in2="hardAlpha" operator="arithmetic" k2="-1" k3="1"/>
<feColorMatrix type="matrix" values="0 0 0 0 0.0636856 0 0 0 0 0.181279 0 0 0 0 0.592855 0 0 0 0.1 0"/>
<feBlend mode="normal" in2="effect1_innerShadow_440_10179" result="effect2_innerShadow_440_10179"/>
<feColorMatrix in="SourceAlpha" type="matrix" values="0 0 0 0 0 0 0 0 0 0 0 0 0 0 0 0 0 0 127 0" result="hardAlpha"/>
<feOffset dy="3.0608"/>
<feGaussianBlur stdDeviation="0.765199"/>
<feComposite in2="hardAlpha" operator="arithmetic" k2="-1" k3="1"/>
<feColorMatrix type="matrix" values="0 0 0 0 0.78638 0 0 0 0 0.830606 0 0 0 0 0.9854 0 0 0 0.1 0"/>
<feBlend mode="normal" in2="effect2_innerShadow_440_10179" result="effect3_innerShadow_440_10179"/>
<feColorMatrix in="SourceAlpha" type="matrix" values="0 0 0 0 0 0 0 0 0 0 0 0 0 0 0 0 0 0 127 0" result="hardAlpha"/>
<feOffset dy="-1.5304"/>
<feGaussianBlur stdDeviation="0.765199"/>
<feComposite in2="hardAlpha" operator="arithmetic" k2="-1" k3="1"/>
<feColorMatrix type="matrix" values="0 0 0 0 0.0636856 0 0 0 0 0.181279 0 0 0 0 0.592855 0 0 0 0.1 0"/>
<feBlend mode="normal" in2="effect3_innerShadow_440_10179" result="effect4_innerShadow_440_10179"/>
</filter>
<linearGradient id="paint0_linear_440_10179" x1="23.834" y1="4" x2="23.834" y2="44.2641" gradientUnits="userSpaceOnUse">
<stop stop-color="#4064E2"/>
<stop offset="1" stop-color="#3556CA"/>
</linearGradient>
</defs>
</svg>
