<svg fill="none" viewBox="0 0 24 22" xmlns="http://www.w3.org/2000/svg"><g filter="url(#a)"><path d="M18.6.6H22l-7.7 8.7 9 11.9h-7L10.9 14l-6.4 7.2H1.1l8.1-9.4L.6.6h7.2l5 6.5zM17.3 19h2L6.8 2.5H4.7z" fill="url(#b)"/></g><path d="m10.7 13.8-6.3 7.1H1.6l7.8-9h.1v-.2L1 .8h6.6l4.9 6.5.2.2.2-.2L18.7.8h2.8l-7.3 8.3-.1.2.1.1L23 21h-6.4L11 13.8l-.2-.2zm6.4 5.4.1.1h2.6l-.3-.4L7 2.4l-.1-.1H4.2l.3.4z" stroke="url(#c)" stroke-opacity=".2" stroke-width=".5"/><defs><radialGradient id="c" cx="0" cy="0" r="1" gradientTransform="matrix(16.3733 24.30186 -24.71238 16.6499 7 -.7)" gradientUnits="userSpaceOnUse"><stop stop-color="#fff" stop-opacity=".6" offset="0"/><stop stop-color="#fff" stop-opacity=".2" offset="1"/></radialGradient><linearGradient id="b" x1="12" x2="12" y1=".6" y2="21.2" gradientUnits="userSpaceOnUse"><stop stop-color="#4064E2" offset="0"/><stop stop-color="#3556CA" offset="1"/></linearGradient><filter id="a" x=".6" y="0" width="22.8" height="21.7" color-interpolation-filters="sRGB" filterUnits="userSpaceOnUse"><feFlood flood-opacity="0" result="BackgroundImageFix"/><feBlend in="SourceGraphic" in2="BackgroundImageFix" result="shape"/><feColorMatrix in="SourceAlpha" result="hardAlpha" values="0 0 0 0 0 0 0 0 0 0 0 0 0 0 0 0 0 0 127 0"/><feOffset dy="1.1"/><feGaussianBlur stdDeviation=".3"/><feComposite in2="hardAlpha" k2="-1" k3="1" operator="arithmetic"/><feColorMatrix values="0 0 0 0 0.78638 0 0 0 0 0.830606 0 0 0 0 0.9854 0 0 0 0.1 0"/><feBlend in2="shape" result="effect1_innerShadow_1365_9868"/><feColorMatrix in="SourceAlpha" result="hardAlpha" values="0 0 0 0 0 0 0 0 0 0 0 0 0 0 0 0 0 0 127 0"/><feOffset dy="-.6"/><feGaussianBlur stdDeviation=".3"/><feComposite in2="hardAlpha" k2="-1" k3="1" operator="arithmetic"/><feColorMatrix values="0 0 0 0 0.0636856 0 0 0 0 0.181279 0 0 0 0 0.592855 0 0 0 0.1 0"/><feBlend in2="effect1_innerShadow_1365_9868" result="effect2_innerShadow_1365_9868"/></filter></defs></svg>
