<svg width="24" height="24" viewBox="0 0 24 22" fill="none" xmlns="http://www.w3.org/2000/svg"><g filter="url(#filter0_ii_1365_9868)"><path d="M18.5556 0.550781H22.0516L14.4136 9.28128L23.3996 21.1591H16.3639L10.8539 13.9543L4.54781 21.1591H1.04991L9.21991 11.8206L0.599609 0.551731H7.81391L12.7948 7.13713L18.5556 0.550781ZM17.3291 19.0672H19.2662L6.76131 2.53343H4.68271L17.3291 19.0672Z" fill="url(#paint0_linear_1365_9868)"/></g><path d="M10.6658 13.7897L4.43439 20.9091H1.6008L9.40807 11.9852L9.54279 11.8312L9.41847 11.6687L1.10561 0.801731H7.68954L12.5954 7.28794L12.7807 7.53296L12.9829 7.30172L18.669 0.800781H21.5007L14.2254 9.11667L14.0914 9.26983L14.2142 9.43211L22.897 20.9091H16.4874L11.0525 13.8025L10.867 13.5598L10.6658 13.7897ZM17.1305 19.2191L17.2056 19.3172H17.3291H19.2662H19.7687L19.4656 18.9164L6.9607 2.38263L6.88568 2.28343H6.76131H4.68271H4.17674L4.48414 2.68532L17.1305 19.2191Z" stroke="url(#paint1_radial_1365_9868)" stroke-opacity="0.2" stroke-width="0.5"/><defs><filter id="filter0_ii_1365_9868" x="0.599609" y="-0.00644892" width="22.8" height="21.7219" filterUnits="userSpaceOnUse" color-interpolation-filters="sRGB"><feFlood flood-opacity="0" result="BackgroundImageFix"/><feBlend mode="normal" in="SourceGraphic" in2="BackgroundImageFix" result="shape"/><feColorMatrix in="SourceAlpha" type="matrix" values="0 0 0 0 0 0 0 0 0 0 0 0 0 0 0 0 0 0 127 0" result="hardAlpha"/><feOffset dy="1.11446"/><feGaussianBlur stdDeviation="0.278615"/><feComposite in2="hardAlpha" operator="arithmetic" k2="-1" k3="1"/><feColorMatrix type="matrix" values="0 0 0 0 0.78638 0 0 0 0 0.830606 0 0 0 0 0.9854 0 0 0 0.1 0"/><feBlend mode="normal" in2="shape" result="effect1_innerShadow_1365_9868"/><feColorMatrix in="SourceAlpha" type="matrix" values="0 0 0 0 0 0 0 0 0 0 0 0 0 0 0 0 0 0 127 0" result="hardAlpha"/><feOffset dy="-0.55723"/><feGaussianBlur stdDeviation="0.278615"/><feComposite in2="hardAlpha" operator="arithmetic" k2="-1" k3="1"/><feColorMatrix type="matrix" values="0 0 0 0 0.0636856 0 0 0 0 0.181279 0 0 0 0 0.592855 0 0 0 0.1 0"/><feBlend mode="normal" in2="effect1_innerShadow_1365_9868" result="effect2_innerShadow_1365_9868"/></filter><linearGradient id="paint0_linear_1365_9868" x1="11.9996" y1="0.550781" x2="11.9996" y2="21.1591" gradientUnits="userSpaceOnUse"><stop stop-color="#4064E2"/><stop offset="1" stop-color="#3556CA"/></linearGradient><radialGradient id="paint1_radial_1365_9868" cx="0" cy="0" r="1" gradientUnits="userSpaceOnUse" gradientTransform="translate(7.02634 -0.67918) rotate(56.0296) scale(29.3026 29.7978)"><stop stop-color="white" stop-opacity="0.6"/><stop offset="1" stop-color="white" stop-opacity="0.2"/></radialGradient></defs></svg>